<?xml version="1.0" standalone="no"?>
<!DOCTYPE svg PUBLIC "-//W3C//DTD SVG 1.1//EN" "http://www.w3.org/Graphics/SVG/1.1/DTD/svg11.dtd" >
<svg xmlns="http://www.w3.org/2000/svg" xmlns:xlink="http://www.w3.org/1999/xlink" version="1.1">
<metadata>
Created by FontForge 20150824 at Tue Feb  2 15:55:57 2016
 By Everything Fonts
Copyright (c) 1990, 2001 Adobe Systems Incorporated.  All Rights Reserved.
</metadata>
<defs>
<font id="UsherwoodStdBold" horiz-adv-x="556" >
  <font-face 
    font-family="UsherwoodStdBold"
    font-weight="700"
    font-stretch="normal"
    units-per-em="1000"
    panose-1="0 0 8 0 0 0 0 0 0 0"
    ascent="684"
    descent="-316"
    x-height="467"
    cap-height="627"
    bbox="-155 -300 1092 866"
    underline-thickness="50"
    underline-position="-150"
    unicode-range="U+0020-FB02"
  />
<missing-glyph horiz-adv-x="500" 
d="M0 0v700h500v-700h-500zM250 395l170 255h-340zM280 350l170 -255v510zM80 50h340l-170 255zM50 605v-510l170 255z" />
    <glyph glyph-name="fi" unicode="fi" horiz-adv-x="611" 
d="M42 -5v32q19 2 31 10.5t17 26t6.5 35.5t1.5 51v258h-56v37q16 2 22 3.5t16 6t14 13t4 22.5q0 6 -3.5 30t-3.5 37q0 62 45 99.5t135 37.5q8 0 50 -3q28 -4 33 -4q9 0 18 9l24 3q8 -41 32 -128l-32 -5q-12 20 -21.5 32.5t-36 27t-59.5 14.5q-37 0 -62.5 -20.5t-25.5 -47.5
q0 -20 7.5 -61t7.5 -49h172q61 0 121 18h30q-10 -84 -10 -213v-117q0 -33 1.5 -51t6.5 -35.5t17 -26t31 -10.5v-32q-95 5 -110 5t-110 -5v32q19 2 31 10.5t17 26t6.5 35.5t1.5 51v117q0 82 -19 111.5t-74 29.5h-112v-258q0 -71 16 -95t78 -28v-32q-110 5 -128 5
q-20 0 -130 -5z" />
    <glyph glyph-name="fl" unicode="fl" horiz-adv-x="611" 
d="M42 -5v32q19 2 31 10.5t17 26t6.5 35.5t1.5 51v258h-56v37q16 2 22 3.5t16 6t14 13t4 22.5q0 6 -3.5 30t-3.5 37q0 61 46 99t139 38q56 0 108.5 -17t60.5 -17q28 3 52 24h30q-10 -84 -10 -207v-327q0 -33 1.5 -51t6.5 -35.5t17 -26t31 -10.5v-32q-95 5 -110 5t-110 -5v32
q19 2 31 10.5t17 26t6.5 35.5t1.5 51v327q0 77 -31 120t-91 43q-39 0 -67.5 -20t-28.5 -48q0 -20 7.5 -61t7.5 -49h64q43 0 69 5v-37q-26 -22 -77 -22h-56v-258q0 -71 16 -95t78 -28v-32q-110 5 -128 5q-20 0 -130 -5z" />
    <glyph glyph-name=".notdef" horiz-adv-x="500" 
d="M0 0v700h500v-700h-500zM250 395l170 255h-340zM280 350l170 -255v510zM80 50h340l-170 255zM50 605v-510l170 255z" />
    <glyph glyph-name=".null" horiz-adv-x="0" 
 />
    <glyph glyph-name="nonmarkingreturn" horiz-adv-x="333" 
 />
    <glyph glyph-name="space" unicode=" " horiz-adv-x="296" 
 />
    <glyph glyph-name="exclam" unicode="!" horiz-adv-x="296" 
d="M148 -18q-27 0 -46 19t-19 46t19 46t46 19t46 -19t19 -46t-19 -46t-46 -19zM115 150l-8 171q-7 148 -20.5 205t-45.5 66v35q97 -5 117 -5q17 0 97 5v-35q-33 -9 -46.5 -67t-19.5 -204l-8 -171h-66z" />
    <glyph glyph-name="quotedbl" unicode="&#x22;" horiz-adv-x="500" 
d="M118 350l-29 187q-6 38 -6 47q0 25 20 40.5t49 15.5q28 0 44.5 -16t16.5 -40q0 -11 -6 -47l-29 -187h-60zM322 350l-29 187q-6 38 -6 47q0 25 20 40.5t49 15.5q28 0 44.5 -16t16.5 -40q0 -11 -6 -47l-29 -187h-60z" />
    <glyph glyph-name="numbersign" unicode="#" 
d="M106 -18l37 217h-102l10 60h102l19 107h-103l11 60h102l38 214h66l-38 -214h102l38 214h66l-38 -214h101l-11 -60h-100l-19 -107h101l-10 -60h-101l-37 -217h-66l37 217h-102l-37 -217h-66zM238 366l-19 -107h102l19 107h-102z" />
    <glyph glyph-name="dollar" unicode="$" 
d="M244 640v90h54v-90q25 -1 59 -9.5t42 -8.5q17 0 23 13l33 5q14 -114 24 -163l-39 -7q-14 40 -51 74t-102 34q-49 0 -81.5 -27.5t-32.5 -72.5q0 -35 24 -58t59.5 -34t77 -26t77 -32.5t59.5 -54.5t24 -91q0 -84 -52 -137t-144 -63v-108h-54v108q-29 0 -70.5 9t-47.5 9
q-9 0 -22 -13l-33 -5q-5 87 -20 187l39 7q8 -25 17 -44t27 -41t48.5 -34.5t70.5 -12.5q62 0 97.5 28.5t35.5 80.5q0 36 -24 61t-59.5 36.5t-77 26.5t-77 32t-59.5 53.5t-24 89.5q0 79 52 131t127 57z" />
    <glyph glyph-name="percent" unicode="%" horiz-adv-x="963" 
d="M245 0l332 527l-2 2q-26 -18 -65 -18q-44 0 -83 32l-2 -2q18 -38 18 -81q0 -78 -43 -129t-113 -51t-113 51t-43 129t43 129t113 51q42 0 112 -34q70 -35 115 -35q20 0 38.5 4t35 11t26.5 12.5t22.5 14t14.5 9.5h59l-390 -622h-75zM618 180q0 -55 15 -91.5t43 -36.5
t43 36.5t15 91.5t-15 91.5t-43 36.5t-43 -36.5t-15 -91.5zM229 460q0 -55 15 -91.5t43 -36.5t43 36.5t15 91.5t-15 91.5t-43 36.5t-43 -36.5t-15 -91.5zM676 0q-70 0 -113 51t-43 129t43 129t113 51t113 -51t43 -129t-43 -129t-113 -51z" />
    <glyph glyph-name="ampersand" unicode="&#x26;" horiz-adv-x="778" 
d="M110 594l29 33l40 -3q28 -2 45 -2h159q29 0 45 2t22 5t19 11h25q22 -63 56 -136l-32 -18q-49 56 -144 56h-99q45 -65 121 -165t126 -155q25 54 25 94q0 35 -16.5 48.5t-48.5 15.5v32q60 -3 61 -3q10 0 21 0.5t24.5 1.5t21.5 1q3 -33 3 -36q0 -92 -48 -203q8 -8 22 -24
q64 -71 92 -89q37 -24 103 -33v-32q-13 0 -45.5 2.5t-50.5 2.5q-19 0 -53.5 -2.5t-48.5 -2.5q-23 21 -85 88q-46 -53 -95 -76q-53 -25 -115 -25q-110 0 -176.5 63.5t-66.5 161.5q0 161 173 226q-78 110 -109 161zM461 128q-69 71 -209 258q-21 -14 -32 -23t-28 -27.5
t-24.5 -45t-7.5 -60.5q0 -77 47.5 -125.5t115.5 -48.5q14 0 27.5 2.5t23 5t20.5 9t17 9.5t16 12t12.5 11.5l12.5 12.5z" />
    <glyph glyph-name="quotesingle" unicode="'" horiz-adv-x="296" 
d="M118 350l-29 187q-6 38 -6 47q0 25 20 40.5t49 15.5q28 0 44.5 -16t16.5 -40q0 -11 -6 -47l-29 -187h-60z" />
    <glyph glyph-name="parenleft" unicode="(" horiz-adv-x="315" 
d="M288 -156v-60q-32 19 -56.5 36.5t-61.5 55.5t-61 80.5t-42 110t-18 145.5t18 145.5t42 110t61 80.5t61.5 55.5t56.5 36.5v-60q-24 -24 -40 -45t-38.5 -63.5t-34.5 -108.5t-12 -151t12 -151t34.5 -108.5t38.5 -63.5t40 -45z" />
    <glyph glyph-name="parenright" unicode=")" horiz-adv-x="315" 
d="M27 -216v60q24 24 40 45t38.5 63.5t34.5 108.5t12 151t-12 151t-34.5 108.5t-38.5 63.5t-40 45v60q32 -19 56.5 -36.5t61.5 -55.5t61 -80.5t42 -110t18 -145.5t-18 -145.5t-42 -110t-61 -80.5t-61.5 -55.5t-56.5 -36.5z" />
    <glyph glyph-name="asterisk" unicode="*" 
d="M132 442l-28 8q17 43 36 121l31 -8q2 -26 21.5 -40.5t63.5 -30.5q0 45 -8 66t-33 35v32q7 0 20 -1t23.5 -1.5t19.5 -0.5q2 0 62 3v-32q-40 -10 -43 -101q45 14 64 28.5t21 41.5l31 11q18 -75 38 -120l-29 -11q-15 14 -25 17.5t-31 3.5q-8 0 -56 -10q2 -2 10 -11.5
t10.5 -12.5t10 -10.5t12 -10.5t12 -7t15 -5.5t15.5 -1.5h12l16 -24q-51 -33 -100 -76l-18 25q10 15 10 31q0 18 -38 79q-35 -54 -35 -78q0 -7 10 -29l-19 -28q-45 41 -100 76l17 24h16q10 0 20.5 4t20 12.5t15 14.5t14 16t9.5 12q-66 11 -68 11q-19 0 -45 -22z" />
    <glyph glyph-name="plus" unicode="+" horiz-adv-x="963" 
d="M445 -18v224h-206v70h206v197h72v-197h206v-70h-206v-224h-72z" />
    <glyph glyph-name="comma" unicode="," horiz-adv-x="296" 
d="M92 -146l-20 28q42 25 63.5 50t24.5 62l-13 -3q-5 -1 -14 -1q-24 0 -40.5 17.5t-16.5 41.5q0 27 19 45t48 18q34 0 57.5 -26t23.5 -61q0 -33 -15 -63.5t-38.5 -52t-42.5 -34.5t-36 -21z" />
    <glyph glyph-name="hyphen" unicode="-" horiz-adv-x="352" 
d="M40 161l60 119h120q30 0 39.5 4t20.5 21h32l-60 -119h-120q-30 0 -39.5 -4t-20.5 -21h-32z" />
    <glyph glyph-name="period" unicode="." horiz-adv-x="296" 
d="M148 -18q-27 0 -46 19t-19 46t19 46t46 19t46 -19t19 -46t-19 -46t-46 -19z" />
    <glyph glyph-name="slash" unicode="/" horiz-adv-x="296" 
d="M29 -18l184 712h73l-184 -712h-73z" />
    <glyph glyph-name="zero" unicode="0" 
d="M278 -18q-105 0 -167.5 90.5t-62.5 238.5t62.5 238.5t167.5 90.5t167.5 -90.5t62.5 -238.5t-62.5 -238.5t-167.5 -90.5zM166 311q0 -269 112 -269t112 269t-112 269t-112 -269z" />
    <glyph glyph-name="one" unicode="1" 
d="M167 -5v32q38 4 49 29t11 94v273q0 54 -17.5 68t-77.5 15v32q89 4 124.5 23t56.5 79h32v-490q0 -69 11 -94t49 -29v-32q-97 5 -118 5q-20 0 -120 -5z" />
    <glyph glyph-name="two" unicode="2" 
d="M97 -9l-44 -9q0 4 -2 16t-2 19q0 42 22.5 82.5t56 70t73 63.5t73 63.5t56 70t22.5 83.5q0 54 -33 87t-85 33q-29 0 -53 -10t-43.5 -30.5t-27.5 -32.5t-23 -36l-32 12q5 14 16 40t17.5 42t15 40t14.5 45l30 -6q5 -12 19 -12q13 0 54 9q32 9 54 9q83 0 139 -53.5t56 -136.5
q0 -60 -37.5 -111.5t-85 -83.5t-109.5 -77.5t-94 -85.5l2 -2q32 7 60 7q24 0 71 -4.5t70 -4.5q56 0 84.5 19t50.5 62l34 -14q-45 -95 -66 -162q-48 -11 -78 -11q-70 0 -142.5 20.5t-92.5 20.5q-40 0 -40 -32z" />
    <glyph glyph-name="three" unicode="3" 
d="M471 627v-32q-23 -19 -73.5 -94t-82.5 -109q30 -2 58 -11t55 -27.5t43 -53.5t16 -82q0 -101 -79 -168.5t-203 -67.5q-99 0 -173 39l20 38q75 -27 121 -27q86 0 141 53.5t55 136.5q0 51 -28.5 83.5t-72.5 32.5q-35 0 -57 -19l-23 32q42 39 61 58t48.5 55t50.5 72h-76
q-84 0 -118.5 -17t-63.5 -72l-34 15q50 119 65 177l32 -4q9 -13 33 -13h177q8 0 108 5z" />
    <glyph glyph-name="four" unicode="4" 
d="M232 -5v32q43 2 60 20.5t17 69.5v58q-59 8 -112 8q-57 0 -121 -8l-33 105q50 61 144 179t130 168q58 -5 70 -5q10 0 68 5v-32q-29 -4 -37.5 -23.5t-8.5 -79.5v-243q16 1 30.5 11.5t21 18.5t17.5 24l28 -8q-22 -50 -40 -112q-4 0 -57 -8v-58q0 -49 13 -67t47 -23v-32
q-95 5 -114 5q-20 0 -123 -5zM309 255v263h-2q-18 -26 -60.5 -80t-89 -112t-56.5 -71q54 8 104 8q54 0 104 -8z" />
    <glyph glyph-name="five" unicode="5" 
d="M40 155l34 12q1 -2 3 -7q9 -23 17 -36.5t25.5 -35t45 -33t63.5 -11.5q66 0 109.5 41t43.5 113q0 64 -38 103.5t-109 39.5q-69 0 -132 -58l-38 22q54 167 78 322l78 -3q52 -2 78 -2q51 0 84 5.5t46 12t29 18.5h35q-63 -136 -199 -136q-16 0 -33.5 1.5t-38.5 4t-33 3.5
l-38 -155q61 27 134 27q97 0 156 -52.5t59 -146.5q0 -96 -66 -159t-175 -63q-51 0 -85 9q-40 8 -41 8q-4 0 -18 -9l-33 -8q-8 44 -41 173z" />
    <glyph glyph-name="six" unicode="6" 
d="M376 660l20 -39q-107 -59 -155.5 -120t-75.5 -158l2 -2q55 60 141 60q88 0 146 -53t58 -147q0 -93 -65.5 -155t-158.5 -62q-114 0 -177.5 65.5t-63.5 182.5q0 59 13.5 111.5t34 90.5t51.5 73t58.5 57t63.5 43t58 31.5t50 21.5zM165 187q0 -59 30.5 -101t85.5 -42
q51 0 82 43.5t31 105.5q0 61 -30.5 99.5t-80.5 38.5q-58 0 -88 -42.5t-30 -101.5z" />
    <glyph glyph-name="seven" unicode="7" 
d="M198 -18h-34q25 120 89.5 268t148.5 282h-107q-92 0 -129 -12.5t-66 -63.5l-33 13q33 87 57 171l32 -6q4 -12 45 -12h195q12 0 117 5l10 -34q-86 -102 -139 -248.5t-75 -291.5q-31 -2 -53 -14t-30.5 -21.5t-27.5 -35.5z" />
    <glyph glyph-name="eight" unicode="8" 
d="M363 349q25 -11 42 -20.5t44 -30.5t41.5 -52.5t14.5 -71.5q0 -83 -66 -137.5t-167 -54.5q-94 0 -158 49t-64 128q0 37 11.5 66t33.5 48.5t37.5 29.5t38.5 21q-95 57 -95 147q0 75 57 122t146 47q86 0 143 -41.5t57 -110.5q0 -35 -12 -61t-34.5 -42t-35.5 -22.5t-34 -13.5
zM150 164q0 -51 33.5 -85.5t91.5 -34.5q48 0 85 32t37 79q0 19 -5 35t-17 28.5t-20.5 21t-29 17.5t-28.5 13t-32 12l-27 9q-2 -2 -11.5 -7.5t-13 -8t-11.5 -8.5t-12 -9.5t-10.5 -10t-10 -12t-8 -14t-6.5 -17t-3.5 -19t-1.5 -21.5zM184 492q0 -71 105 -111q90 43 90 107
q0 37 -30 63.5t-70 26.5q-36 0 -65.5 -25t-29.5 -61z" />
    <glyph glyph-name="nine" unicode="9" 
d="M142 -39l-20 39q125 59 183 122t88 159l-2 2q-55 -60 -141 -60q-88 0 -146 53t-58 147q0 93 65.5 155t158.5 62q114 0 177.5 -65.5t63.5 -182.5q0 -82 -29 -151.5t-67.5 -112.5t-96 -80.5t-94 -54t-82.5 -32.5zM164 431q0 -61 30.5 -99.5t80.5 -38.5q58 0 88 42.5
t30 101.5t-30.5 101t-85.5 42q-51 0 -82 -43.5t-31 -105.5z" />
    <glyph glyph-name="colon" unicode=":" horiz-adv-x="296" 
d="M148 -18q-27 0 -46 19t-19 46t19 46t46 19t46 -19t19 -46t-19 -46t-46 -19zM148 350q-27 0 -46 19t-19 46t19 46t46 19t46 -19t19 -46t-19 -46t-46 -19z" />
    <glyph glyph-name="semicolon" unicode=";" horiz-adv-x="296" 
d="M148 350q-27 0 -46 19t-19 46t19 46t46 19t46 -19t19 -46t-19 -46t-46 -19zM92 -146l-20 28q42 25 63.5 50t24.5 62l-13 -3q-5 -1 -14 -1q-24 0 -40.5 17.5t-16.5 41.5q0 27 19 45t48 18q34 0 57.5 -26t23.5 -61q0 -33 -15 -63.5t-38.5 -52t-42.5 -34.5t-36 -21z" />
    <glyph glyph-name="less" unicode="&#x3c;" horiz-adv-x="963" 
d="M724 -2l-486 216v54l486 216v-77l-387 -166l387 -166v-77z" />
    <glyph glyph-name="equal" unicode="=" horiz-adv-x="963" 
d="M239 122v70h484v-70h-484zM239 290v70h484v-70h-484z" />
    <glyph glyph-name="greater" unicode="&#x3e;" horiz-adv-x="963" 
d="M239 -2v77l387 166l-387 166v77l486 -216v-54z" />
    <glyph glyph-name="question" unicode="?" horiz-adv-x="407" 
d="M250 172l-18 -28q-50 27 -112 48q-3 21 -3 25q0 38 21.5 74.5t47 61t47 61t21.5 74.5q0 42 -24 66t-59 24q-32 0 -57 -16t-36 -31t-24 -40l-27 12q25 64 44 137l27 -6q3 -9 15 -9q5 0 41 8q42 7 63 7q70 0 112.5 -34.5t42.5 -96.5q0 -41 -17 -73.5t-42 -54t-49.5 -41
t-41.5 -43t-17 -51.5q0 -41 45 -74zM186 -18q-27 0 -46 19t-19 46t19 46t46 19t46 -19t19 -46t-19 -46t-46 -19z" />
    <glyph glyph-name="at" unicode="@" horiz-adv-x="1000" 
d="M804 14l27 -23q-33 -37 -122.5 -80.5t-200.5 -43.5q-179 0 -296 92.5t-117 238.5q0 178 134.5 312t314.5 134q153 0 257 -91t104 -233q0 -132 -86.5 -226t-194.5 -94q-42 0 -57 22t-15 49q-37 -39 -69 -53q-28 -12 -61 -12q-57 0 -95 37.5t-38 105.5q0 72 37 148
t98 127.5t124 51.5q28 0 50 -8t36 -23t18.5 -22t11.5 -21l22 54h87l-121 -296q-24 -57 -24 -81q0 -27 30 -27q29 0 63 18.5t65 51t52 85.5t21 113q0 125 -91 199.5t-221 74.5q-94 0 -183 -57t-144 -149t-55 -189q0 -125 95 -206t252 -81q170 0 288 99q3 2 4 3zM369 114
q0 -68 69 -68q10 0 19.5 2t18 6.5t15 8t14 11l11.5 11.5t10.5 13.5t8.5 12t7 11.5l6 10q37 61 60.5 136.5t23.5 104.5q0 25 -17 44t-45 19q-45 0 -94 -61t-78 -136.5t-29 -124.5z" />
    <glyph glyph-name="A" unicode="A" horiz-adv-x="667" 
d="M204 27v-32q-68 5 -80 5q-16 0 -93 -5q1 13 4.5 26.5t6.5 21.5t13 33t15 39l144 387q13 36 13 58q0 28 -48 35v32q87 -5 105 -5q17 0 102 5l178 -501q18 -51 33.5 -69.5t54.5 -29.5v-32q-100 5 -124 5q-18 0 -131 -5v32q62 3 62 34q0 14 -12 55l-45 129h-209l-45 -130
q-10 -34 -10 -46q0 -25 14.5 -32t51.5 -10zM297 547l-83 -240h166l-81 240h-2z" />
    <glyph glyph-name="B" unicode="B" horiz-adv-x="611" 
d="M43 -5v32q39 5 49.5 31t10.5 92v322q0 66 -10.5 92t-49.5 31v32l60 -3q38 -2 57 -2q12 0 82 5q48 5 82 5q89 0 140 -38.5t51 -110.5q0 -35 -11.5 -60.5t-33 -40t-35.5 -21t-35 -12.5v-2q182 -22 182 -170q0 -86 -71 -136.5t-192 -50.5q-11 0 -78 5q-43 5 -81 5
q-17 0 -117 -5zM217 563v-192h43q66 0 101.5 20.5t35.5 77.5q0 53 -34 77t-86 24q-12 0 -33.5 -3t-26.5 -4zM217 309v-169q0 -31 1.5 -43.5t11.5 -25t30.5 -16t59.5 -3.5q61 0 102.5 35t41.5 89q0 78 -51.5 105.5t-152.5 27.5h-43z" />
    <glyph glyph-name="C" unicode="C" horiz-adv-x="630" 
d="M557 149l35 -30q-10 -17 -28.5 -37t-48.5 -44t-74.5 -40t-93.5 -16q-131 0 -215.5 90t-84.5 231q0 147 87 242t229 95q37 0 80 -12t50 -12q18 0 29 16h28q9 -79 28 -164l-37 -10q-46 120 -167 120q-94 0 -149.5 -73.5t-55.5 -194.5q0 -111 56 -182.5t149 -71.5
q95 0 179 89z" />
    <glyph glyph-name="D" unicode="D" horiz-adv-x="685" 
d="M42 -5v32q39 5 49.5 31t10.5 92v322q0 66 -10.5 92t-49.5 31v32l60 -3q38 -2 57 -2q15 0 82 5q47 5 78 5q160 0 246 -81.5t86 -236.5t-86 -239.5t-251 -84.5q-22 0 -97 5q-50 5 -78 5q-12 0 -97 -5zM216 563v-438q0 -46 16 -59.5t77 -13.5q108 0 164 68t56 192
q0 123 -58 190.5t-164 67.5q-39 0 -91 -7z" />
    <glyph glyph-name="E" unicode="E" horiz-adv-x="574" 
d="M44 -5v32q39 5 49.5 31t10.5 92v322q0 66 -10.5 92t-49.5 31v32l60 -3q38 -2 57 -2h221q47 0 64 3t31 12h26q0 -35 14 -154l-30 -5q-20 50 -58 66t-120 16h-91v-196h117q46 0 65.5 13t31.5 47h32q-5 -72 -5 -93q0 -17 5 -89h-32q-14 37 -30 48.5t-67 11.5h-117v-178
q0 -39 12 -50.5t56 -11.5h71q55 0 89 12.5t51 33.5t29 59l32 -4q-17 -106 -17 -178h-25q-6 9 -21 12q-17 3 -48 3h-286q-17 0 -117 -5z" />
    <glyph glyph-name="F" unicode="F" horiz-adv-x="537" 
d="M44 -5v32q39 5 49.5 31t10.5 92v322q0 66 -10.5 92t-49.5 31v32l60 -3q38 -2 57 -2h221q47 0 64 3t31 12h26q0 -35 14 -154l-30 -5q-20 50 -58 66t-120 16h-91v-196h117q46 0 65.5 13t31.5 47h32q-5 -72 -5 -93q0 -17 5 -89h-32q-14 37 -30 48.5t-67 11.5h-117v-152
q0 -71 17 -94.5t81 -28.5v-32q-115 5 -135 5q-22 0 -137 -5z" />
    <glyph glyph-name="G" unicode="G" horiz-adv-x="667" 
d="M634 14h-45q-43 0 -124 -16t-117 -16q-138 0 -219.5 86t-81.5 223q0 157 86.5 253t240.5 96q39 0 71 -9q41 -9 49 -9q13 0 19 13h25q21 -85 44 -152l-36 -15q-10 19 -18.5 32t-28 34t-51 32.5t-72.5 11.5q-98 0 -152.5 -77.5t-54.5 -210.5q0 -114 48.5 -180t144.5 -66
q60 0 88.5 23t28.5 73v66q0 44 -18 58t-66 18v32q82 -5 105 -5q38 0 85 5q8 -20 8 -42v-175q0 -45 41 -51v-32z" />
    <glyph glyph-name="H" unicode="H" horiz-adv-x="704" 
d="M40 -5v32q39 5 49.5 31t10.5 92v322q0 66 -10.5 92t-49.5 31v32q100 -5 117 -5t117 5v-32q-39 -5 -49.5 -31t-10.5 -92v-108h276v108q0 66 -10.5 92t-49.5 31v32q100 -5 117 -5t117 5v-32q-39 -5 -49.5 -31t-10.5 -92v-322q0 -66 10.5 -92t49.5 -31v-32q-100 5 -117 5
t-117 -5v32q39 5 49.5 31t10.5 92v152h-276v-152q0 -66 10.5 -92t49.5 -31v-32q-100 5 -117 5t-117 -5z" />
    <glyph glyph-name="I" unicode="I" horiz-adv-x="315" 
d="M214 472v-322q0 -66 10.5 -92t49.5 -31v-32q-100 5 -117 5t-117 -5v32q39 5 49.5 31t10.5 92v322q0 66 -10.5 92t-49.5 31v32q100 -5 117 -5t117 5v-32q-39 -5 -49.5 -31t-10.5 -92z" />
    <glyph glyph-name="J" unicode="J" horiz-adv-x="315" 
d="M216 472v-472q0 -119 -50.5 -171.5t-190.5 -82.5q-14 68 -43 136l35 15q0 -1 3.5 -7.5t4.5 -8.5t4.5 -8.5t6.5 -9.5t7 -8t8.5 -7.5t10.5 -5.5t12.5 -4.5t13.5 -1.5q18 0 31 12t19.5 27t9.5 41.5t3.5 42t0.5 41.5v472q0 66 -10.5 92t-49.5 31v32q100 -5 117 -5t117 5v-32
q-39 -5 -49.5 -31t-10.5 -92z" />
    <glyph glyph-name="K" unicode="K" horiz-adv-x="667" 
d="M42 -5v32q39 5 49.5 31t10.5 92v322q0 66 -10.5 92t-49.5 31v32q100 -5 117 -5t117 5v-32q-39 -5 -49.5 -31t-10.5 -92v-125l163 119q91 65 91 97q0 18 -12 24t-38 8v32q72 -5 89 -5q13 0 80 5q0 -87 -124 -176l-78 -57q45 -16 82.5 -64t57 -97.5t41 -102t36.5 -69.5
q25 -30 56 -34v-32q-70 5 -83 5q-14 0 -79 -5q-1 3 -39.5 106t-72.5 155q-32 49 -83 77l-87 -63v-120q0 -66 10.5 -92t49.5 -31v-32q-100 5 -117 5t-117 -5z" />
    <glyph glyph-name="L" unicode="L" horiz-adv-x="537" 
d="M43 -5v32q39 5 49.5 31t10.5 92v322q0 66 -10.5 92t-49.5 31v32q100 -5 117 -5t117 5v-32q-39 -5 -49.5 -31t-10.5 -92v-410h133q39 0 67 7.5t45 23.5t25.5 31t18.5 39l31 -7q-18 -83 -34 -170l-32 3q-5 11 -48 11h-263q-17 0 -117 -5z" />
    <glyph glyph-name="M" unicode="M" horiz-adv-x="815" 
d="M225 27v-32q-68 5 -82 5q-12 0 -77 -5q8 57 24.5 245t16.5 268q0 48 -11 63t-46 24v32q95 -5 114 -5q16 0 98 5l143 -441h2l139 441q88 -5 105 -5t104 5v-32q-57 -5 -57 -55q0 -26 3 -54l23 -363q3 -58 15 -74t43 -22v-32q-88 5 -107 5q-23 0 -138 -5v32q26 2 40.5 5.5
t26 17t11.5 38.5q0 7 -0.5 21t-0.5 21l-24 426h-2l-178 -561h-54l-181 561h-2l-24 -403q-3 -30 -3 -57q0 -42 16 -53.5t63 -15.5z" />
    <glyph glyph-name="N" unicode="N" horiz-adv-x="685" 
d="M243 27v-32q-67 5 -80 5q-16 0 -76 -5q0 10 2.5 73t4.5 156.5t2 177.5q0 92 -4 127t-15 47.5t-41 18.5v32q87 -5 106 -5q15 0 95 5l292 -445h2v290q0 74 -14.5 95t-65.5 28v32q73 -5 85 -5t70 5q0 -23 -4.5 -125t-4.5 -182q0 -83 4.5 -193.5t4.5 -131.5q-30 5 -42 5
q-4 0 -42 -5l-358 543h-2v-388q0 -76 15 -96t66 -27z" />
    <glyph glyph-name="O" unicode="O" horiz-adv-x="741" 
d="M370 -18q-142 0 -233.5 96.5t-91.5 232.5t91.5 232.5t233.5 96.5t233.5 -96.5t91.5 -232.5t-91.5 -232.5t-233.5 -96.5zM167 311q0 -115 55.5 -191t147.5 -76t147.5 76t55.5 191t-55.5 191t-147.5 76t-147.5 -76t-55.5 -191z" />
    <glyph glyph-name="P" unicode="P" 
d="M41 -5v32q39 5 49.5 31t10.5 92v322q0 66 -10.5 92t-49.5 31v32l50 -3q32 -2 47 -2q11 0 76 5q45 5 74 5q237 0 237 -180q0 -51 -18 -86.5t-42 -53.5t-65 -27.5t-67.5 -11t-70.5 -1.5h-47v-122q0 -71 12 -93.5t66 -29.5v-32q-115 5 -135 5q-17 0 -117 -5zM215 564v-230
h34q77 0 117.5 24.5t40.5 91.5t-35 93.5t-100 26.5q-30 0 -57 -6z" />
    <glyph glyph-name="Q" unicode="Q" horiz-adv-x="741" 
d="M680 -50l37 -33q-61 -67 -103 -123q-28 -4 -40 -4q-62 0 -127 23t-113 51.5t-115 59.5t-127 43l14 52q50 -6 128 -39t156.5 -62.5t138.5 -29.5q37 0 67.5 10.5t45.5 21t38 30.5zM370 -18q-142 0 -233.5 96.5t-91.5 232.5t91.5 232.5t233.5 96.5t233.5 -96.5t91.5 -232.5
t-91.5 -232.5t-233.5 -96.5zM167 311q0 -115 55.5 -191t147.5 -76t147.5 76t55.5 191t-55.5 191t-147.5 76t-147.5 -76t-55.5 -191z" />
    <glyph glyph-name="R" unicode="R" horiz-adv-x="667" 
d="M40 -5v32q39 5 49.5 31t10.5 92v322q0 66 -10.5 92t-49.5 31v32l50 -3q32 -2 47 -2q7 0 79 5q48 5 91 5q224 0 224 -161q0 -62 -33.5 -91t-84.5 -42v-2q46 -18 72 -54.5t52 -102t45 -98.5q16 -28 81 -54v-32q-75 5 -88 5t-73 -5q-22 17 -43.5 71t-38 106.5t-54 94.5
t-89.5 42h-63v-159q0 -66 13.5 -92t62.5 -31v-32q-115 5 -133 5q-17 0 -117 -5zM214 562v-191h46q25 0 42.5 1t40.5 6.5t36.5 15t23.5 28t10 44.5q0 27 -8.5 46.5t-21 30.5t-33.5 17.5t-40 8t-45 1.5q-28 0 -51 -8z" />
    <glyph glyph-name="S" unicode="S" horiz-adv-x="500" 
d="M76 -14l-33 -4q-5 87 -20 187l39 7q8 -25 17 -44t27 -41t48.5 -34.5t70.5 -12.5q62 0 97.5 28.5t35.5 80.5q0 36 -24 61t-59.5 36.5t-77 26.5t-77 32t-59.5 53.5t-24 89.5q0 82 58 135t152 53q51 0 83 -9q7 -2 16 -4t14.5 -3.5t10.5 -1.5q17 0 23 14l33 4
q14 -114 24 -163l-39 -7q-14 40 -51 74t-102 34q-49 0 -81.5 -27.5t-32.5 -72.5q0 -35 24 -58t59.5 -34t77 -26t77 -32.5t59.5 -54.5t24 -91q0 -92 -62.5 -146t-170.5 -54q-26 0 -80 9q-43 9 -55 9q-5 0 -8.5 -1.5t-5.5 -3.5t-4.5 -5t-3.5 -4z" />
    <glyph glyph-name="T" unicode="T" horiz-adv-x="574" 
d="M171 -5v32q39 5 49.5 31t10.5 92v410h-61q-91 0 -118 -86l-31 6q11 69 17 156l32 -4q10 -10 37 -10h362q27 0 37 10l32 4q6 -87 17 -156l-31 -6q-27 86 -118 86h-61v-410q0 -66 10.5 -92t49.5 -31v-32q-100 5 -117 5t-117 -5z" />
    <glyph glyph-name="U" unicode="U" horiz-adv-x="704" 
d="M605 472v-232q0 -258 -250 -258q-77 0 -128.5 18t-78 54t-37 79.5t-10.5 106.5v232q0 66 -10.5 92t-49.5 31v32q100 -5 117 -5t117 5v-32q-39 -5 -49.5 -31t-10.5 -92v-232q0 -41 6 -71t22.5 -57.5t49 -41.5t80.5 -14q85 0 125.5 45.5t40.5 138.5v232q0 66 -10.5 92
t-49.5 31v32q77 -5 93 -5q8 0 93 5v-32q-39 -5 -49.5 -31t-10.5 -92z" />
    <glyph glyph-name="V" unicode="V" horiz-adv-x="630" 
d="M277 -5l-165 482q-22 63 -44 89t-56 29v32q110 -5 131 -5t128 5v-32q-30 0 -43.5 -9.5t-13.5 -35.5q0 -23 20 -83l115 -335h2l116 316q26 74 26 93q0 26 -16 38t-46 16v32q73 -5 85 -5q14 0 82 5q0 -38 -24.5 -105t-65.5 -161.5t-59 -145.5q-36 -100 -72 -220
q-43 5 -50 5q-13 0 -50 -5z" />
    <glyph glyph-name="W" unicode="W" horiz-adv-x="944" 
d="M248 -5l-133 466q-22 76 -40.5 102t-61.5 32v32q117 -5 141 -5q19 0 124 5v-32q-67 -5 -67 -45q0 -26 10 -59l100 -353h2l91 278q30 90 30 130q0 45 -62 49v32q72 -5 88 -5q12 0 74 5l120 -489h2l101 273q33 92 33 131q0 50 -62 53v32q80 -5 95 -5q11 0 74 5
q0 -27 -14 -73.5t-30.5 -88t-45.5 -110.5t-44 -108q-63 -163 -82 -252q-37 5 -50 5q-2 0 -50 -5l-108 428h-2q-113 -346 -133 -428q-40 5 -50 5q-8 0 -50 -5z" />
    <glyph glyph-name="X" unicode="X" horiz-adv-x="704" 
d="M12 -5v32q39 10 67.5 34t86.5 90l125 143l-178 240q-22 29 -38.5 41.5t-41.5 19.5v32q113 -5 137 -5t141 5v-32q-59 -5 -59 -46q0 -17 29 -55l85 -115l103 118q25 27 25 54q0 38 -57 44v32q75 -5 91 -5q14 0 86 5q0 -65 -84 -159l-125 -142l132 -178q57 -77 76 -94
q24 -20 57 -27v-32q-108 5 -129 5q-27 0 -154 -5v32q61 3 61 38q0 17 -16 39l-101 136l-105 -119q-30 -36 -30 -64q0 -30 58 -30v-32q-98 5 -117 5q-23 0 -125 -5z" />
    <glyph glyph-name="Y" unicode="Y" horiz-adv-x="630" 
d="M210 -5v32q39 5 49.5 31t10.5 92v121l-136 212q-45 69 -65 87.5t-56 24.5v32q125 -5 149 -5q23 0 135 5v-32q-65 -2 -65 -36q0 -22 31 -70l99 -154l94 147q28 43 28 76q0 34 -60 37v32q80 -5 96 -5q14 0 74 5q0 -45 -13.5 -75.5t-48.5 -78.5l-148 -202v-121
q0 -66 10.5 -92t49.5 -31v-32q-100 5 -117 5t-117 -5z" />
    <glyph glyph-name="Z" unicode="Z" horiz-adv-x="537" 
d="M19 -5v32q17 14 48 63l291 470h-81q-101 0 -143 -20.5t-69 -70.5l-32 11q26 67 49 156l26 -3q4 -11 69 -11h235q37 0 89 5v-32l-331 -533h84q80 0 118.5 9t59.5 29t50 70l31 -16q-41 -102 -58 -157q-49 -7 -88 -7q-20 0 -117 5q-65 5 -107 5q-56 0 -124 -5z" />
    <glyph glyph-name="bracketleft" unicode="[" horiz-adv-x="352" 
d="M96 -236v858h236v-60h-136v-738h136v-60h-236z" />
    <glyph glyph-name="backslash" unicode="\" horiz-adv-x="296" 
d="M203 -18l-184 712h73l184 -712h-73z" />
    <glyph glyph-name="bracketright" unicode="]" horiz-adv-x="352" 
d="M20 -236v60h136v738h-136v60h236v-858h-236z" />
    <glyph glyph-name="asciicircum" unicode="^" 
d="M38 223l210 399h60l210 -399h-64l-176 334l-176 -334h-64z" />
    <glyph glyph-name="underscore" unicode="_" horiz-adv-x="500" 
d="M0 -125v50h500v-50h-500z" />
    <glyph glyph-name="grave" unicode="`" horiz-adv-x="360" 
d="M177 554l-145 78l17 26h111l53 -104h-36z" />
    <glyph glyph-name="a" unicode="a" horiz-adv-x="519" 
d="M506 59l13 -33q-12 -5 -34 -15.5t-33 -15.5t-25.5 -9t-25.5 -4q-53 0 -65 77q-1 3 -1 4q-61 -81 -154 -81q-63 0 -104 35.5t-41 94.5q0 38 13.5 65t41 43t47.5 23t55 16q5 1 8 2q70 18 94.5 33.5t24.5 53.5q0 72 -85 72q-31 0 -55 -8.5t-40 -27t-22.5 -29.5t-17.5 -33
l-38 17q36 80 49 141l32 -5q8 -10 22 -10q15 0 53 8q42 7 58 7q73 0 112.5 -34t39.5 -87v-209q0 -50 10 -74t37 -24q6 0 17.5 3.5t13.5 3.5zM320 176v63q-14 -5 -41.5 -12.5t-46.5 -14t-39.5 -17t-31.5 -28t-11 -40.5q0 -29 20.5 -47t52.5 -18q50 0 73.5 32t23.5 82z" />
    <glyph glyph-name="b" unicode="b" horiz-adv-x="574" 
d="M188 480v-76q3 3 19 16.5t22.5 18t22 15t27 14.5t29 8t35.5 4q85 0 138 -63t53 -166q0 -120 -70 -194.5t-183 -74.5q-33 0 -96 12.5t-86 12.5q-8 0 -31 -7l-12 15q10 23 14 36.5t7 50t3 103.5v275q0 64 -11.5 87t-44.5 28v32q33 2 61 11t43.5 18.5t39.5 27.5h30
q-10 -80 -10 -204zM188 142q0 -55 20.5 -80.5t75.5 -25.5q64 0 100 58t36 151q0 72 -29.5 113.5t-82.5 41.5q-29 0 -50 -8.5t-34 -28.5t-20.5 -39t-11 -54.5t-4 -59.5t-0.5 -68z" />
    <glyph glyph-name="c" unicode="c" horiz-adv-x="481" 
d="M429 139l40 -24q-37 -64 -75 -93q-54 -40 -125 -40q-96 0 -161 67.5t-65 176.5t65 181.5t166 72.5q35 0 64 -9q6 -2 13.5 -4t12.5 -3.5t8 -1.5q10 0 16 13h31q8 -68 27 -148l-41 -8q-30 101 -116 101q-59 0 -95.5 -49.5t-36.5 -131.5q0 -80 39.5 -131.5t106.5 -51.5
q25 0 47 8.5t38.5 25.5t23.5 25.5t17 23.5z" />
    <glyph glyph-name="d" unicode="d" horiz-adv-x="574" 
d="M462 -18h-30q-20 58 -20 126h-2q-10 -24 -19.5 -40t-29 -39t-50.5 -35t-72 -12q-88 0 -143.5 65.5t-55.5 168.5q0 111 65.5 187.5t162.5 76.5q17 0 31 -2.5t27.5 -8t20 -8.5t20.5 -12t16 -10v41q0 64 -11.5 87t-44.5 28v32q33 2 61 11t43.5 18.5t39.5 27.5h30
q-10 -80 -10 -204v-290q0 -58 14.5 -82.5t60.5 -30.5v-32q-59 -15 -104 -63zM391 227v89q0 47 -32 75.5t-81 28.5q-60 0 -92 -54t-32 -142q0 -74 31.5 -118t87.5 -44q118 0 118 165z" />
    <glyph glyph-name="e" unicode="e" horiz-adv-x="519" 
d="M435 135l34 -27q-79 -126 -205 -126q-95 0 -160.5 67.5t-65.5 174.5t64 181.5t158 74.5q53 0 93 -18.5t61.5 -48.5t31.5 -54.5t15 -49.5t19 -42l-16 -29q-69 5 -167 5q-96 0 -145 -5q0 -46 11.5 -84t44.5 -68t85 -30q11 0 21.5 1.5t19 4t18 7t16.5 8.5t15.5 10t13 10
t12 11t10 9.5t9 9.5t7.5 8zM152 297h195q0 50 -20.5 86.5t-69.5 36.5q-33 0 -55.5 -15t-32 -38t-13 -39t-4.5 -31z" />
    <glyph glyph-name="f" unicode="f" horiz-adv-x="333" 
d="M42 -5v32q19 2 31 10.5t17 26t6.5 35.5t1.5 51v258h-56v37q16 2 22 3.5t16 6t14 13t4 22.5q0 6 -3.5 30t-3.5 37q0 60 40.5 98.5t106.5 38.5q11 0 44 -3q24 -4 29 -4q9 0 18 9l24 3q8 -41 32 -128l-32 -5q-9 18 -12.5 24t-14.5 21.5t-26 22t-34 6.5q-31 0 -53 -20.5
t-22 -47.5q0 -20 7.5 -61t7.5 -49h64q43 0 69 5v-37q-26 -22 -77 -22h-56v-258q0 -71 16 -95t78 -28v-32q-110 5 -128 5q-20 0 -130 -5z" />
    <glyph glyph-name="g" unicode="g" horiz-adv-x="500" 
d="M372 521l-9 34q51 10 91 33q36 -30 36 -63q0 -42 -34 -66.5t-70 -29.5q74 -51 74 -132q0 -76 -58 -126.5t-149 -50.5q-36 0 -81 12q-17 -17 -17 -36q0 -25 26.5 -33t79.5 -8q36 0 63 -2t59 -10.5t53 -23t35 -41t14 -63.5q0 -80 -71.5 -124.5t-187.5 -44.5q-96 0 -162 36
t-66 91q0 12 4 34q50 19 81 39l22 -28q-19 -21 -19 -40q0 -36 39.5 -57t107.5 -21q66 0 109 23t43 65q0 67 -116 67q-125 0 -170 18t-56 89q30 20 46 39t34 54q-1 1 -11 9l-12.5 10t-11.5 10.5t-12 13t-10.5 14t-10 17.5t-6.5 18.5t-5.5 23t-1.5 25.5q0 78 59 131t145 53
q30 0 66 -4t47 -4q18 0 31.5 8t13.5 23q0 18 -32 18zM250 420q-46 0 -70 -33.5t-24 -91.5q0 -54 26 -84.5t70 -30.5t69 33t25 87t-26.5 87t-69.5 33z" />
    <glyph glyph-name="h" unicode="h" horiz-adv-x="593" 
d="M33 -5v32q19 2 31 10.5t17 26t6.5 35.5t1.5 51v330q0 64 -11.5 87t-44.5 28v32q33 2 61 11t43.5 18.5t39.5 27.5h30q-10 -81 -10 -204v-93q2 2 13.5 12.5t19 16.5t21.5 17.5t26 18t28 14t32.5 11t33.5 3.5q132 0 132 -170v-200q0 -44 11.5 -60t43.5 -23v-32q-68 5 -77 5
q-13 0 -71 -5q-15 16 -15 64v238q0 103 -70 103q-66 0 -128 -72v-178q0 -33 1.5 -51t6.5 -35.5t17 -26t31 -10.5v-32q-95 5 -110 5t-110 -5z" />
    <glyph glyph-name="i" unicode="i" horiz-adv-x="296" 
d="M44 -5v32q19 2 31 10.5t17 26t6.5 35.5t1.5 51v117q0 66 -11.5 89.5t-44.5 28.5v32q33 2 61 12t43.5 20.5t39.5 30.5h30q-10 -84 -10 -213v-117q0 -33 1.5 -51t6.5 -35.5t17 -26t31 -10.5v-32q-95 5 -110 5t-110 -5zM155 540q-27 0 -46 19t-19 46t19 46t46 19t46 -19
t19 -46t-19 -46t-46 -19z" />
    <glyph glyph-name="j" unicode="j" horiz-adv-x="278" 
d="M203 267v-330q0 -33 -8 -59.5t-18 -44t-32 -32t-36.5 -22t-46 -15t-46.5 -10l-51 -8.5q-6 58 -23 129l31 9q18 -61 56 -61t52 26t14 75v343q0 66 -11.5 89.5t-44.5 28.5v32q33 2 61 12t43.5 20.5t39.5 30.5h30q-10 -84 -10 -213zM150 540q-27 0 -46 19t-19 46t19 46
t46 19t46 -19t19 -46t-19 -46t-46 -19z" />
    <glyph glyph-name="k" unicode="k" 
d="M31 -5v32q19 2 31 10.5t17 26t6.5 35.5t1.5 51v327q0 66 -11.5 89.5t-44.5 28.5v32q33 2 61 11t43.5 18.5t39.5 27.5h30q-10 -81 -10 -207v-191l92 50q80 41 80 76q0 23 -38 23v32q45 -5 80 -5q31 0 71 5q-5 -49 -41 -86.5t-103 -76.5q47 -21 73.5 -56.5t47.5 -92
t34 -78.5q5 -8 9.5 -14.5t9 -11.5t8 -8.5t8 -6t7 -4t7 -2.5t6 -1.5t5.5 -1t5 -0.5v-32q-60 5 -71 5q-13 0 -83 -5q-8 16 -31.5 85.5t-43.5 110.5q-29 59 -69 59q-16 0 -63 -26v-74q0 -33 1.5 -51t6.5 -35.5t17 -26t31 -10.5v-32q-95 5 -110 5t-110 -5z" />
    <glyph glyph-name="l" unicode="l" horiz-adv-x="296" 
d="M206 477v-327q0 -33 1.5 -51t6.5 -35.5t17 -26t31 -10.5v-32q-95 5 -110 5t-110 -5v32q19 2 31 10.5t17 26t6.5 35.5t1.5 51v327q0 66 -11.5 89.5t-44.5 28.5v32q33 2 61 11t43.5 18.5t39.5 27.5h30q-10 -81 -10 -207z" />
    <glyph glyph-name="m" unicode="m" horiz-adv-x="907" 
d="M50 -5v32q19 2 31 10.5t17 26t6.5 35.5t1.5 51v117q0 66 -11.5 89.5t-44.5 28.5v32q65 4 126 63h30v-93q2 2 19.5 18.5t30 25.5t33 22.5t44 20t47.5 6.5q97 0 126 -85q1 1 21.5 16t34 23.5t36 21t45.5 18.5t45 6q122 0 122 -170v-200q0 -44 11.5 -60t43.5 -23v-32
q-67 5 -77 5q-13 0 -71 -5q-15 16 -15 64v238q0 103 -70 103q-27 0 -63 -23t-57 -49v-218q0 -44 11.5 -60t43.5 -23v-32q-67 5 -77 5q-14 0 -71 -5q-15 16 -15 64v238q0 103 -70 103q-58 0 -120 -72v-178q0 -33 1.5 -51t6.5 -35.5t17 -26t31 -10.5v-32q-95 5 -110 5t-110 -5
z" />
    <glyph glyph-name="n" unicode="n" horiz-adv-x="611" 
d="M48 -5v32q19 2 31 10.5t17 26t6.5 35.5t1.5 51v117q0 66 -11.5 89.5t-44.5 28.5v32q65 4 126 63h30v-93q1 1 14 12.5t20 17t22 17t27.5 18t29 14t34 11t35.5 3.5q132 0 132 -170v-200q0 -44 11.5 -60t43.5 -23v-32q-67 5 -77 5q-13 0 -71 -5q-15 16 -15 64v238
q0 103 -70 103q-66 0 -128 -72v-178q0 -33 1.5 -51t6.5 -35.5t17 -26t31 -10.5v-32q-95 5 -110 5t-110 -5z" />
    <glyph glyph-name="o" unicode="o" 
d="M279 -18q-102 0 -169.5 68t-67.5 181t67.5 181t169.5 68t169.5 -68t67.5 -181t-67.5 -181t-169.5 -68zM156 231q0 -87 31.5 -138t91.5 -51t91.5 51t31.5 138t-31.5 138t-91.5 51t-91.5 -51t-31.5 -138z" />
    <glyph glyph-name="p" unicode="p" horiz-adv-x="574" 
d="M39 -254v32q24 9 32 35t8 82v372q0 66 -11.5 89.5t-44.5 28.5v32q65 4 126 63h30v-94q1 1 17 17.5t27 26t31 23t43 20.5t48 7q84 0 138.5 -65t54.5 -175q0 -108 -59 -183t-155 -75q-36 0 -64.5 11t-40.5 20.5t-32 29.5v-148q0 -21 2 -33t9.5 -24t24.5 -18.5t44 -7.5v-32
q-107 -11 -228 -34zM187 209q0 -167 115 -167q58 0 90 55t32 145q0 75 -30.5 116.5t-83.5 41.5q-123 0 -123 -191z" />
    <glyph glyph-name="q" unicode="q" 
d="M312 -254v32q47 17 60.5 37.5t13.5 79.5v174h-2q-19 -26 -34.5 -41.5t-48 -30.5t-72.5 -15q-84 0 -137.5 64t-53.5 163q0 117 66.5 194t164.5 77q16 0 31.5 -2.5t27 -6.5t24 -10.5t20 -11.5t17.5 -14t14 -12.5t12 -12.5t9 -10q23 43 59 88l21 -17q-10 -30 -10 -71v-505
q0 -46 9.5 -63.5t30.5 -19.5v-32q-102 -8 -222 -34zM152 222q0 -75 30.5 -117.5t82.5 -42.5q121 0 121 193q0 83 -22 124t-81 41q-61 0 -96 -56t-35 -142z" />
    <glyph glyph-name="r" unicode="r" horiz-adv-x="389" 
d="M47 -5v32q19 2 31 10.5t17 26t6.5 35.5t1.5 51v117q0 66 -11.5 89.5t-44.5 28.5v32q65 4 126 63h30v-128h2q15 48 49.5 88t86.5 40q13 0 30 -5q5 -49 21 -137l-29 -11q0 1 -1 2q-23 47 -63 47q-88 0 -88 -178v-48q0 -73 13 -96t67 -27v-32q-110 5 -134 5q-15 0 -110 -5z
" />
    <glyph glyph-name="s" unicode="s" horiz-adv-x="426" 
d="M381 343l-37 -5l-5 9q-5 9 -7.5 13t-9 13t-12 14t-14.5 12.5t-18.5 11t-22 6.5t-26.5 3q-35 0 -56.5 -16.5t-21.5 -44.5q0 -31 25 -48.5t61 -26.5t72.5 -21.5t61.5 -43.5t25 -81q0 -70 -50 -113t-134 -43q-32 0 -66 9q-36 8 -49 8q-7 0 -17 -10l-31 -4q-5 87 -16 153
l36 6q6 -17 7.5 -21.5t9.5 -21t16 -23.5t22 -17.5t33.5 -14.5t43.5 -4q39 0 63 19.5t24 50.5q0 28 -25 44.5t-61 26.5t-72.5 23t-61.5 43t-25 78q0 67 48.5 110t126.5 43q38 0 61 -7q30 -7 31 -7q14 0 17 10l30 3q7 -63 24 -136z" />
    <glyph glyph-name="t" unicode="t" horiz-adv-x="352" 
d="M341 109l24 -21q-17 -21 -27 -32.5t-33 -32t-51 -31t-60 -10.5q-59 0 -88 38t-29 102v286h-56v32q61 18 85.5 47.5t38.5 87.5h40v-113h84q29 0 64 5l12 -23q-32 -22 -52 -29t-61 -7h-47v-252q0 -94 70 -94q39 0 86 47z" />
    <glyph glyph-name="u" unicode="u" horiz-adv-x="593" 
d="M474 -18h-30q-29 46 -29 100h-2q-36 -48 -67 -68q-50 -32 -115 -32q-78 0 -109.5 41t-31.5 120v124q0 66 -11.5 89.5t-44.5 28.5v32q33 2 61 12t43.5 20.5t39.5 30.5h30q-10 -84 -10 -213v-82q0 -61 18.5 -92t64.5 -31q55 0 84.5 39.5t29.5 97.5v71q0 64 -11.5 87
t-44.5 28v32q33 2 61 12t43.5 20.5t39.5 30.5h30q-10 -83 -10 -210v-80q0 -58 14.5 -82.5t60.5 -30.5v-32q-59 -15 -104 -63z" />
    <glyph glyph-name="v" unicode="v" horiz-adv-x="500" 
d="M215 -5l-131 339q-27 68 -40 83q-15 15 -38 18v32q98 -5 116 -5t110 5v-32q-46 -6 -46 -39q0 -17 9 -40l90 -266h2l84 231q18 47 18 78q0 16 -15 26t-41 10v32q70 -5 85 -5q13 0 68 5q0 -19 -4.5 -38t-10 -32t-19 -44.5t-23.5 -55.5l-122 -302q-40 5 -46 5q-8 0 -46 -5z
" />
    <glyph glyph-name="w" unicode="w" horiz-adv-x="778" 
d="M196 -5l-115 341q-2 5 -6 17.5t-5 16t-4.5 13t-5.5 12t-5.5 9.5t-6.5 9t-7.5 6.5t-9.5 6.5t-11 4.5t-14 4.5v32q92 -5 111 -5t114 5v-32q-26 -5 -35 -12.5t-9 -25.5q0 -16 11 -51l72 -250h2l87 246q9 26 9 54q0 21 -10 29t-34 10v32q63 -5 75 -5q11 0 69 5l109 -371h2
l72 238q9 29 9 55q0 43 -57 46v32q63 -5 74 -5q13 0 75 5q0 -27 -7 -53.5t-25 -72.5t-26 -71l-94 -275q-38 5 -47 5q-5 0 -47 -5l-100 309h-2l-114 -309q-40 5 -47 5q-9 0 -47 -5z" />
    <glyph glyph-name="x" unicode="x" 
d="M16 -5v32q34 9 90 69l119 123l-97 138q-15 21 -24.5 32.5t-28 25.5t-38.5 20v32q105 -5 127 -5q20 0 112 5v-32q-38 -2 -38 -35q0 -14 28 -54l36 -51l53 53q29 29 29 51q0 21 -8.5 28.5t-27.5 7.5v32q60 -5 71 -5q13 0 71 5q0 -37 -14 -64t-48 -61l-92 -92l70 -102
q51 -72 74 -94t51 -27v-32q-95 5 -114 5q-18 0 -118 -5v32q29 1 29 30q0 18 -21 47l-49 67l-53 -55q-33 -35 -33 -59q0 -17 7 -23t26 -7v-32q-78 5 -94 5q-17 0 -95 -5z" />
    <glyph glyph-name="y" unicode="y" horiz-adv-x="519" 
d="M360 435v32q65 -5 77 -5q11 0 69 5q0 -40 -24 -101.5t-61 -137.5t-50 -110q-6 -16 -19.5 -51.5t-20.5 -53.5t-20 -50.5t-22 -50.5t-24 -44t-27 -41t-29.5 -32.5t-34 -26.5t-37.5 -15.5t-43 -6.5q-20 0 -45 7q-7 40 -32 131l35 10q6 -16 10.5 -24t13 -20.5t21 -18
t29.5 -5.5q19 0 36.5 10.5t29 23t25.5 38t20.5 40t19.5 44.5q-25 0 -36 7t-20 32l-116 316q-13 34 -20 50t-22.5 32t-35.5 16v32q98 -5 117 -5q18 0 108 5v-32q-44 -4 -44 -32q0 -27 11 -55l96 -272l101 258q15 39 15 62q0 37 -51 39z" />
    <glyph glyph-name="z" unicode="z" horiz-adv-x="444" 
d="M20 -5v32q23 23 83 115l171 266q-116 -5 -145 -15q-41 -13 -63 -62q0 -1 -1 -3l-35 9q31 92 40 143l34 -6q8 -12 76 -12q132 0 232 5v-32l-242 -375q32 -6 68 -6q53 0 82.5 11t42.5 29t28 57l34 -7q-20 -63 -36 -144q-40 -5 -73 -5q-28 0 -86.5 2.5t-89.5 2.5
q-20 0 -120 -5z" />
    <glyph glyph-name="braceleft" unicode="{" 
d="M424 -264v-24q-80 3 -145.5 52t-65.5 118q0 36 12 96q16 80 16 94q0 44 -32 77.5t-78 48.5v24q47 15 78.5 47.5t31.5 80.5q0 14 -16 94q-12 60 -12 96q0 69 65.5 118t145.5 52v-24q-52 -12 -79.5 -51t-27.5 -86q0 -29 7 -85t7 -79q0 -32 -12.5 -59.5t-27 -44t-40.5 -33
t-38.5 -22.5t-36.5 -16q23 -10 36 -16.5t39 -23t41 -33t27 -43.5t12 -57q0 -23 -7 -79t-7 -85q0 -47 27.5 -86t79.5 -51z" />
    <glyph glyph-name="bar" unicode="|" horiz-adv-x="333" 
d="M142 -295v1017h49v-1017h-49z" />
    <glyph glyph-name="braceright" unicode="}" 
d="M132 -288v24q52 12 79.5 51t27.5 86q0 29 -7 85t-7 79q0 30 12 57t27 43.5t41 33t39 23t36 16.5q-24 10 -36.5 16t-38.5 22.5t-40.5 33t-27 44t-12.5 59.5q0 23 7 79t7 85q0 47 -27.5 86t-79.5 51v24q80 -3 145.5 -52t65.5 -118q0 -36 -12 -96q-16 -80 -16 -94
q0 -48 31.5 -80.5t78.5 -47.5v-24q-46 -15 -78 -48.5t-32 -77.5q0 -14 16 -94q12 -60 12 -96q0 -69 -65.5 -118t-145.5 -52z" />
    <glyph glyph-name="asciitilde" unicode="~" horiz-adv-x="963" 
d="M294 131h-62q0 241 141 241q49 0 83 -31.5t49 -69t38.5 -69t53.5 -31.5q20 0 34.5 13.5t21.5 30t10.5 45.5t4 45.5t0.5 44.5h62q0 -24 -0.5 -38t-3 -42.5t-7.5 -47t-15.5 -42t-24.5 -37.5t-37 -24t-52 -10q-40 0 -68.5 20.5t-44 50.5t-29 59.5t-32.5 50t-44 20.5
q-27 0 -44.5 -17t-24 -50t-8 -54.5t-1.5 -57.5z" />
    <glyph glyph-name="uni00A0" unicode="&#xa0;" horiz-adv-x="296" 
 />
    <glyph glyph-name="exclamdown" unicode="&#xa1;" horiz-adv-x="296" 
d="M41 -165v35q32 9 45.5 66t20.5 205l8 171h66l8 -171q6 -146 19.5 -204t46.5 -67v-35q-80 5 -97 5q-20 0 -117 -5zM148 350q-27 0 -46 19t-19 46t19 46t46 19t46 -19t19 -46t-19 -46t-46 -19z" />
    <glyph glyph-name="cent" unicode="&#xa2;" 
d="M265 -42v108q-85 12 -139.5 77.5t-54.5 166.5q0 98 51 165.5t143 88.5v94h54v-94q24 -2 50 -10t31 -8q11 0 16 14h31q8 -70 27 -149l-41 -8q-30 101 -116 101q-59 0 -95.5 -49.5t-36.5 -131.5q0 -80 39.5 -131.5t106.5 -51.5q25 0 47 8.5t38.5 25.5t23.5 25.5t17 23.5
l40 -24q-36 -60 -67 -87q-49 -42 -111 -46v-108h-54z" />
    <glyph glyph-name="sterling" unicode="&#xa3;" 
d="M51 -5l-13 33q57 20 79 88t27 198h-73q17 30 30 60h49q12 111 33 160q45 106 156 106q20 0 48 -6q26 -6 41 -6q11 0 22 9l21 3q10 -58 32 -141l-29 -12q-12 21 -17.5 29.5t-21 27.5t-34 27.5t-41.5 8.5q-24 0 -42.5 -9t-29.5 -27.5t-17.5 -36t-9 -46t-3 -44t-0.5 -43.5
h47q32 0 48 4.5t34 20.5h35q-26 -47 -44 -90q-23 5 -59 5h-61q-6 -87 -23 -136t-58 -88h176q62 0 89.5 20t47.5 61l33 -10q-34 -87 -55 -179l-32 6q-13 12 -62 12h-221q-20 0 -102 -5z" />
    <glyph glyph-name="currency" unicode="&#xa4;" 
d="M73 77l-30 30l67 67q-47 51 -47 137q0 78 48 137l-68 70l30 31l69 -68q65 45 136 45q72 0 137 -45l68 68l30 -31l-67 -70q47 -50 47 -137q0 -84 -46 -137l66 -67l-30 -30l-65 66q-63 -47 -140 -47q-79 0 -139 47zM103 311q0 -73 51 -124t124 -51t124 51t51 124t-51 124
t-124 51t-124 -51t-51 -124z" />
    <glyph glyph-name="yen" unicode="&#xa5;" 
d="M232 163h-192v54h192v60l-14 26h-178v54h148l-70 127q-35 63 -54.5 83t-52.5 28v32q92 -5 111 -5q23 0 143 5v-32q-59 -5 -59 -37q0 -23 20 -59l91 -164l86 143q27 43 27 81q0 33 -53 36v32q67 -5 83 -5q10 0 68 5q0 -45 -15.5 -84t-52.5 -92l-65 -94h128v-54h-165
l-18 -26v-60h183v-54h-183v-85q0 -27 12.5 -38t39.5 -13v-32q-82 5 -106 5q-11 0 -106 -5v32q26 5 39 16t13 35v85z" />
    <glyph glyph-name="brokenbar" unicode="&#xa6;" horiz-adv-x="352" 
d="M146 350v372h60v-372h-60zM146 -207v371h60v-371h-60z" />
    <glyph glyph-name="section" unicode="&#xa7;" 
d="M431 506l-35 -6q-5 19 -10 30.5t-15.5 26t-28.5 22t-43 7.5q-34 0 -58.5 -20t-24.5 -51q0 -29 24.5 -49.5t59.5 -34.5t70 -31t59.5 -49.5t24.5 -80.5q0 -32 -9.5 -56.5t-28.5 -41t-30 -23.5t-30 -16q20 -11 30 -18.5t30 -26.5t30 -45.5t10 -59.5q0 -77 -50 -125t-134 -48
q-24 0 -59 9.5t-39 9.5q-14 0 -20 -14l-27 -4q-1 50 -15 146l34 8q29 -101 116 -101q41 0 67.5 24.5t26.5 67.5q0 32 -26.5 55.5t-64.5 40.5t-76 36.5t-64.5 53.5t-26.5 82q0 33 10.5 59t29.5 42.5t31 24t30 15.5q-45 32 -62 56q-21 33 -21 74q0 66 45 105.5t124 39.5
q39 0 64 -7q6 -1 15.5 -4t12.5 -3q8 0 18 10h22q5 -77 14 -130zM198 251q0 -9 1.5 -16.5t3.5 -13.5t7 -12t8 -10t10 -9t10 -7.5t12 -6.5t11.5 -5t12 -5.5t10.5 -4.5q14 5 22.5 9.5t21.5 14t19.5 24t6.5 32.5q0 11 -2 20.5t-8.5 17.5t-10.5 13.5t-15 12t-15.5 9.5t-18 10
t-17.5 9q-12 -4 -17.5 -7t-21 -12.5t-23 -25.5t-7.5 -37z" />
    <glyph glyph-name="dieresis" unicode="&#xa8;" horiz-adv-x="360" 
d="M103 558q-19 0 -33.5 14t-14.5 34t14.5 34t33.5 14t33.5 -14t14.5 -34t-14.5 -34t-33.5 -14zM257 558q-19 0 -33.5 14t-14.5 34t14.5 34t33.5 14t33.5 -14t14.5 -34t-14.5 -34t-33.5 -14z" />
    <glyph glyph-name="copyright" unicode="&#xa9;" horiz-adv-x="500" 
d="M250 180q-94 0 -162 68t-68 162t68 162t162 68t162 -68t68 -162t-68 -162t-162 -68zM55 410q0 -80 57.5 -137.5t137.5 -57.5t137.5 57.5t57.5 137.5t-57.5 137.5t-137.5 57.5t-137.5 -57.5t-57.5 -137.5zM337 370h21q-2 -18 -5 -29t-12.5 -29.5t-30.5 -28.5t-53 -10
q-56 0 -92.5 38t-36.5 97q0 60 38.5 101.5t84.5 41.5q23 0 44 -7.5t27 -7.5q4 0 6.5 2t6 6.5t4.5 5.5h15v-101h-15q0 1 -4 10.5t-5.5 12.5t-5.5 12t-7 12.5t-7.5 10.5t-9 10l-10.5 7t-12.5 5.5t-13.5 1.5q-71 0 -71 -122q0 -52 19 -82t55 -30q56 0 70 73z" />
    <glyph glyph-name="ordfeminine" unicode="&#xaa;" 
d="M445 368l8 -27q-6 -3 -19.5 -9.5t-21 -10t-17 -6.5t-15.5 -3q-42 0 -45 59h-2q-32 -59 -104 -59q-42 0 -67.5 24t-25.5 64q0 25 10 42.5t30.5 28.5t36 16.5t42.5 11.5q61 14 61 50q0 20 -15 30.5t-36 10.5q-52 0 -78 -56l-31 12l34 94l20 -3q5 -7 10 -7q3 0 13.5 2
t17.5 3q23 5 53 5q92 0 92 -95v-133q0 -25 6 -37.5t23 -12.5q2 0 20 6zM316 432v38q-31 -8 -44.5 -12.5t-29 -12t-20.5 -16t-5 -21.5q0 -18 12.5 -30t30.5 -12q26 0 41 22.5t15 43.5z" />
    <glyph glyph-name="guillemotleft" unicode="&#xab;" horiz-adv-x="426" 
d="M220 48h-42q-22 42 -35.5 63.5t-40 47.5t-63.5 45v48q37 19 63.5 45t40 47.5t35.5 63.5h42l-73 -180zM387 48h-42q-22 42 -35.5 63.5t-40 47.5t-63.5 45v48q37 19 63.5 45t40 47.5t35.5 63.5h42l-73 -180z" />
    <glyph glyph-name="logicalnot" unicode="&#xac;" horiz-adv-x="963" 
d="M651 122v168h-412v70h484v-238h-72z" />
    <glyph glyph-name="uni00AD" unicode="&#xad;" horiz-adv-x="352" 
d="M40 161l60 119h120q30 0 39.5 4t20.5 21h32l-60 -119h-120q-30 0 -39.5 -4t-20.5 -21h-32z" />
    <glyph glyph-name="registered" unicode="&#xae;" horiz-adv-x="500" 
d="M250 180q-94 0 -162 68t-68 162t68 162t162 68t162 -68t68 -162t-68 -162t-162 -68zM55 410q0 -80 57.5 -137.5t137.5 -57.5t137.5 57.5t57.5 137.5t-57.5 137.5t-137.5 57.5t-137.5 -57.5t-57.5 -137.5zM134 286v19q25 2 31 8.5t6 31.5v143q0 22 -6.5 28t-30.5 8v19h122
q54 0 81.5 -13t27.5 -52q0 -17 -6.5 -29t-20.5 -19t-21.5 -9.5t-24.5 -6.5q27 -16 38.5 -39.5t15.5 -38t14 -14.5q16 0 16 33h20q0 -25 -12 -47t-41 -22t-42.5 19t-15 42t-12.5 42t-36 19h-11v-61q0 -26 6.5 -33t31.5 -9v-19h-130zM226 486v-57h21q57 0 57 45q0 50 -43 50
q-20 0 -27.5 -8t-7.5 -30z" />
    <glyph glyph-name="macron" unicode="&#xaf;" horiz-adv-x="360" 
d="M55 573v66h250v-66h-250z" />
    <glyph glyph-name="degree" unicode="&#xb0;" 
d="M278 300q-70 0 -120 50t-50 120t50 120t120 50t120 -50t50 -120t-50 -120t-120 -50zM178 470q0 -41 29.5 -70.5t70.5 -29.5t70.5 29.5t29.5 70.5t-29.5 70.5t-70.5 29.5t-70.5 -29.5t-29.5 -70.5z" />
    <glyph glyph-name="plusminus" unicode="&#xb1;" horiz-adv-x="963" 
d="M239 -132v70h484v-70h-484zM445 -18v224h-206v70h206v197h72v-197h206v-70h-206v-224h-72z" />
    <glyph glyph-name="twosuperior" unicode="&#xb2;" horiz-adv-x="389" 
d="M89 257l-39 -9q-4 16 -4 27q0 35 28 68.5t61.5 56.5t61.5 55.5t28 66.5q0 29 -18 46.5t-45 17.5q-44 0 -81 -64l-32 11q33 72 45 111l27 -7q3 -7 12 -7q3 0 7 1t10 2t11 2q20 5 40 5q52 0 88 -27.5t36 -81.5q0 -32 -19.5 -59.5t-44 -44t-60.5 -41.5t-57 -46l2 -2
q19 6 37 6q6 0 27 -2t31 -2q21 0 37.5 8.5t22.5 15.5t19 25l32 -13q-24 -52 -45 -115q-16 -9 -47 -9q-28 0 -82.5 12.5t-59.5 12.5q-22 0 -29 -20z" />
    <glyph glyph-name="threesuperior" unicode="&#xb3;" horiz-adv-x="389" 
d="M334 627v-29q-13 -6 -39.5 -46t-47.5 -60q45 -4 71 -27.5t26 -80.5q0 -51 -45.5 -91.5t-130.5 -40.5q-72 0 -125 24l16 33q42 -17 71 -17q51 0 82.5 27t31.5 72q0 56 -51 56q-8 0 -22 -4l-18 26q59 54 86 91h-40q-50 0 -67.5 -9.5t-41.5 -46.5l-31 15q32 74 48 120l26 -7
q3 -10 20 -10h88q50 0 93 5z" />
    <glyph glyph-name="acute" unicode="&#xb4;" horiz-adv-x="360" 
d="M162 554l53 104h111l17 -24l-145 -80h-36z" />
    <glyph glyph-name="mu" unicode="&#xb5;" horiz-adv-x="593" 
d="M474 -18h-30q-29 46 -29 100h-2q-30 -48 -54 -67q-43 -33 -102 -33q-36 0 -77 32q0 -34 9 -112t9 -98q0 -27 -17 -42.5t-42 -15.5q-27 0 -43 15t-16 43q0 13 7 91t7 135q0 179 -4 237q0 66 -11.5 89.5t-44.5 28.5v32q33 2 61 12t43.5 20.5t39.5 30.5h30q-10 -84 -10 -213
v-82q0 -61 18.5 -92t64.5 -31q55 0 84.5 39.5t29.5 97.5v71q0 64 -11.5 87t-44.5 28v32q33 2 61 12t43.5 20.5t39.5 30.5h30q-10 -83 -10 -210v-80q0 -58 14.5 -82.5t60.5 -30.5v-32q-59 -15 -104 -63z" />
    <glyph glyph-name="paragraph" unicode="&#xb6;" 
d="M288 -282v437q-36 4 -71 17.5t-70.5 38.5t-57.5 69.5t-22 101.5q0 62 26.5 110t71 75.5t95.5 41t106 13.5h115v-37h-58v-867h-37v867h-61v-867h-37z" />
    <glyph glyph-name="periodcentered" unicode="&#xb7;" 
d="M278 241q-29 0 -49.5 20.5t-20.5 49.5t20.5 49.5t49.5 20.5t49.5 -20.5t20.5 -49.5t-20.5 -49.5t-49.5 -20.5z" />
    <glyph glyph-name="cedilla" unicode="&#xb8;" horiz-adv-x="360" 
d="M175 0h53q-4 -8 -11.5 -23.5t-13.5 -28t-11 -23.5q24 3 25 3q28 0 46.5 -19.5t18.5 -51.5q0 -37 -27.5 -62.5t-70.5 -25.5q-50 0 -82 34l30 26q22 -17 46 -17q15 0 25.5 10.5t10.5 27.5q0 12 -9.5 20.5t-22.5 8.5q-18 0 -35 -12l-27 23q26 32 55 110z" />
    <glyph glyph-name="onesuperior" unicode="&#xb9;" horiz-adv-x="389" 
d="M113 257v28q31 6 38.5 17.5t7.5 53.5v124q0 45 -12.5 57t-55.5 16v28q58 6 77.5 14.5t56.5 44.5h24v-284q0 -43 7.5 -55t38.5 -17v-27q-1 0 -35 1.5t-51 1.5z" />
    <glyph glyph-name="ordmasculine" unicode="&#xba;" 
d="M275 312q-67 0 -111 45.5t-44 118.5t44.5 118.5t113.5 45.5t113.5 -45.5t44.5 -118.5q0 -74 -45 -119t-116 -45zM216 476q0 -54 16 -84t46 -30t46 30t16 84t-16 84t-46 30t-46 -30t-16 -84z" />
    <glyph glyph-name="guillemotright" unicode="&#xbb;" horiz-adv-x="426" 
d="M39 48l73 180l-73 180h42q22 -42 35.5 -63.5t40 -47.5t63.5 -45v-48q-37 -19 -63.5 -45t-40 -47.5t-35.5 -63.5h-42zM206 48l73 180l-73 180h42q22 -42 35.5 -63.5t40 -47.5t63.5 -45v-48q-37 -19 -63.5 -45t-40 -47.5t-35.5 -63.5h-42z" />
    <glyph glyph-name="onequarter" unicode="&#xbc;" horiz-adv-x="963" 
d="M598 -3v27q24 3 36 5.5t22.5 14.5t10.5 33v25q-37 3 -73 3q-40 0 -79 -3l-24 72q157 183 164 194q7 0 20.5 -1t24.5 -1.5t21 -0.5q2 0 71 3v-27q-25 -4 -32.5 -15t-7.5 -43v-116q27 5 47 38l27 -13q-24 -58 -35 -87l-39 -3v-25q0 -29 8.5 -39t31.5 -14v-27q-1 0 -35 1.5
t-51 1.5zM667 167v141h-2q-15 -23 -57 -72t-60 -67l2 -2q21 4 52 4q36 0 65 -4zM167 257v28q31 6 38.5 17.5t7.5 53.5v124q0 45 -12.5 57t-55.5 16v28q58 6 77.5 14.5t56.5 44.5h24v-284q0 -43 7.5 -55t38.5 -17v-27q-1 0 -35 1.5t-51 1.5zM212 -30l425 652h74l-425 -652
h-74z" />
    <glyph glyph-name="onehalf" unicode="&#xbd;" horiz-adv-x="963" 
d="M128 257v28q31 6 38.5 17.5t7.5 53.5v124q0 45 -12.5 57t-55.5 16v28q58 6 77.5 14.5t56.5 44.5h24v-284q0 -43 7.5 -55t38.5 -17v-27q-1 0 -35 1.5t-51 1.5zM177 -30l425 652h74l-425 -652h-74zM576 -4l-39 -9q-4 16 -4 27q0 35 28 68.5t61.5 56.5t61.5 55.5t28 66.5
q0 29 -18 46.5t-45 17.5q-44 0 -81 -65l-32 12q33 72 45 111l27 -7q3 -7 12 -7q4 0 28 5t40 5q52 0 88 -27.5t36 -81.5q0 -32 -19.5 -59.5t-44 -44t-60.5 -41.5t-57 -46l2 -2q19 6 37 6q6 0 27 -2t31 -2q21 0 37.5 8.5t22.5 15.5t19 25l32 -13q-24 -52 -45 -115
q-16 -9 -47 -9q-28 0 -82.5 12.5t-59.5 12.5q-22 0 -29 -20z" />
    <glyph glyph-name="threequarters" unicode="&#xbe;" horiz-adv-x="963" 
d="M402 627v-29q-13 -6 -39.5 -46t-47.5 -60q45 -4 71 -27.5t26 -80.5q0 -51 -45.5 -91.5t-130.5 -40.5q-72 0 -125 24l16 33q42 -17 71 -17q51 0 82.5 27t31.5 72q0 56 -51 56q-8 0 -22 -4l-18 26q59 54 86 91h-40q-50 0 -67.5 -9.5t-41.5 -46.5l-31 15q32 74 48 120l26 -7
q3 -10 20 -10h88q50 0 93 5zM229 -30l425 652h74l-425 -652h-74zM632 -3v27q24 3 36 5.5t22.5 14.5t10.5 33v25q-38 3 -73 3q-40 0 -79 -3l-24 72q157 183 164 194q7 0 20.5 -1t24.5 -1.5t21 -0.5q2 0 71 3v-27q-25 -4 -32.5 -15t-7.5 -43v-116q27 5 47 38l27 -13
q-24 -58 -35 -87l-39 -3v-25q0 -29 8.5 -39t31.5 -14v-27q-1 0 -35 1.5t-51 1.5zM701 167v141h-2q-15 -23 -57 -72t-60 -67l2 -2q21 4 52 4q36 0 65 -4z" />
    <glyph glyph-name="questiondown" unicode="&#xbf;" horiz-adv-x="407" 
d="M336 -178l-27 6q-3 9 -15 9q-5 0 -40.5 -7.5t-63.5 -7.5q-70 0 -112.5 34.5t-42.5 96.5q0 41 17 73.5t41.5 54t49.5 41t42 43t17 51.5q0 41 -45 74l18 28q50 -27 112 -48q3 -21 3 -25q0 -38 -21.5 -74.5t-47 -61t-47 -61t-21.5 -74.5q0 -42 24 -66t59 -24q32 0 57 16
t36 31t24 40l27 -12q-25 -64 -44 -137zM221 350q-27 0 -46 19t-19 46t19 46t46 19t46 -19t19 -46t-19 -46t-46 -19z" />
    <glyph glyph-name="Agrave" unicode="&#xc0;" horiz-adv-x="667" 
d="M204 27v-32q-68 5 -80 5q-16 0 -93 -5q1 13 4.5 26.5t6.5 21.5t13 33t15 39l144 387q13 36 13 58q0 28 -48 35v32q87 -5 105 -5q17 0 102 5l178 -501q18 -51 33.5 -69.5t54.5 -29.5v-32q-100 5 -124 5q-18 0 -131 -5v32q62 3 62 34q0 14 -12 55l-45 129h-209l-45 -130
q-10 -34 -10 -46q0 -25 14.5 -32t51.5 -10zM297 547l-83 -240h166l-81 240h-2zM321 714l-145 78l17 26h111l53 -104h-36z" />
    <glyph glyph-name="Aacute" unicode="&#xc1;" horiz-adv-x="667" 
d="M204 27v-32q-68 5 -80 5q-16 0 -93 -5q1 13 4.5 26.5t6.5 21.5t13 33t15 39l144 387q13 36 13 58q0 28 -48 35v32q87 -5 105 -5q17 0 102 5l178 -501q18 -51 33.5 -69.5t54.5 -29.5v-32q-100 5 -124 5q-18 0 -131 -5v32q62 3 62 34q0 14 -12 55l-45 129h-209l-45 -130
q-10 -34 -10 -46q0 -25 14.5 -32t51.5 -10zM297 547l-83 -240h166l-81 240h-2zM286 714l53 104h111l17 -24l-145 -80h-36z" />
    <glyph glyph-name="Acircumflex" unicode="&#xc2;" horiz-adv-x="667" 
d="M204 27v-32q-68 5 -80 5q-16 0 -93 -5q1 13 4.5 26.5t6.5 21.5t13 33t15 39l144 387q13 36 13 58q0 28 -48 35v32q87 -5 105 -5q17 0 102 5l178 -501q18 -51 33.5 -69.5t54.5 -29.5v-32q-100 5 -124 5q-18 0 -131 -5v32q62 3 62 34q0 14 -12 55l-45 129h-209l-45 -130
q-10 -34 -10 -46q0 -25 14.5 -32t51.5 -10zM297 547l-83 -240h166l-81 240h-2zM178 714l96 104h90l96 -104h-50l-91 50l-91 -50h-50z" />
    <glyph glyph-name="Atilde" unicode="&#xc3;" horiz-adv-x="667" 
d="M204 27v-32q-68 5 -80 5q-16 0 -93 -5q1 13 4.5 26.5t6.5 21.5t13 33t15 39l144 387q13 36 13 58q0 28 -48 35v32q87 -5 105 -5q17 0 102 5l178 -501q18 -51 33.5 -69.5t54.5 -29.5v-32q-100 5 -124 5q-18 0 -131 -5v32q62 3 62 34q0 14 -12 55l-45 129h-209l-45 -130
q-10 -34 -10 -46q0 -25 14.5 -32t51.5 -10zM297 547l-83 -240h166l-81 240h-2zM198 720h-40q32 44 54 84q22 6 46 6q30 0 74 -8q46 -8 62 -8q30 0 46 18h40q-21 -28 -50 -84q-24 -6 -51 -6q-25 0 -69.5 8t-69.5 8q-26 0 -42 -18z" />
    <glyph glyph-name="Adieresis" unicode="&#xc4;" horiz-adv-x="667" 
d="M204 27v-32q-68 5 -80 5q-16 0 -93 -5q1 13 4.5 26.5t6.5 21.5t13 33t15 39l144 387q13 36 13 58q0 28 -48 35v32q87 -5 105 -5q17 0 102 5l178 -501q18 -51 33.5 -69.5t54.5 -29.5v-32q-100 5 -124 5q-18 0 -131 -5v32q62 3 62 34q0 14 -12 55l-45 129h-209l-45 -130
q-10 -34 -10 -46q0 -25 14.5 -32t51.5 -10zM297 547l-83 -240h166l-81 240h-2zM242 718q-20 0 -34 14t-14 34t14 34t34 14t34 -14t14 -34t-14 -34t-34 -14zM396 718q-20 0 -34 14t-14 34t14 34t34 14t34 -14t14 -34t-14 -34t-34 -14z" />
    <glyph glyph-name="Aring" unicode="&#xc5;" horiz-adv-x="667" 
d="M204 27v-32q-68 5 -80 5q-16 0 -93 -5q1 13 4.5 26.5t6.5 21.5t13 33t15 39l144 387q13 36 13 58q0 28 -48 35v32q87 -5 105 -5q17 0 102 5l178 -501q18 -51 33.5 -69.5t54.5 -29.5v-32q-100 5 -124 5q-18 0 -131 -5v32q62 3 62 34q0 14 -12 55l-45 129h-209l-45 -130
q-10 -34 -10 -46q0 -25 14.5 -32t51.5 -10zM297 547l-83 -240h166l-81 240h-2zM319 680q-39 0 -66 27t-27 66t27 66t66 27t66 -27t27 -66t-27 -66t-66 -27zM280 773q0 -17 11 -28t28 -11t28 11t11 28t-11 28t-28 11t-28 -11t-11 -28z" />
    <glyph glyph-name="AE" unicode="&#xc6;" horiz-adv-x="926" 
d="M187 27v-32q-80 5 -96 5q-15 0 -85 -5q1 9 4 17.5t8.5 20t10 20t14.5 24t15.5 23.5t19.5 28.5t20 29.5l208 313q44 67 44 89q0 30 -60 35v32l72 -3q50 -2 76 -2h278q47 0 64 3t31 12h26q0 -35 14 -154l-30 -5q-20 50 -58 66t-120 16h-91v-196h117q46 0 65.5 13t31.5 47
h32q-5 -72 -5 -93q0 -17 5 -89h-32q-14 37 -30 48.5t-67 11.5h-117v-178q0 -39 12 -50.5t56 -11.5h71q55 0 89 12.5t51 33.5t29 59l32 -4q-17 -106 -17 -178h-25q-6 9 -21 12q-17 3 -48 3h-286q-17 0 -117 -5v32q39 5 49.5 31t10.5 92v152h-168l-130 -201q-19 -27 -19 -43
q0 -31 66 -31zM436 560l-126 -196h128v196h-2z" />
    <glyph glyph-name="Ccedilla" unicode="&#xc7;" horiz-adv-x="630" 
d="M557 149l35 -30q-25 -41 -84 -85.5t-143 -49.5q-15 -29 -28 -59q24 3 25 3q28 0 46.5 -19.5t18.5 -51.5q0 -37 -27.5 -62.5t-70.5 -25.5q-50 0 -82 34l30 26q22 -17 46 -17q15 0 25.5 10.5t10.5 27.5q0 12 -9.5 20.5t-22.5 8.5q-18 0 -35 -12l-27 23q23 28 48 94
q-118 12 -192 100t-74 219q0 147 87 242t229 95q37 0 80 -12t50 -12q18 0 29 16h28q9 -79 28 -164l-37 -10q-46 120 -167 120q-94 0 -149.5 -73.5t-55.5 -194.5q0 -111 56 -182.5t149 -71.5q95 0 179 89z" />
    <glyph glyph-name="Egrave" unicode="&#xc8;" horiz-adv-x="574" 
d="M44 -5v32q39 5 49.5 31t10.5 92v322q0 66 -10.5 92t-49.5 31v32l60 -3q38 -2 57 -2h221q47 0 64 3t31 12h26q0 -35 14 -154l-30 -5q-20 50 -58 66t-120 16h-91v-196h117q46 0 65.5 13t31.5 47h32q-5 -72 -5 -93q0 -17 5 -89h-32q-14 37 -30 48.5t-67 11.5h-117v-178
q0 -39 12 -50.5t56 -11.5h71q55 0 89 12.5t51 33.5t29 59l32 -4q-17 -106 -17 -178h-25q-6 9 -21 12q-17 3 -48 3h-286q-17 0 -117 -5zM304 714l-145 78l17 26h111l53 -104h-36z" />
    <glyph glyph-name="Eacute" unicode="&#xc9;" horiz-adv-x="574" 
d="M44 -5v32q39 5 49.5 31t10.5 92v322q0 66 -10.5 92t-49.5 31v32l60 -3q38 -2 57 -2h221q47 0 64 3t31 12h26q0 -35 14 -154l-30 -5q-20 50 -58 66t-120 16h-91v-196h117q46 0 65.5 13t31.5 47h32q-5 -72 -5 -93q0 -17 5 -89h-32q-14 37 -30 48.5t-67 11.5h-117v-178
q0 -39 12 -50.5t56 -11.5h71q55 0 89 12.5t51 33.5t29 59l32 -4q-17 -106 -17 -178h-25q-6 9 -21 12q-17 3 -48 3h-286q-17 0 -117 -5zM259 714l53 104h111l17 -24l-145 -80h-36z" />
    <glyph glyph-name="Ecircumflex" unicode="&#xca;" horiz-adv-x="574" 
d="M44 -5v32q39 5 49.5 31t10.5 92v322q0 66 -10.5 92t-49.5 31v32l60 -3q38 -2 57 -2h221q47 0 64 3t31 12h26q0 -35 14 -154l-30 -5q-20 50 -58 66t-120 16h-91v-196h117q46 0 65.5 13t31.5 47h32q-5 -72 -5 -93q0 -17 5 -89h-32q-14 37 -30 48.5t-67 11.5h-117v-178
q0 -39 12 -50.5t56 -11.5h71q55 0 89 12.5t51 33.5t29 59l32 -4q-17 -106 -17 -178h-25q-6 9 -21 12q-17 3 -48 3h-286q-17 0 -117 -5zM156 714l96 104h90l96 -104h-50l-91 50l-91 -50h-50z" />
    <glyph glyph-name="Edieresis" unicode="&#xcb;" horiz-adv-x="574" 
d="M44 -5v32q39 5 49.5 31t10.5 92v322q0 66 -10.5 92t-49.5 31v32l60 -3q38 -2 57 -2h221q47 0 64 3t31 12h26q0 -35 14 -154l-30 -5q-20 50 -58 66t-120 16h-91v-196h117q46 0 65.5 13t31.5 47h32q-5 -72 -5 -93q0 -17 5 -89h-32q-14 37 -30 48.5t-67 11.5h-117v-178
q0 -39 12 -50.5t56 -11.5h71q55 0 89 12.5t51 33.5t29 59l32 -4q-17 -106 -17 -178h-25q-6 9 -21 12q-17 3 -48 3h-286q-17 0 -117 -5zM210 718q-20 0 -34 14t-14 34t14 34t34 14t34 -14t14 -34t-14 -34t-34 -14zM364 718q-20 0 -34 14t-14 34t14 34t34 14t34 -14t14 -34
t-14 -34t-34 -14z" />
    <glyph glyph-name="Igrave" unicode="&#xcc;" horiz-adv-x="315" 
d="M214 472v-322q0 -66 10.5 -92t49.5 -31v-32q-100 5 -117 5t-117 -5v32q39 5 49.5 31t10.5 92v322q0 66 -10.5 92t-49.5 31v32q100 -5 117 -5t117 5v-32q-39 -5 -49.5 -31t-10.5 -92zM169 714l-145 78l17 26h111l53 -104h-36z" />
    <glyph glyph-name="Iacute" unicode="&#xcd;" horiz-adv-x="315" 
d="M214 472v-322q0 -66 10.5 -92t49.5 -31v-32q-100 5 -117 5t-117 -5v32q39 5 49.5 31t10.5 92v322q0 66 -10.5 92t-49.5 31v32q100 -5 117 -5t117 5v-32q-39 -5 -49.5 -31t-10.5 -92zM124 714l53 104h111l17 -24l-145 -80h-36z" />
    <glyph glyph-name="Icircumflex" unicode="&#xce;" horiz-adv-x="315" 
d="M214 472v-322q0 -66 10.5 -92t49.5 -31v-32q-100 5 -117 5t-117 -5v32q39 5 49.5 31t10.5 92v322q0 66 -10.5 92t-49.5 31v32q100 -5 117 -5t117 5v-32q-39 -5 -49.5 -31t-10.5 -92zM17 714l96 104h90l96 -104h-50l-91 50l-91 -50h-50z" />
    <glyph glyph-name="Idieresis" unicode="&#xcf;" horiz-adv-x="315" 
d="M214 472v-322q0 -66 10.5 -92t49.5 -31v-32q-100 5 -117 5t-117 -5v32q39 5 49.5 31t10.5 92v322q0 66 -10.5 92t-49.5 31v32q100 -5 117 -5t117 5v-32q-39 -5 -49.5 -31t-10.5 -92zM81 718q-19 0 -33.5 14t-14.5 34t14.5 34t33.5 14t33.5 -14t14.5 -34t-14.5 -34
t-33.5 -14zM235 718q-19 0 -33.5 14t-14.5 34t14.5 34t33.5 14t33.5 -14t14.5 -34t-14.5 -34t-33.5 -14z" />
    <glyph glyph-name="Eth" unicode="&#xd0;" horiz-adv-x="685" 
d="M42 -5v32q39 5 49.5 31t10.5 92v150h-65v62h65v110q0 66 -10.5 92t-49.5 31v32l49 -3q34 -2 48 -2q23 0 89 6t91 6q159 0 244.5 -82t85.5 -238q0 -157 -85.5 -241.5t-249.5 -84.5q-38 0 -98 6q-58 6 -77 6q-12 0 -97 -5zM216 300v-175q0 -47 16 -61t77 -14q110 0 166 68
t56 194q0 124 -58 192t-166 68q-37 0 -91 -9v-201h153v-62h-153z" />
    <glyph glyph-name="Ntilde" unicode="&#xd1;" horiz-adv-x="685" 
d="M243 27v-32q-67 5 -80 5q-16 0 -76 -5q0 10 2.5 73t4.5 156.5t2 177.5q0 92 -4 127t-15 47.5t-41 18.5v32q87 -5 106 -5q15 0 95 5l292 -445h2v290q0 74 -14.5 95t-65.5 28v32q73 -5 85 -5t70 5q0 -23 -4.5 -125t-4.5 -182q0 -83 4.5 -193.5t4.5 -131.5q-30 5 -42 5
q-4 0 -42 -5l-358 543h-2v-388q0 -76 15 -96t66 -27zM222 720h-40q32 44 54 84q22 6 46 6q30 0 74 -8q46 -8 62 -8q30 0 46 18h40q-21 -28 -50 -84q-24 -6 -51 -6q-25 0 -69.5 8t-69.5 8q-26 0 -42 -18z" />
    <glyph glyph-name="Ograve" unicode="&#xd2;" horiz-adv-x="741" 
d="M370 -18q-142 0 -233.5 96.5t-91.5 232.5t91.5 232.5t233.5 96.5t233.5 -96.5t91.5 -232.5t-91.5 -232.5t-233.5 -96.5zM167 311q0 -115 55.5 -191t147.5 -76t147.5 76t55.5 191t-55.5 191t-147.5 76t-147.5 -76t-55.5 -191zM378 714l-145 78l17 26h111l53 -104h-36z" />
    <glyph glyph-name="Oacute" unicode="&#xd3;" horiz-adv-x="741" 
d="M370 -18q-142 0 -233.5 96.5t-91.5 232.5t91.5 232.5t233.5 96.5t233.5 -96.5t91.5 -232.5t-91.5 -232.5t-233.5 -96.5zM167 311q0 -115 55.5 -191t147.5 -76t147.5 76t55.5 191t-55.5 191t-147.5 76t-147.5 -76t-55.5 -191zM338 714l53 104h111l17 -24l-145 -80h-36z
" />
    <glyph glyph-name="Ocircumflex" unicode="&#xd4;" horiz-adv-x="741" 
d="M370 -18q-142 0 -233.5 96.5t-91.5 232.5t91.5 232.5t233.5 96.5t233.5 -96.5t91.5 -232.5t-91.5 -232.5t-233.5 -96.5zM167 311q0 -115 55.5 -191t147.5 -76t147.5 76t55.5 191t-55.5 191t-147.5 76t-147.5 -76t-55.5 -191zM230 714l96 104h90l96 -104h-50l-91 50
l-91 -50h-50z" />
    <glyph glyph-name="Otilde" unicode="&#xd5;" horiz-adv-x="741" 
d="M370 -18q-142 0 -233.5 96.5t-91.5 232.5t91.5 232.5t233.5 96.5t233.5 -96.5t91.5 -232.5t-91.5 -232.5t-233.5 -96.5zM167 311q0 -115 55.5 -191t147.5 -76t147.5 76t55.5 191t-55.5 191t-147.5 76t-147.5 -76t-55.5 -191zM250 720h-40q32 44 54 84q22 6 46 6
q30 0 74 -8q46 -8 62 -8q29 0 46 18h40q-21 -28 -50 -84q-24 -6 -51 -6q-25 0 -69.5 8t-69.5 8q-26 0 -42 -18z" />
    <glyph glyph-name="Odieresis" unicode="&#xd6;" horiz-adv-x="741" 
d="M370 -18q-142 0 -233.5 96.5t-91.5 232.5t91.5 232.5t233.5 96.5t233.5 -96.5t91.5 -232.5t-91.5 -232.5t-233.5 -96.5zM167 311q0 -115 55.5 -191t147.5 -76t147.5 76t55.5 191t-55.5 191t-147.5 76t-147.5 -76t-55.5 -191zM294 718q-20 0 -34 14t-14 34t14 34t34 14
t34 -14t14 -34t-14 -34t-34 -14zM448 718q-20 0 -34 14t-14 34t14 34t34 14t34 -14t14 -34t-14 -34t-34 -14z" />
    <glyph glyph-name="multiply" unicode="&#xd7;" horiz-adv-x="963" 
d="M289 -18l-52 49l194 195l-192 195l49 52l195 -194l192 193l49 -53l-193 -194l193 -197l-52 -46l-192 192z" />
    <glyph glyph-name="Oslash" unicode="&#xd8;" horiz-adv-x="741" 
d="M690 583l-65 -65q70 -92 70 -207q0 -136 -91.5 -232.5t-233.5 -96.5q-120 0 -209 71l-60 -61l-48 45l63 64q-71 88 -71 210q0 136 91.5 232.5t233.5 96.5q120 0 210 -74l64 64zM549 442l-326 -326q56 -72 147 -72q92 0 147.5 76t55.5 191q0 70 -24 131zM190 175l326 327
q-57 76 -146 76q-92 0 -147.5 -76t-55.5 -191q0 -75 23 -136z" />
    <glyph glyph-name="Ugrave" unicode="&#xd9;" horiz-adv-x="704" 
d="M605 472v-232q0 -258 -250 -258q-77 0 -128.5 18t-78 54t-37 79.5t-10.5 106.5v232q0 66 -10.5 92t-49.5 31v32q100 -5 117 -5t117 5v-32q-39 -5 -49.5 -31t-10.5 -92v-232q0 -41 6 -71t22.5 -57.5t49 -41.5t80.5 -14q85 0 125.5 45.5t40.5 138.5v232q0 66 -10.5 92
t-49.5 31v32q77 -5 93 -5q8 0 93 5v-32q-39 -5 -49.5 -31t-10.5 -92zM369 714l-145 78l17 26h111l53 -104h-36z" />
    <glyph glyph-name="Uacute" unicode="&#xda;" horiz-adv-x="704" 
d="M605 472v-232q0 -258 -250 -258q-77 0 -128.5 18t-78 54t-37 79.5t-10.5 106.5v232q0 66 -10.5 92t-49.5 31v32q100 -5 117 -5t117 5v-32q-39 -5 -49.5 -31t-10.5 -92v-232q0 -41 6 -71t22.5 -57.5t49 -41.5t80.5 -14q85 0 125.5 45.5t40.5 138.5v232q0 66 -10.5 92
t-49.5 31v32q77 -5 93 -5q8 0 93 5v-32q-39 -5 -49.5 -31t-10.5 -92zM334 714l53 104h111l17 -24l-145 -80h-36z" />
    <glyph glyph-name="Ucircumflex" unicode="&#xdb;" horiz-adv-x="704" 
d="M605 472v-232q0 -258 -250 -258q-77 0 -128.5 18t-78 54t-37 79.5t-10.5 106.5v232q0 66 -10.5 92t-49.5 31v32q100 -5 117 -5t117 5v-32q-39 -5 -49.5 -31t-10.5 -92v-232q0 -41 6 -71t22.5 -57.5t49 -41.5t80.5 -14q85 0 125.5 45.5t40.5 138.5v232q0 66 -10.5 92
t-49.5 31v32q77 -5 93 -5q8 0 93 5v-32q-39 -5 -49.5 -31t-10.5 -92zM211 714l96 104h90l96 -104h-50l-91 50l-91 -50h-50z" />
    <glyph glyph-name="Udieresis" unicode="&#xdc;" horiz-adv-x="704" 
d="M605 472v-232q0 -258 -250 -258q-77 0 -128.5 18t-78 54t-37 79.5t-10.5 106.5v232q0 66 -10.5 92t-49.5 31v32q100 -5 117 -5t117 5v-32q-39 -5 -49.5 -31t-10.5 -92v-232q0 -41 6 -71t22.5 -57.5t49 -41.5t80.5 -14q85 0 125.5 45.5t40.5 138.5v232q0 66 -10.5 92
t-49.5 31v32q77 -5 93 -5q8 0 93 5v-32q-39 -5 -49.5 -31t-10.5 -92zM275 718q-19 0 -33.5 14t-14.5 34t14.5 34t33.5 14t33.5 -14t14.5 -34t-14.5 -34t-33.5 -14zM429 718q-19 0 -33.5 14t-14.5 34t14.5 34t33.5 14t33.5 -14t14.5 -34t-14.5 -34t-33.5 -14z" />
    <glyph glyph-name="Yacute" unicode="&#xdd;" horiz-adv-x="630" 
d="M210 -5v32q39 5 49.5 31t10.5 92v121l-136 212q-45 69 -65 87.5t-56 24.5v32q125 -5 149 -5q23 0 135 5v-32q-65 -2 -65 -36q0 -22 31 -70l99 -154l94 147q28 43 28 76q0 34 -60 37v32q80 -5 96 -5q14 0 74 5q0 -45 -13.5 -75.5t-48.5 -78.5l-148 -202v-121
q0 -66 10.5 -92t49.5 -31v-32q-100 5 -117 5t-117 -5zM297 714l53 104h111l17 -24l-145 -80h-36z" />
    <glyph glyph-name="Thorn" unicode="&#xde;" 
d="M41 -5v32q39 5 49.5 31t10.5 92v322q0 66 -10.5 92t-49.5 31v32q105 -5 117 -5q17 0 117 5v-32q-38 -4 -49 -22.5t-11 -64.5h73q232 0 232 -178q0 -37 -9 -66t-22.5 -47.5t-36.5 -31.5t-42.5 -20t-49.5 -10.5t-49 -4t-49 -0.5h-47q0 -68 14 -92t64 -31v-32q-115 5 -135 5
q-17 0 -117 -5zM215 446v-234h34q73 0 113 24.5t40 91.5q0 66 -34 92t-96 26h-57z" />
    <glyph glyph-name="germandbls" unicode="&#xdf;" horiz-adv-x="593" 
d="M43 -5v32q29 11 38.5 35t9.5 88v316q0 100 52 164t160 64q77 0 126.5 -39t49.5 -102q0 -47 -24 -74.5t-52.5 -36t-52.5 -24t-24 -40.5q0 -27 23 -45.5t56 -30.5t65.5 -27.5t55.5 -47t23 -78.5q0 -77 -54.5 -122t-144.5 -45q-27 0 -90 13q-6 41 -26 122l29 8
q25 -89 90 -89q35 0 58.5 26t23.5 68q0 33 -13.5 58t-33.5 39t-44 33.5t-44 40t-33.5 60t-13.5 92.5q42 0 80 24t38 78q0 37 -24.5 61t-60.5 24q-55 0 -71 -44t-16 -146v-455q-65 5 -76 5q-13 0 -80 -5z" />
    <glyph glyph-name="agrave" unicode="&#xe0;" horiz-adv-x="519" 
d="M506 59l13 -33q-12 -5 -34 -15.5t-33 -15.5t-25.5 -9t-25.5 -4q-53 0 -65 77q-1 3 -1 4q-61 -81 -154 -81q-63 0 -104 35.5t-41 94.5q0 38 13.5 65t41 43t47.5 23t55 16q5 1 8 2q70 18 94.5 33.5t24.5 53.5q0 72 -85 72q-31 0 -55 -8.5t-40 -27t-22.5 -29.5t-17.5 -33
l-38 17q36 80 49 141l32 -5q8 -10 22 -10q15 0 53 8q42 7 58 7q73 0 112.5 -34t39.5 -87v-209q0 -50 10 -74t37 -24q6 0 17.5 3.5t13.5 3.5zM320 176v63q-14 -5 -41.5 -12.5t-46.5 -14t-39.5 -17t-31.5 -28t-11 -40.5q0 -29 20.5 -47t52.5 -18q50 0 73.5 32t23.5 82z
M257 554l-145 78l17 26h111l53 -104h-36z" />
    <glyph glyph-name="aacute" unicode="&#xe1;" horiz-adv-x="519" 
d="M506 59l13 -33q-12 -5 -34 -15.5t-33 -15.5t-25.5 -9t-25.5 -4q-53 0 -65 77q-1 3 -1 4q-61 -81 -154 -81q-63 0 -104 35.5t-41 94.5q0 38 13.5 65t41 43t47.5 23t55 16q5 1 8 2q70 18 94.5 33.5t24.5 53.5q0 72 -85 72q-31 0 -55 -8.5t-40 -27t-22.5 -29.5t-17.5 -33
l-38 17q36 80 49 141l32 -5q8 -10 22 -10q15 0 53 8q42 7 58 7q73 0 112.5 -34t39.5 -87v-209q0 -50 10 -74t37 -24q6 0 17.5 3.5t13.5 3.5zM320 176v63q-14 -5 -41.5 -12.5t-46.5 -14t-39.5 -17t-31.5 -28t-11 -40.5q0 -29 20.5 -47t52.5 -18q50 0 73.5 32t23.5 82z
M222 554l53 104h111l17 -24l-145 -80h-36z" />
    <glyph glyph-name="acircumflex" unicode="&#xe2;" horiz-adv-x="519" 
d="M506 59l13 -33q-12 -5 -34 -15.5t-33 -15.5t-25.5 -9t-25.5 -4q-53 0 -65 77q-1 3 -1 4q-61 -81 -154 -81q-63 0 -104 35.5t-41 94.5q0 38 13.5 65t41 43t47.5 23t55 16q5 1 8 2q70 18 94.5 33.5t24.5 53.5q0 72 -85 72q-31 0 -55 -8.5t-40 -27t-22.5 -29.5t-17.5 -33
l-38 17q36 80 49 141l32 -5q8 -10 22 -10q15 0 53 8q42 7 58 7q73 0 112.5 -34t39.5 -87v-209q0 -50 10 -74t37 -24q6 0 17.5 3.5t13.5 3.5zM320 176v63q-14 -5 -41.5 -12.5t-46.5 -14t-39.5 -17t-31.5 -28t-11 -40.5q0 -29 20.5 -47t52.5 -18q50 0 73.5 32t23.5 82z
M119 554l96 104h90l96 -104h-50l-91 50l-91 -50h-50z" />
    <glyph glyph-name="atilde" unicode="&#xe3;" horiz-adv-x="519" 
d="M506 59l13 -33q-12 -5 -34 -15.5t-33 -15.5t-25.5 -9t-25.5 -4q-53 0 -65 77q-1 3 -1 4q-61 -81 -154 -81q-63 0 -104 35.5t-41 94.5q0 38 13.5 65t41 43t47.5 23t55 16q5 1 8 2q70 18 94.5 33.5t24.5 53.5q0 72 -85 72q-31 0 -55 -8.5t-40 -27t-22.5 -29.5t-17.5 -33
l-38 17q36 80 49 141l32 -5q8 -10 22 -10q15 0 53 8q42 7 58 7q73 0 112.5 -34t39.5 -87v-209q0 -50 10 -74t37 -24q6 0 17.5 3.5t13.5 3.5zM320 176v63q-14 -5 -41.5 -12.5t-46.5 -14t-39.5 -17t-31.5 -28t-11 -40.5q0 -29 20.5 -47t52.5 -18q50 0 73.5 32t23.5 82z
M129 560h-40q32 44 54 84q22 6 46 6q30 0 74 -8q46 -8 62 -8q29 0 46 18h40q-21 -28 -50 -84q-24 -6 -51 -6q-25 0 -69.5 8t-69.5 8q-26 0 -42 -18z" />
    <glyph glyph-name="adieresis" unicode="&#xe4;" horiz-adv-x="519" 
d="M506 59l13 -33q-12 -5 -34 -15.5t-33 -15.5t-25.5 -9t-25.5 -4q-53 0 -65 77q-1 3 -1 4q-61 -81 -154 -81q-63 0 -104 35.5t-41 94.5q0 38 13.5 65t41 43t47.5 23t55 16q5 1 8 2q70 18 94.5 33.5t24.5 53.5q0 72 -85 72q-31 0 -55 -8.5t-40 -27t-22.5 -29.5t-17.5 -33
l-38 17q36 80 49 141l32 -5q8 -10 22 -10q15 0 53 8q42 7 58 7q73 0 112.5 -34t39.5 -87v-209q0 -50 10 -74t37 -24q6 0 17.5 3.5t13.5 3.5zM320 176v63q-14 -5 -41.5 -12.5t-46.5 -14t-39.5 -17t-31.5 -28t-11 -40.5q0 -29 20.5 -47t52.5 -18q50 0 73.5 32t23.5 82z
M173 558q-19 0 -33.5 14t-14.5 34t14.5 34t33.5 14t33.5 -14t14.5 -34t-14.5 -34t-33.5 -14zM327 558q-19 0 -33.5 14t-14.5 34t14.5 34t33.5 14t33.5 -14t14.5 -34t-14.5 -34t-33.5 -14z" />
    <glyph glyph-name="aring" unicode="&#xe5;" horiz-adv-x="519" 
d="M506 59l13 -33q-12 -5 -34 -15.5t-33 -15.5t-25.5 -9t-25.5 -4q-53 0 -65 77q-1 3 -1 4q-61 -81 -154 -81q-63 0 -104 35.5t-41 94.5q0 38 13.5 65t41 43t47.5 23t55 16q5 1 8 2q70 18 94.5 33.5t24.5 53.5q0 72 -85 72q-31 0 -55 -8.5t-40 -27t-22.5 -29.5t-17.5 -33
l-38 17q36 80 49 141l32 -5q8 -10 22 -10q15 0 53 8q42 7 58 7q73 0 112.5 -34t39.5 -87v-209q0 -50 10 -74t37 -24q6 0 17.5 3.5t13.5 3.5zM320 176v63q-14 -5 -41.5 -12.5t-46.5 -14t-39.5 -17t-31.5 -28t-11 -40.5q0 -29 20.5 -47t52.5 -18q50 0 73.5 32t23.5 82z
M260 520q-39 0 -66 27t-27 66t27 66t66 27t66 -27t27 -66t-27 -66t-66 -27zM221 613q0 -17 11.5 -28t27.5 -11t27.5 11t11.5 28t-11.5 28t-27.5 11t-27.5 -11t-11.5 -28z" />
    <glyph glyph-name="ae" unicode="&#xe6;" horiz-adv-x="796" 
d="M711 135l34 -27q-79 -126 -205 -126q-59 0 -110 28.5t-79 76.5q-11 -19 -22 -33t-31 -33t-50 -29t-67 -10q-63 0 -104 35.5t-41 94.5q0 38 13.5 65t41 43t47.5 23t55 16q5 1 8 2q70 18 94.5 33.5t24.5 53.5q0 72 -85 72q-31 0 -55 -8.5t-40 -27t-22.5 -29.5t-17.5 -33
l-38 17q36 80 49 141l32 -5q8 -10 22 -10q15 0 53 8q42 7 58 7q88 0 129 -48q22 22 58 35t73 13q53 0 93 -18.5t61.5 -48.5t31.5 -54.5t15 -49.5t19 -42l-16 -30q-66 6 -167 6q-98 0 -145 -6q0 -33 7 -62.5t22 -57.5t44 -44.5t68 -16.5q11 0 21.5 1.5t19 4t18 7t16.5 8.5
t15.5 10t13 10t12 11t10 9.5t9 9.5t7.5 8zM320 176v63q-14 -5 -41.5 -12.5t-46.5 -14t-39.5 -17t-31.5 -28t-11 -40.5q0 -29 20.5 -47t52.5 -18q50 0 73.5 32t23.5 82zM428 297h195q0 50 -20.5 86.5t-69.5 36.5q-33 0 -55.5 -15t-32 -38t-13 -39t-4.5 -31z" />
    <glyph glyph-name="ccedilla" unicode="&#xe7;" horiz-adv-x="481" 
d="M429 139l40 -24l-15 -25.5t-23.5 -31.5t-36.5 -36t-48.5 -25t-65.5 -14q-13 -25 -28 -58q24 3 25 3q28 0 46.5 -19.5t18.5 -51.5q0 -37 -27.5 -62.5t-70.5 -25.5q-50 0 -82 34l30 26q22 -17 46 -17q15 0 25.5 10.5t10.5 27.5q0 12 -9.5 20.5t-22.5 8.5q-18 0 -35 -12
l-27 23q24 30 49 96q-81 13 -133.5 78t-52.5 162q0 109 65 181.5t166 72.5q35 0 64 -9q6 -2 13.5 -4t12.5 -3.5t8 -1.5q10 0 16 13h31q8 -68 27 -148l-41 -8q-30 101 -116 101q-59 0 -95.5 -49.5t-36.5 -131.5q0 -80 39.5 -131.5t106.5 -51.5q25 0 47 8.5t38.5 25.5
t23.5 25.5t17 23.5z" />
    <glyph glyph-name="egrave" unicode="&#xe8;" horiz-adv-x="519" 
d="M435 135l34 -27q-79 -126 -205 -126q-95 0 -160.5 67.5t-65.5 174.5t64 181.5t158 74.5q53 0 93 -18.5t61.5 -48.5t31.5 -54.5t15 -49.5t19 -42l-16 -29q-69 5 -167 5q-96 0 -145 -5q0 -46 11.5 -84t44.5 -68t85 -30q11 0 21.5 1.5t19 4t18 7t16.5 8.5t15.5 10t13 10
t12 11t10 9.5t9 9.5t7.5 8zM152 297h195q0 50 -20.5 86.5t-69.5 36.5q-33 0 -55.5 -15t-32 -38t-13 -39t-4.5 -31zM272 554l-145 78l17 26h111l53 -104h-36z" />
    <glyph glyph-name="eacute" unicode="&#xe9;" horiz-adv-x="519" 
d="M435 135l34 -27q-79 -126 -205 -126q-95 0 -160.5 67.5t-65.5 174.5t64 181.5t158 74.5q53 0 93 -18.5t61.5 -48.5t31.5 -54.5t15 -49.5t19 -42l-16 -29q-69 5 -167 5q-96 0 -145 -5q0 -46 11.5 -84t44.5 -68t85 -30q11 0 21.5 1.5t19 4t18 7t16.5 8.5t15.5 10t13 10
t12 11t10 9.5t9 9.5t7.5 8zM152 297h195q0 50 -20.5 86.5t-69.5 36.5q-33 0 -55.5 -15t-32 -38t-13 -39t-4.5 -31zM232 554l53 104h111l17 -24l-145 -80h-36z" />
    <glyph glyph-name="ecircumflex" unicode="&#xea;" horiz-adv-x="519" 
d="M435 135l34 -27q-79 -126 -205 -126q-95 0 -160.5 67.5t-65.5 174.5t64 181.5t158 74.5q53 0 93 -18.5t61.5 -48.5t31.5 -54.5t15 -49.5t19 -42l-16 -29q-69 5 -167 5q-96 0 -145 -5q0 -46 11.5 -84t44.5 -68t85 -30q11 0 21.5 1.5t19 4t18 7t16.5 8.5t15.5 10t13 10
t12 11t10 9.5t9 9.5t7.5 8zM152 297h195q0 50 -20.5 86.5t-69.5 36.5q-33 0 -55.5 -15t-32 -38t-13 -39t-4.5 -31zM119 554l96 104h90l96 -104h-50l-91 50l-91 -50h-50z" />
    <glyph glyph-name="edieresis" unicode="&#xeb;" horiz-adv-x="519" 
d="M435 135l34 -27q-79 -126 -205 -126q-95 0 -160.5 67.5t-65.5 174.5t64 181.5t158 74.5q53 0 93 -18.5t61.5 -48.5t31.5 -54.5t15 -49.5t19 -42l-16 -29q-69 5 -167 5q-96 0 -145 -5q0 -46 11.5 -84t44.5 -68t85 -30q11 0 21.5 1.5t19 4t18 7t16.5 8.5t15.5 10t13 10
t12 11t10 9.5t9 9.5t7.5 8zM152 297h195q0 50 -20.5 86.5t-69.5 36.5q-33 0 -55.5 -15t-32 -38t-13 -39t-4.5 -31zM183 558q-19 0 -33.5 14t-14.5 34t14.5 34t33.5 14t33.5 -14t14.5 -34t-14.5 -34t-33.5 -14zM337 558q-19 0 -33.5 14t-14.5 34t14.5 34t33.5 14t33.5 -14
t14.5 -34t-14.5 -34t-33.5 -14z" />
    <glyph glyph-name="igrave" unicode="&#xec;" horiz-adv-x="296" 
d="M44 -5v32q19 2 31 10.5t17 26t6.5 35.5t1.5 51v117q0 66 -11.5 89.5t-44.5 28.5v32q33 2 61 12t43.5 20.5t39.5 30.5h30q-10 -84 -10 -213v-117q0 -33 1.5 -51t6.5 -35.5t17 -26t31 -10.5v-32q-95 5 -110 5t-110 -5zM155 554l-145 78l17 26h111l53 -104h-36z" />
    <glyph glyph-name="iacute" unicode="&#xed;" horiz-adv-x="296" 
d="M44 -5v32q19 2 31 10.5t17 26t6.5 35.5t1.5 51v117q0 66 -11.5 89.5t-44.5 28.5v32q33 2 61 12t43.5 20.5t39.5 30.5h30q-10 -84 -10 -213v-117q0 -33 1.5 -51t6.5 -35.5t17 -26t31 -10.5v-32q-95 5 -110 5t-110 -5zM115 554l53 104h111l17 -24l-145 -80h-36z" />
    <glyph glyph-name="icircumflex" unicode="&#xee;" horiz-adv-x="296" 
d="M44 -5v32q19 2 31 10.5t17 26t6.5 35.5t1.5 51v117q0 66 -11.5 89.5t-44.5 28.5v32q33 2 61 12t43.5 20.5t39.5 30.5h30q-10 -84 -10 -213v-117q0 -33 1.5 -51t6.5 -35.5t17 -26t31 -10.5v-32q-95 5 -110 5t-110 -5zM7 554l96 104h90l96 -104h-50l-91 50l-91 -50h-50z
" />
    <glyph glyph-name="idieresis" unicode="&#xef;" horiz-adv-x="296" 
d="M44 -5v32q19 2 31 10.5t17 26t6.5 35.5t1.5 51v117q0 66 -11.5 89.5t-44.5 28.5v32q33 2 61 12t43.5 20.5t39.5 30.5h30q-10 -84 -10 -213v-117q0 -33 1.5 -51t6.5 -35.5t17 -26t31 -10.5v-32q-95 5 -110 5t-110 -5zM71 558q-19 0 -33.5 14t-14.5 34t14.5 34t33.5 14
t33.5 -14t14.5 -34t-14.5 -34t-33.5 -14zM225 558q-19 0 -33.5 14t-14.5 34t14.5 34t33.5 14t33.5 -14t14.5 -34t-14.5 -34t-33.5 -14z" />
    <glyph glyph-name="eth" unicode="&#xf0;" 
d="M159 224q0 -83 31.5 -132.5t87.5 -49.5q57 0 86.5 51.5t29.5 133.5q0 89 -28.5 141t-82.5 52q-60 0 -92 -54t-32 -142zM309 573l-156 -58l-50 36l161 60q-60 44 -136 57l61 26q80 -9 149 -56l123 45l47 -37l-125 -46q59 -55 92 -136t33 -174q0 -82 -20 -143.5t-54 -96.5
t-74.5 -51.5t-86.5 -16.5q-101 0 -164.5 65.5t-63.5 168.5q0 111 65.5 187.5t162.5 76.5q67 0 116 -49l2 2q-22 79 -82 140z" />
    <glyph glyph-name="ntilde" unicode="&#xf1;" horiz-adv-x="611" 
d="M48 -5v32q19 2 31 10.5t17 26t6.5 35.5t1.5 51v117q0 66 -11.5 89.5t-44.5 28.5v32q65 4 126 63h30v-93q1 1 14 12.5t20 17t22 17t27.5 18t29 14t34 11t35.5 3.5q132 0 132 -170v-200q0 -44 11.5 -60t43.5 -23v-32q-67 5 -77 5q-13 0 -71 -5q-15 16 -15 64v238
q0 103 -70 103q-66 0 -128 -72v-178q0 -33 1.5 -51t6.5 -35.5t17 -26t31 -10.5v-32q-95 5 -110 5t-110 -5zM185 560h-40q32 44 54 84q22 6 46 6q30 0 74 -8q46 -8 62 -8q29 0 46 18h40q-21 -28 -50 -84q-24 -6 -51 -6q-25 0 -69.5 8t-69.5 8q-26 0 -42 -18z" />
    <glyph glyph-name="ograve" unicode="&#xf2;" 
d="M279 -18q-102 0 -169.5 68t-67.5 181t67.5 181t169.5 68t169.5 -68t67.5 -181t-67.5 -181t-169.5 -68zM156 231q0 -87 31.5 -138t91.5 -51t91.5 51t31.5 138t-31.5 138t-91.5 51t-91.5 -51t-31.5 -138zM285 554l-145 78l17 26h111l53 -104h-36z" />
    <glyph glyph-name="oacute" unicode="&#xf3;" 
d="M279 -18q-102 0 -169.5 68t-67.5 181t67.5 181t169.5 68t169.5 -68t67.5 -181t-67.5 -181t-169.5 -68zM156 231q0 -87 31.5 -138t91.5 -51t91.5 51t31.5 138t-31.5 138t-91.5 51t-91.5 -51t-31.5 -138zM260 554l53 104h111l17 -24l-145 -80h-36z" />
    <glyph glyph-name="ocircumflex" unicode="&#xf4;" 
d="M279 -18q-102 0 -169.5 68t-67.5 181t67.5 181t169.5 68t169.5 -68t67.5 -181t-67.5 -181t-169.5 -68zM156 231q0 -87 31.5 -138t91.5 -51t91.5 51t31.5 138t-31.5 138t-91.5 51t-91.5 -51t-31.5 -138zM137 554l96 104h90l96 -104h-50l-91 50l-91 -50h-50z" />
    <glyph glyph-name="otilde" unicode="&#xf5;" 
d="M279 -18q-102 0 -169.5 68t-67.5 181t67.5 181t169.5 68t169.5 -68t67.5 -181t-67.5 -181t-169.5 -68zM156 231q0 -87 31.5 -138t91.5 -51t91.5 51t31.5 138t-31.5 138t-91.5 51t-91.5 -51t-31.5 -138zM157 560h-40q32 44 54 84q23 6 46 6q30 0 74 -8q46 -8 62 -8
q29 0 46 18h40q-21 -28 -50 -84q-24 -6 -51 -6q-25 0 -69.5 8t-69.5 8q-26 0 -42 -18z" />
    <glyph glyph-name="odieresis" unicode="&#xf6;" 
d="M279 -18q-102 0 -169.5 68t-67.5 181t67.5 181t169.5 68t169.5 -68t67.5 -181t-67.5 -181t-169.5 -68zM156 231q0 -87 31.5 -138t91.5 -51t91.5 51t31.5 138t-31.5 138t-91.5 51t-91.5 -51t-31.5 -138zM201 558q-19 0 -33.5 14t-14.5 34t14.5 34t33.5 14t33.5 -14
t14.5 -34t-14.5 -34t-33.5 -14zM355 558q-19 0 -33.5 14t-14.5 34t14.5 34t33.5 14t33.5 -14t14.5 -34t-14.5 -34t-33.5 -14z" />
    <glyph glyph-name="divide" unicode="&#xf7;" horiz-adv-x="963" 
d="M481 44q-23 0 -38.5 16t-15.5 38t15.5 38t38.5 16t38.5 -16t15.5 -38t-15.5 -38t-38.5 -16zM239 206v70h484v-70h-484zM481 330q-23 0 -38.5 16t-15.5 38t15.5 38t38.5 16t38.5 -16t15.5 -38t-15.5 -38t-38.5 -16z" />
    <glyph glyph-name="oslash" unicode="&#xf8;" 
d="M508 437l-43 -46q51 -65 51 -160q0 -113 -67.5 -181t-169.5 -68q-85 0 -150 49l-42 -45l-41 39l42 46q-46 65 -46 160q0 113 67.5 181t169.5 68q83 0 147 -47l41 43zM392 313l-206 -220q31 -51 93 -51q60 0 91.5 51t31.5 138q0 42 -10 82zM163 151l205 219q-32 50 -89 50
q-60 0 -91.5 -51t-31.5 -138q0 -46 7 -80z" />
    <glyph glyph-name="ugrave" unicode="&#xf9;" horiz-adv-x="593" 
d="M474 -18h-30q-29 46 -29 100h-2q-36 -48 -67 -68q-50 -32 -115 -32q-78 0 -109.5 41t-31.5 120v124q0 66 -11.5 89.5t-44.5 28.5v32q33 2 61 12t43.5 20.5t39.5 30.5h30q-10 -84 -10 -213v-82q0 -61 18.5 -92t64.5 -31q55 0 84.5 39.5t29.5 97.5v71q0 64 -11.5 87
t-44.5 28v32q33 2 61 12t43.5 20.5t39.5 30.5h30q-10 -83 -10 -210v-80q0 -58 14.5 -82.5t60.5 -30.5v-32q-59 -15 -104 -63zM304 554l-145 78l17 26h111l53 -104h-36z" />
    <glyph glyph-name="uacute" unicode="&#xfa;" horiz-adv-x="593" 
d="M474 -18h-30q-29 46 -29 100h-2q-36 -48 -67 -68q-50 -32 -115 -32q-78 0 -109.5 41t-31.5 120v124q0 66 -11.5 89.5t-44.5 28.5v32q33 2 61 12t43.5 20.5t39.5 30.5h30q-10 -84 -10 -213v-82q0 -61 18.5 -92t64.5 -31q55 0 84.5 39.5t29.5 97.5v71q0 64 -11.5 87
t-44.5 28v32q33 2 61 12t43.5 20.5t39.5 30.5h30q-10 -83 -10 -210v-80q0 -58 14.5 -82.5t60.5 -30.5v-32q-59 -15 -104 -63zM279 554l53 104h111l17 -24l-145 -80h-36z" />
    <glyph glyph-name="ucircumflex" unicode="&#xfb;" horiz-adv-x="593" 
d="M474 -18h-30q-29 46 -29 100h-2q-36 -48 -67 -68q-50 -32 -115 -32q-78 0 -109.5 41t-31.5 120v124q0 66 -11.5 89.5t-44.5 28.5v32q33 2 61 12t43.5 20.5t39.5 30.5h30q-10 -84 -10 -213v-82q0 -61 18.5 -92t64.5 -31q55 0 84.5 39.5t29.5 97.5v71q0 64 -11.5 87
t-44.5 28v32q33 2 61 12t43.5 20.5t39.5 30.5h30q-10 -83 -10 -210v-80q0 -58 14.5 -82.5t60.5 -30.5v-32q-59 -15 -104 -63zM156 554l96 104h90l96 -104h-50l-91 50l-91 -50h-50z" />
    <glyph glyph-name="udieresis" unicode="&#xfc;" horiz-adv-x="593" 
d="M474 -18h-30q-29 46 -29 100h-2q-36 -48 -67 -68q-50 -32 -115 -32q-78 0 -109.5 41t-31.5 120v124q0 66 -11.5 89.5t-44.5 28.5v32q33 2 61 12t43.5 20.5t39.5 30.5h30q-10 -84 -10 -213v-82q0 -61 18.5 -92t64.5 -31q55 0 84.5 39.5t29.5 97.5v71q0 64 -11.5 87
t-44.5 28v32q33 2 61 12t43.5 20.5t39.5 30.5h30q-10 -83 -10 -210v-80q0 -58 14.5 -82.5t60.5 -30.5v-32q-59 -15 -104 -63zM230 558q-20 0 -34 14t-14 34t14 34t34 14t34 -14t14 -34t-14 -34t-34 -14zM384 558q-20 0 -34 14t-14 34t14 34t34 14t34 -14t14 -34t-14 -34
t-34 -14z" />
    <glyph glyph-name="yacute" unicode="&#xfd;" horiz-adv-x="519" 
d="M360 435v32q65 -5 77 -5q11 0 69 5q0 -40 -24 -101.5t-61 -137.5t-50 -110q-6 -16 -19.5 -51.5t-20.5 -53.5t-20 -50.5t-22 -50.5t-24 -44t-27 -41t-29.5 -32.5t-34 -26.5t-37.5 -15.5t-43 -6.5q-20 0 -45 7q-7 40 -32 131l35 10q6 -16 10.5 -24t13 -20.5t21 -18
t29.5 -5.5q19 0 36.5 10.5t29 23t25.5 38t20.5 40t19.5 44.5q-25 0 -36 7t-20 32l-116 316q-13 34 -20 50t-22.5 32t-35.5 16v32q98 -5 117 -5q18 0 108 5v-32q-44 -4 -44 -32q0 -27 11 -55l96 -272l101 258q15 39 15 62q0 37 -51 39zM242 554l53 104h111l17 -24l-145 -80
h-36z" />
    <glyph glyph-name="thorn" unicode="&#xfe;" horiz-adv-x="574" 
d="M39 -254v32q24 9 32 35t8 82v585q0 64 -11.5 87t-44.5 28v32q33 2 61 11t43.5 18.5t39.5 27.5h30q-10 -87 -10 -156v-138q13 16 17.5 20.5t22.5 21.5t32.5 25t38 15.5t47.5 7.5q84 0 138.5 -65t54.5 -175q0 -108 -59 -183t-155 -75q-36 0 -64.5 11t-40.5 20.5t-32 29.5
v-148q0 -21 2 -33t9.5 -24t24.5 -18.5t44 -7.5v-32q-107 -11 -228 -34zM187 209q0 -167 115 -167q58 0 90 55t32 145q0 75 -30.5 116.5t-83.5 41.5q-123 0 -123 -191z" />
    <glyph glyph-name="ydieresis" unicode="&#xff;" horiz-adv-x="519" 
d="M360 435v32q65 -5 77 -5q11 0 69 5q0 -40 -24 -101.5t-61 -137.5t-50 -110q-6 -16 -19.5 -51.5t-20.5 -53.5t-20 -50.5t-22 -50.5t-24 -44t-27 -41t-29.5 -32.5t-34 -26.5t-37.5 -15.5t-43 -6.5q-20 0 -45 7q-7 40 -32 131l35 10q6 -16 10.5 -24t13 -20.5t21 -18
t29.5 -5.5q19 0 36.5 10.5t29 23t25.5 38t20.5 40t19.5 44.5q-25 0 -36 7t-20 32l-116 316q-13 34 -20 50t-22.5 32t-35.5 16v32q98 -5 117 -5q18 0 108 5v-32q-44 -4 -44 -32q0 -27 11 -55l96 -272l101 258q15 39 15 62q0 37 -51 39zM198 558q-20 0 -34 14t-14 34t14 34
t34 14t34 -14t14 -34t-14 -34t-34 -14zM352 558q-20 0 -34 14t-14 34t14 34t34 14t34 -14t14 -34t-14 -34t-34 -14z" />
    <glyph glyph-name="dotlessi" unicode="&#x131;" horiz-adv-x="296" 
d="M44 -5v32q19 2 31 10.5t17 26t6.5 35.5t1.5 51v117q0 66 -11.5 89.5t-44.5 28.5v32q33 2 61 12t43.5 20.5t39.5 30.5h30q-10 -84 -10 -213v-117q0 -33 1.5 -51t6.5 -35.5t17 -26t31 -10.5v-32q-95 5 -110 5t-110 -5z" />
    <glyph glyph-name="Lslash" unicode="&#x141;" horiz-adv-x="537" 
d="M43 -5v32q39 5 49.5 31t10.5 92v65l-67 -38l-30 54l97 55v186q0 66 -10.5 92t-49.5 31v32q100 -5 117 -5t117 5v-32q-39 -5 -49.5 -31t-10.5 -92v-119l133 78l31 -54l-164 -95v-220h133q39 0 67 7.5t45 23.5t25.5 31t18.5 39l31 -7q-18 -83 -34 -170l-32 3q-5 11 -48 11
h-263q-17 0 -117 -5z" />
    <glyph glyph-name="lslash" unicode="&#x142;" horiz-adv-x="352" 
d="M64 -5v32q19 2 31 10.5t17 26t6.5 35.5t1.5 51v105l-64 -53l-36 43l100 84v148q0 66 -11.5 89.5t-44.5 28.5v32q33 2 61 11t43.5 18.5t39.5 27.5h30q-10 -81 -10 -207v-57l64 54l37 -43l-101 -85v-196q0 -33 1.5 -51t6.5 -35.5t17 -26t31 -10.5v-32q-95 5 -110 5t-110 -5
z" />
    <glyph glyph-name="OE" unicode="&#x152;" horiz-adv-x="981" 
d="M847 0h-286q-31 0 -89 -9q-72 -9 -101 -9q-142 0 -233.5 96.5t-91.5 232.5t91.5 232.5t233.5 96.5q43 0 101 -9q72 -9 89 -9h221q47 0 64 3t31 12h26q0 -35 14 -154l-30 -5q-20 50 -58 66t-120 16h-91v-196h117q46 0 65.5 13t31.5 47h32q-5 -72 -5 -93q0 -17 5 -89h-32
q-14 37 -30 48.5t-67 11.5h-117v-178q0 -39 12 -50.5t56 -11.5h71q55 0 89 12.5t51 33.5t29 59l32 -4q-17 -106 -17 -178h-25q-6 9 -21 12q-17 3 -48 3zM504 124v374q0 43 -27.5 61.5t-105.5 18.5q-92 0 -147.5 -76t-55.5 -191t55.5 -191t147.5 -76q78 0 105.5 19t27.5 61z
" />
    <glyph glyph-name="oe" unicode="&#x153;" horiz-adv-x="870" 
d="M791 135l34 -27q-79 -126 -205 -126q-53 0 -98.5 19.5t-69.5 54.5q-64 -74 -175 -74q-102 0 -169.5 68t-67.5 181t67.5 181t169.5 68q63 0 104 -19.5t76 -57.5q30 35 65.5 56t93.5 21q53 0 93 -18.5t61.5 -48.5t31.5 -54.5t15 -49.5t19 -42l-16 -30q-66 6 -167 6
q-98 0 -145 -6q0 -33 7 -62.5t22 -57.5t44 -44.5t68 -16.5q11 0 21.5 1.5t19 4t18 7t16.5 8.5t15.5 10t13 10t12 11t10 9.5t9 9.5t7.5 8zM154 231q0 -87 31.5 -138t91.5 -51t91.5 51t31.5 138t-31.5 138t-91.5 51t-91.5 -51t-31.5 -138zM508 297h195q0 50 -20.5 86.5
t-69.5 36.5q-33 0 -55.5 -15t-32 -38t-13 -39t-4.5 -31z" />
    <glyph glyph-name="Scaron" unicode="&#x160;" horiz-adv-x="500" 
d="M76 -14l-33 -4q-5 87 -20 187l39 7q8 -25 17 -44t27 -41t48.5 -34.5t70.5 -12.5q62 0 97.5 28.5t35.5 80.5q0 36 -24 61t-59.5 36.5t-77 26.5t-77 32t-59.5 53.5t-24 89.5q0 82 58 135t152 53q51 0 83 -9q7 -2 16 -4t14.5 -3.5t10.5 -1.5q17 0 23 14l33 4
q14 -114 24 -163l-39 -7q-14 40 -51 74t-102 34q-49 0 -81.5 -27.5t-32.5 -72.5q0 -35 24 -58t59.5 -34t77 -26t77 -32.5t59.5 -54.5t24 -91q0 -92 -62.5 -146t-170.5 -54q-26 0 -80 9q-43 9 -55 9q-5 0 -8.5 -1.5t-5.5 -3.5t-4.5 -5t-3.5 -4zM215 714l-96 104h50l91 -50
l91 50h50l-96 -104h-90z" />
    <glyph glyph-name="scaron" unicode="&#x161;" horiz-adv-x="426" 
d="M381 343l-37 -5l-5 9q-5 9 -7.5 13t-9 13t-12 14t-14.5 12.5t-18.5 11t-22 6.5t-26.5 3q-35 0 -56.5 -16.5t-21.5 -44.5q0 -31 25 -48.5t61 -26.5t72.5 -21.5t61.5 -43.5t25 -81q0 -70 -50 -113t-134 -43q-32 0 -66 9q-36 8 -49 8q-7 0 -17 -10l-31 -4q-5 87 -16 153
l36 6q6 -17 7.5 -21.5t9.5 -21t16 -23.5t22 -17.5t33.5 -14.5t43.5 -4q39 0 63 19.5t24 50.5q0 28 -25 44.5t-61 26.5t-72.5 23t-61.5 43t-25 78q0 67 48.5 110t126.5 43q38 0 61 -7q30 -7 31 -7q14 0 17 10l30 3q7 -63 24 -136zM178 554l-96 104h50l91 -50l91 50h50
l-96 -104h-90z" />
    <glyph glyph-name="Ydieresis" unicode="&#x178;" horiz-adv-x="630" 
d="M210 -5v32q39 5 49.5 31t10.5 92v121l-136 212q-45 69 -65 87.5t-56 24.5v32q125 -5 149 -5q23 0 135 5v-32q-65 -2 -65 -36q0 -22 31 -70l99 -154l94 147q28 43 28 76q0 34 -60 37v32q80 -5 96 -5q14 0 74 5q0 -45 -13.5 -75.5t-48.5 -78.5l-148 -202v-121
q0 -66 10.5 -92t49.5 -31v-32q-100 5 -117 5t-117 -5zM258 718q-20 0 -34 14t-14 34t14 34t34 14t34 -14t14 -34t-14 -34t-34 -14zM412 718q-20 0 -34 14t-14 34t14 34t34 14t34 -14t14 -34t-14 -34t-34 -14z" />
    <glyph glyph-name="Zcaron" unicode="&#x17d;" horiz-adv-x="537" 
d="M19 -5v32q17 14 48 63l291 470h-81q-101 0 -143 -20.5t-69 -70.5l-32 11q26 67 49 156l26 -3q4 -11 69 -11h235q37 0 89 5v-32l-331 -533h84q80 0 118.5 9t59.5 29t50 70l31 -16q-41 -102 -58 -157q-49 -7 -88 -7q-20 0 -117 5q-65 5 -107 5q-56 0 -124 -5zM234 714
l-96 104h50l91 -50l91 50h50l-96 -104h-90z" />
    <glyph glyph-name="zcaron" unicode="&#x17e;" horiz-adv-x="444" 
d="M20 -5v32q23 23 83 115l171 266q-116 -5 -145 -15q-41 -13 -63 -62q0 -1 -1 -3l-35 9q31 92 40 143l34 -6q8 -12 76 -12q132 0 232 5v-32l-242 -375q32 -6 68 -6q53 0 82.5 11t42.5 29t28 57l34 -7q-20 -63 -36 -144q-40 -5 -73 -5q-28 0 -86.5 2.5t-89.5 2.5
q-20 0 -120 -5zM187 554l-96 104h50l91 -50l91 50h50l-96 -104h-90z" />
    <glyph glyph-name="florin" unicode="&#x192;" 
d="M276 345l-61 -282q-7 -30 -11 -47.5t-13 -50.5t-17.5 -54.5t-23 -52t-29 -50.5t-36 -42.5t-45 -35.5t-54 -21.5t-65.5 -8.5q-34 0 -55 13t-21 35q0 12 8.5 28.5t27 45.5t28.5 46l28 -14q-17 -36 -17 -49q0 -21 12 -33t34 -12q72 0 138 301l61 284h-77l43 50l47 10
q8 36 13.5 57t22 59.5t35.5 60.5t53.5 40t77.5 18q32 0 55 -5q4 -1 16 -3t17 -2q6 0 16 1.5t12 1.5l19 -23q-42 -72 -59 -118h-36q10 28 10 44q0 21 -12.5 32.5t-31.5 11.5q-58 0 -82 -109l-15 -66h45q50 0 72 18h38q-33 -48 -54 -63t-73 -15h-41z" />
    <glyph glyph-name="circumflex" unicode="&#x2c6;" horiz-adv-x="360" 
d="M39 554l96 104h90l96 -104h-50l-91 50l-91 -50h-50z" />
    <glyph glyph-name="caron" unicode="&#x2c7;" horiz-adv-x="360" 
d="M145 554l-96 104h50l91 -50l91 50h50l-96 -104h-90z" />
    <glyph glyph-name="uni02C9" unicode="&#x2c9;" horiz-adv-x="360" 
d="M55 573v66h250v-66h-250z" />
    <glyph glyph-name="breve" unicode="&#x2d8;" horiz-adv-x="360" 
d="M262 658h44q-1 -13 -7.5 -28t-19 -33.5t-38.5 -30.5t-61 -12q-36 0 -62 11.5t-39 29t-18.5 33t-6.5 30.5h44q5 -13 9.5 -21t24 -18.5t48.5 -10.5q56 0 82 50z" />
    <glyph glyph-name="dotaccent" unicode="&#x2d9;" horiz-adv-x="360" 
d="M180 547q-25 0 -42 17t-17 42t17 42t42 17t42 -17t17 -42t-17 -42t-42 -17z" />
    <glyph glyph-name="ring" unicode="&#x2da;" horiz-adv-x="360" 
d="M180 520q-39 0 -66 27t-27 66t27 66t66 27t66 -27t27 -66t-27 -66t-66 -27zM141 613q0 -17 11.5 -28t27.5 -11t27.5 11t11.5 28t-11.5 28t-27.5 11t-27.5 -11t-11.5 -28z" />
    <glyph glyph-name="ogonek" unicode="&#x2db;" horiz-adv-x="360" 
d="M261 -53l39 -10q-11 -37 -39.5 -68t-80.5 -31q-36 0 -61.5 21.5t-25.5 53.5q0 19 9.5 36t30.5 33.5t32.5 24t37.5 22.5h27q-20 -19 -29 -28t-21 -30.5t-12 -40.5q0 -15 10.5 -23.5t25.5 -8.5q4 0 8 1t7 1.5t6.5 3t5.5 3.5t5.5 5t5 5.5t5 6.5t4.5 7t5 8t5 8z" />
    <glyph glyph-name="tilde" unicode="&#x2dc;" horiz-adv-x="360" 
d="M59 560h-40q32 44 54 84q23 6 46 6q30 0 74 -8q46 -8 62 -8q29 0 46 18h40q-21 -28 -50 -84q-24 -6 -51 -6q-25 0 -69.5 8t-69.5 8q-26 0 -42 -18z" />
    <glyph glyph-name="hungarumlaut" unicode="&#x2dd;" horiz-adv-x="360" 
d="M70 554l53 104h111l17 -24l-145 -80h-36zM253 554l53 104h111l17 -24l-145 -80h-36z" />
    <glyph glyph-name="uni03A9" unicode="&#x3a9;" horiz-adv-x="727" 
d="M693 146l-26 -146h-243l-8 20q3 5 27.5 48t34.5 65t27.5 62.5t24.5 78t7 75.5q0 135 -49.5 198.5t-125.5 63.5q-79 0 -126 -63t-47 -203q0 -45 9.5 -88t33 -92.5t35 -70.5t41.5 -73l-8 -21h-243l-24 146l28 1q15 -43 30.5 -56t46.5 -13h99q-33 24 -55.5 44.5t-51.5 55.5
t-44.5 79t-15.5 95q0 131 83.5 211t211.5 80q129 0 210 -76.5t81 -206.5q0 -45 -15 -87t-43.5 -78.5t-52.5 -61t-61 -55.5h107q31 0 44.5 12t29.5 57z" />
    <glyph glyph-name="uni03BC" unicode="&#x3bc;" horiz-adv-x="593" 
d="M474 -18h-30q-29 46 -29 100h-2q-30 -48 -54 -67q-43 -33 -102 -33q-36 0 -77 32q0 -34 9 -112t9 -98q0 -27 -17 -42.5t-42 -15.5q-27 0 -43 15t-16 43q0 13 7 91t7 135q0 179 -4 237q0 66 -11.5 89.5t-44.5 28.5v32q33 2 61 12t43.5 20.5t39.5 30.5h30q-10 -84 -10 -213
v-82q0 -61 18.5 -92t64.5 -31q55 0 84.5 39.5t29.5 97.5v71q0 64 -11.5 87t-44.5 28v32q33 2 61 12t43.5 20.5t39.5 30.5h30q-10 -83 -10 -210v-80q0 -58 14.5 -82.5t60.5 -30.5v-32q-59 -15 -104 -63z" />
    <glyph glyph-name="pi" unicode="&#x3c0;" horiz-adv-x="564" 
d="M512 445l26 -8q-11 -67 -36 -98q-20 -5 -65 -5q-6 -60 -4 -200q0 -82 41 -82q21 0 45 24l13 -23q-18 -30 -48 -47t-61 -17q-93 0 -93 121q0 88 10 226q-114 2 -141 2v-14q0 -74 -7.5 -135.5t-19 -98t-21 -57t-16.5 -28.5q-36 -15 -61 -16l-7 18q47 60 68.5 154t21.5 178
q-42 1 -67 -8.5t-58 -31.5l-15 25q2 2 10 12t10.5 13t11 12t13 12.5t14 11t16.5 11t18.5 8.5t22.5 7t25 3.5t29 1.5q35 0 127 -1.5t140 -1.5q22 0 34.5 6.5t23.5 25.5z" />
    <glyph glyph-name="endash" unicode="&#x2013;" 
d="M40 171l50 99h334q30 0 39.5 4t20.5 21h32l-50 -99h-334q-30 0 -39.5 -4t-20.5 -21h-32z" />
    <glyph glyph-name="emdash" unicode="&#x2014;" horiz-adv-x="963" 
d="M40 171l50 99h741q30 0 39.5 4t20.5 21h32l-50 -99h-741q-30 0 -39.5 -4t-20.5 -21h-32z" />
    <glyph glyph-name="quoteleft" unicode="&#x2018;" horiz-adv-x="296" 
d="M204 640l20 -28q-42 -25 -63.5 -50t-24.5 -62q12 4 27 4q24 0 40.5 -17.5t16.5 -41.5q0 -27 -19 -45t-48 -18q-34 0 -57.5 26t-23.5 61q0 33 15 63.5t38.5 52t42.5 34.5t36 21z" />
    <glyph glyph-name="quoteright" unicode="&#x2019;" horiz-adv-x="296" 
d="M92 382l-20 28q42 25 63.5 50t24.5 62q-12 -4 -27 -4q-24 0 -40.5 17.5t-16.5 41.5q0 27 19 45t48 18q34 0 57.5 -26t23.5 -61q0 -33 -15 -63.5t-38.5 -52t-42.5 -34.5t-36 -21z" />
    <glyph glyph-name="quotesinglbase" unicode="&#x201a;" horiz-adv-x="296" 
d="M92 -146l-20 28q42 25 63.5 50t24.5 62l-13 -3q-5 -1 -14 -1q-24 0 -40.5 17.5t-16.5 41.5q0 27 19 45t48 18q34 0 57.5 -26t23.5 -61q0 -33 -15 -63.5t-38.5 -52t-42.5 -34.5t-36 -21z" />
    <glyph glyph-name="quotedblleft" unicode="&#x201c;" horiz-adv-x="500" 
d="M204 640l20 -28q-42 -25 -63.5 -50t-24.5 -62q12 4 27 4q24 0 40.5 -17.5t16.5 -41.5q0 -27 -19 -45t-48 -18q-34 0 -57.5 26t-23.5 61q0 33 15 63.5t38.5 52t42.5 34.5t36 21zM408 640l20 -28q-42 -25 -63.5 -50t-24.5 -62q12 4 27 4q24 0 40.5 -17.5t16.5 -41.5
q0 -27 -19 -45t-48 -18q-34 0 -57.5 26t-23.5 61q0 33 15 63.5t38.5 52t42.5 34.5t36 21z" />
    <glyph glyph-name="quotedblright" unicode="&#x201d;" horiz-adv-x="500" 
d="M92 382l-20 28q42 25 63.5 50t24.5 62q-12 -4 -27 -4q-24 0 -40.5 17.5t-16.5 41.5q0 27 19 45t48 18q34 0 57.5 -26t23.5 -61q0 -33 -15 -63.5t-38.5 -52t-42.5 -34.5t-36 -21zM296 382l-20 28q42 25 63.5 50t24.5 62q-12 -4 -27 -4q-24 0 -40.5 17.5t-16.5 41.5
q0 27 19 45t48 18q34 0 57.5 -26t23.5 -61q0 -33 -15 -63.5t-38.5 -52t-42.5 -34.5t-36 -21z" />
    <glyph glyph-name="quotedblbase" unicode="&#x201e;" horiz-adv-x="500" 
d="M92 -146l-20 28q42 25 63.5 50t24.5 62l-13 -3q-5 -1 -14 -1q-24 0 -40.5 17.5t-16.5 41.5q0 27 19 45t48 18q34 0 57.5 -26t23.5 -61q0 -33 -15 -63.5t-38.5 -52t-42.5 -34.5t-36 -21zM296 -146l-20 28q42 25 63.5 50t24.5 62l-13 -3q-5 -1 -14 -1q-24 0 -40.5 17.5
t-16.5 41.5q0 27 19 45t48 18q34 0 57.5 -26t23.5 -61q0 -33 -15 -63.5t-38.5 -52t-42.5 -34.5t-36 -21z" />
    <glyph glyph-name="dagger" unicode="&#x2020;" 
d="M308 -283h-60q0 196 -8 306t-30 209q38 34 38 104q-79 0 -109.5 -9t-52.5 -43h-33q0 11 2.5 37.5t2.5 41.5q0 14 -5 79h32q23 -33 54 -42.5t109 -9.5q0 94 -11 144t-49 61v32q75 -5 90 -5q20 0 90 5v-32q-37 -12 -48.5 -63t-11.5 -142q78 0 109 9.5t54 42.5h32
q-5 -65 -5 -79q0 -15 2.5 -41.5t2.5 -37.5h-33q-22 34 -52.5 43t-109.5 9q0 -39 7.5 -63t30.5 -41q-38 -199 -38 -515z" />
    <glyph glyph-name="daggerdbl" unicode="&#x2021;" 
d="M308 -283h-60q0 165 -8 258t-30 177q28 50 38 93q-79 0 -109.5 -9t-52.5 -43h-33q5 38 5 66q0 26 -5 58q130 -18 195 -18v91q-108 0 -195 -18q5 33 5 60q0 29 -5 64h32q23 -33 54 -42.5t109 -9.5q0 33 -1.5 53t-7 43.5t-18.5 37t-33 17.5v32q75 -5 90 -5q20 0 90 5v-32
q-37 -9 -48.5 -47t-11.5 -104q78 0 109 9.5t54 42.5h32q-5 -52 -5 -64t5 -60q-87 18 -195 18v-91q63 0 195 18q-5 -52 -5 -58t5 -66h-33q-22 34 -52.5 43t-109.5 9q12 -50 38 -93q-38 -170 -38 -435z" />
    <glyph glyph-name="bullet" unicode="&#x2022;" 
d="M278 130q-75 0 -128 53t-53 128t53 128t128 53t128 -53t53 -128t-53 -128t-128 -53z" />
    <glyph glyph-name="ellipsis" unicode="&#x2026;" horiz-adv-x="963" 
d="M161 0q-26 0 -45 19t-19 45t19 45t45 19t45 -19t19 -45t-19 -45t-45 -19zM481 0q-26 0 -45 19t-19 45t19 45t45 19t45 -19t19 -45t-19 -45t-45 -19zM801 0q-26 0 -45 19t-19 45t19 45t45 19t45 -19t19 -45t-19 -45t-45 -19z" />
    <glyph glyph-name="perthousand" unicode="&#x2030;" horiz-adv-x="1130" 
d="M558 622h59l-390 -622h-75l332 527l-2 2q-26 -18 -65 -18q-44 0 -83 32l-2 -2q18 -38 18 -81q0 -78 -43 -129t-113 -51t-113 51t-43 129t43 129t113 51q42 0 112 -34q70 -35 115 -35q20 0 38.5 4t35 11t26.5 12.5t22.5 14t14.5 9.5zM524 180q0 -55 15 -91.5t43 -36.5
t43 36.5t15 91.5t-15 91.5t-43 36.5t-43 -36.5t-15 -91.5zM136 460q0 -55 15 -91.5t43 -36.5t43 36.5t15 91.5t-15 91.5t-43 36.5t-43 -36.5t-15 -91.5zM582 0q-70 0 -113 51t-43 129t43 129t113 51t113 -51t43 -129t-43 -129t-113 -51zM936 0q-70 0 -113 51t-43 129t43 129
t113 51t113 -51t43 -129t-43 -129t-113 -51zM878 180q0 -54 15 -91t43 -37t43 37t15 91t-15 91t-43 37t-43 -37t-15 -91z" />
    <glyph glyph-name="guilsinglleft" unicode="&#x2039;" horiz-adv-x="259" 
d="M220 48h-42q-22 42 -35.5 63.5t-40 47.5t-63.5 45v48q37 19 63.5 45t40 47.5t35.5 63.5h42l-73 -180z" />
    <glyph glyph-name="guilsinglright" unicode="&#x203a;" horiz-adv-x="259" 
d="M39 48l73 180l-73 180h42q22 -42 35.5 -63.5t40 -47.5t63.5 -45v-48q-37 -19 -63.5 -45t-40 -47.5t-35.5 -63.5h-42z" />
    <glyph glyph-name="fraction" unicode="&#x2044;" horiz-adv-x="259" 
d="M-73 0l330 622h75l-330 -622h-75z" />
    <glyph glyph-name="Euro" unicode="&#x20ac;" 
d="M538 119q-56 -137 -197 -137q-89 0 -152.5 66.5t-81.5 177.5h-78l12 54h61q0 4 -0.5 11.5t-0.5 11.5q0 15 2 43h-74l12 54h70q22 109 86 174.5t157 65.5q34 0 64 -12l30 -12q14 0 24 16h27q7 -77 27 -164l-36 -10q-38 120 -127 120q-59 0 -94.5 -51t-43.5 -127h204
l-12 -54h-197q-1 -12 -1 -36q0 -5 0.5 -15t0.5 -15h183l-12 -54h-166q8 -72 44.5 -121t103.5 -49q85 0 133 90z" />
    <glyph glyph-name="afii61289" unicode="&#x2113;" horiz-adv-x="417" 
d="M379 117l21 -19q-64 -114 -173 -114q-68 0 -104 36q-36 44 -36 139v64l-58 -40l-12 27l70 51v122q0 107 10.5 156.5t41.5 85.5q41 51 97 51q47 0 71.5 -36.5t24.5 -90.5q0 -76 -36.5 -138.5t-109.5 -130.5v-76q0 -87 20.5 -123t64.5 -36q57 0 108 72zM186 437v-109
q86 100 86 219q0 43 -11 70t-32 27q-26 0 -34.5 -44t-8.5 -163z" />
    <glyph glyph-name="trademark" unicode="&#x2122;" horiz-adv-x="611" 
d="M44 348v19q33 2 42.5 9.5t9.5 35.5v191q-36 -8 -49.5 -23.5t-26.5 -50.5l-3 -9h-17l6 102h232l6 -102h-17q-2 5 -6.5 17.5t-6 16t-5.5 12t-7 11.5t-8 8.5t-11.5 8t-15 5t-19.5 4.5v-191q0 -28 9.5 -35.5t42.5 -9.5v-19h-156zM259 348v19q16 3 21 4.5t12 6t9 12.5t2 22
v156q0 21 -6 27.5t-28 7.5v19h100l55 -182h2l63 182h106v-19q-25 -1 -32.5 -7.5t-7.5 -27.5v-156q0 -29 7.5 -35.5t32.5 -9.5v-19h-138v19q27 3 36.5 10.5t9.5 34.5v180h-2l-84 -244h-16l-73 244h-2v-180q0 -27 7 -34t28 -11v-19h-102z" />
    <glyph glyph-name="Omega" unicode="&#x2126;" horiz-adv-x="727" 
d="M693 146l-26 -146h-243l-8 20q3 5 27.5 48t34.5 65t27.5 62.5t24.5 78t7 75.5q0 135 -49.5 198.5t-125.5 63.5q-79 0 -126 -63t-47 -203q0 -45 9.5 -88t33 -92.5t35 -70.5t41.5 -73l-8 -21h-243l-24 146l28 1q15 -43 30.5 -56t46.5 -13h99q-33 24 -55.5 44.5t-51.5 55.5
t-44.5 79t-15.5 95q0 131 83.5 211t211.5 80q129 0 210 -76.5t81 -206.5q0 -45 -15 -87t-43.5 -78.5t-52.5 -61t-61 -55.5h107q31 0 44.5 12t29.5 57z" />
    <glyph glyph-name="estimated" unicode="&#x212e;" horiz-adv-x="792" 
d="M761 301h-591q-5 0 -5 -4v-178q0 -11 8 -21q94 -97 223 -97q69 0 130 29t105 80h53q-50 -59 -126 -93t-163 -34q-151 0 -257.5 95.5t-106.5 231.5t106.5 232.5t257.5 96.5q152 0 259 -96.5t107 -232.5v-9zM626 325v179q0 12 -8 22q-96 93 -222 93q-127 0 -223 -96
q-8 -10 -8 -22v-176q0 -6 5 -6h453q3 0 3 6z" />
    <glyph glyph-name="partialdiff" unicode="&#x2202;" horiz-adv-x="531" 
d="M259 396h1q35 0 70.5 -16.5t56.5 -46.5q8 59 9 100q4 83 -25 143q-15 33 -46.5 55.5t-69.5 22.5q-66 0 -140 -61q-14 -1 -28.5 26t-6.5 45q66 39 142 39q133 0 210 -132q50 -90 50 -215q0 -139 -48 -231q-71 -142 -209 -142q-84 0 -134 51t-50 138q0 90 59 155
q62 69 159 69zM285 354q-62 0 -99 -53q-43 -67 -43 -176q0 -49 22 -79t62 -30q61 0 104 95q32 68 48 180q-11 23 -36.5 43t-57.5 20z" />
    <glyph glyph-name="Delta" unicode="&#x2206;" horiz-adv-x="633" 
d="M598 0h-564v28l254 603l47 12l263 -615v-28zM469 51l-190 457l-185 -457h375z" />
    <glyph glyph-name="product" unicode="&#x220f;" horiz-adv-x="687" 
d="M660 640v-28q-62 -4 -75.5 -16t-13.5 -58v-505q0 -51 14 -64.5t74 -17.5v-29h-271v29q56 4 67.5 16t11.5 66v539q0 21 -6.5 26.5t-28.5 5.5h-180q-21 0 -26.5 -5t-5.5 -24v-542q0 -53 9.5 -65.5t61.5 -16.5v-29h-263v29q59 5 73 17.5t14 64.5v505q0 47 -13.5 58.5
t-76.5 15.5v28h635z" />
    <glyph glyph-name="summation" unicode="&#x2211;" horiz-adv-x="550" 
d="M527 110l-44 -193h-457v28l214 306l-209 361v28h451q2 -37 12 -161l-29 -6q-13 65 -35 100q-11 19 -30 26t-71 7h-170l171 -289l-216 -314h245q65 0 86 16.5t53 98.5z" />
    <glyph glyph-name="minus" unicode="&#x2212;" horiz-adv-x="963" 
d="M239 206v70h484v-70h-484z" />
    <glyph glyph-name="uni2215" unicode="&#x2215;" horiz-adv-x="259" 
d="M-73 0l330 622h75l-330 -622h-75z" />
    <glyph glyph-name="uni2219" unicode="&#x2219;" 
d="M278 241q-29 0 -49.5 20.5t-20.5 49.5t20.5 49.5t49.5 20.5t49.5 -20.5t20.5 -49.5t-20.5 -49.5t-49.5 -20.5z" />
    <glyph glyph-name="radical" unicode="&#x221a;" horiz-adv-x="539" 
d="M526 810l-164 -950l-25 -12l-209 504l-85 -41l-12 35l165 76l154 -387h2l132 784z" />
    <glyph glyph-name="infinity" unicode="&#x221e;" horiz-adv-x="722" 
d="M677 263v-1q0 -71 -44 -114.5t-104 -43.5q-83 0 -167 107q-44 -52 -83 -79.5t-90 -27.5q-59 0 -102 43.5t-43 109.5q0 69 43.5 113t109.5 44q85 0 169 -105q31 35 45.5 50.5t50 35t73.5 19.5q62 -1 102 -42.5t40 -108.5zM197 164h1q25 0 51.5 16.5t40 30.5t38.5 44
q-21 28 -29.5 38t-27.5 29t-37.5 26t-40.5 7q-39 0 -62.5 -28t-23.5 -70q-1 -39 25 -66t65 -27zM528 355h-1q-14 0 -28 -5.5t-24 -11t-24 -18.5t-20 -19.5t-19.5 -22.5t-15.5 -18q46 -54 74 -75t61 -21q38 0 61 29t23 64q0 44 -24.5 71t-62.5 27z" />
    <glyph glyph-name="integral" unicode="&#x222b;" horiz-adv-x="374" 
d="M155 2l-19 372q-5 95 2.5 168t22.5 116t38 70t45.5 36.5t48.5 9.5q23 0 43.5 -13t20.5 -35q0 -23 -14 -36t-34 -13q-19 0 -31 26t-21 26q-40 0 -33 -148l18 -349q11 -227 -35 -325t-125 -98q-28 0 -46.5 15t-18.5 36q-1 21 17 36t40 15q15 0 27 -28t21 -28q41 0 33 147z
" />
    <glyph glyph-name="approxequal" unicode="&#x2248;" horiz-adv-x="526" 
d="M446 409l41 -38q-53 -92 -128 -92q-43 0 -108 37q-50 31 -82 31q-20 0 -38 -10.5t-28.5 -22.5t-26.5 -34l-41 38q22 41 59.5 66.5t79.5 25.5q8 0 16.5 -1t14.5 -2t14.5 -4t12 -4.5t12.5 -6t10.5 -5.5t11.5 -7l9 -5q54 -32 83 -32q45 0 88 66zM446 240l41 -38
q-53 -92 -129 -92q-41 0 -107 37q-54 31 -82 31q-21 0 -39 -11t-28 -22.5t-26 -34.5l-41 38q22 41 59.5 66.5t79.5 25.5q11 0 21.5 -1.5t18.5 -4t18 -6.5t14.5 -6.5t14.5 -8t13 -6.5q4 -3 13.5 -8.5t14 -8t12.5 -6.5t14 -6t14 -3.5t16 -1.5q26 0 45.5 16t42.5 51z" />
    <glyph glyph-name="notequal" unicode="&#x2260;" horiz-adv-x="526" 
d="M383 467l-38 -83h134v-64h-159l-57 -126h216v-64h-242l-49 -107l-50 22l38 85h-130v64h156l57 126h-213v64h238l48 105z" />
    <glyph glyph-name="lessequal" unicode="&#x2264;" horiz-adv-x="526" 
d="M477 94l-427 205v68l427 205v-73l-360 -165v-2l360 -165v-73zM480 -6h-434v65h434v-65z" />
    <glyph glyph-name="greaterequal" unicode="&#x2265;" horiz-adv-x="526" 
d="M51 572l427 -205v-68l-427 -205v73l360 165v2l-360 165v73zM478 -6h-431v65h431v-65z" />
    <glyph glyph-name="lozenge" unicode="&#x25ca;" horiz-adv-x="550" 
d="M505 306l-192 -374h-76l-192 374l193 376h75zM432 306l-155 309h-3l-156 -308l156 -310h3z" />
    </font>
</defs>
</svg>
