<?xml version="1.0" encoding="utf-8"?>
<!-- Generator: Adobe Illustrator 18.1.1, SVG Export Plug-In . SVG Version: 6.00 Build 0)  -->
<svg version="1.1" id="Ebene_1" xmlns="http://www.w3.org/2000/svg" xmlns:xlink="http://www.w3.org/1999/xlink" x="0px" y="0px"
	 width="288" height="130" viewBox="0 0 288 130" style="enable-background:new 0 0 288 130;" xml:space="preserve">
<style type="text/css">
	.st0{fill:#FFFFFF;}
	.st1{fill:#9E834F;}
	.st2{fill:#FF5F00;}
</style>
<rect x="0" class="st0" width="288" height="130"/>
<g>
	<g>
		<path class="st1" d="M11.2,115.1h4.1l3.9,11.3h0l3.8-11.3h3.3l-5.1,14.5h-4l-4-11.6h0l-3.9,11.6H5.2L0,115.1h3.5l3.8,11.3h0
			L11.2,115.1z"/>
		<path class="st1" d="M30.2,115.1h3.3v14.5h-3.3V115.1z"/>
		<path class="st1" d="M51.7,115.1v2.4h-5.5v12.1h-3.3v-12.1h-5.5v-2.4H51.7z"/>
		<path class="st1" d="M55.4,115.1h3.3v5.9h7.9v-5.9h3.3v14.5h-3.3v-6.2h-7.9v6.2h-3.3V115.1z"/>
		<path class="st1" d="M84.1,115.1h8.5c2.9,0,5.4,0.7,5.4,3.7c0,1.8-1.7,3-3.6,3.1v0.1c1.9,0.2,4.3,0.9,4.3,3.7
			c0,1.6-1.1,3.9-5.8,3.9h-8.9V115.1z M87.4,121H92c1.6,0,2.5-0.5,2.5-1.8c0-1.6-1.5-1.9-3.2-1.9h-4V121z M87.4,127.4h4.5
			c2,0,3.4-0.5,3.4-2c0-1.7-1.7-2.1-3.2-2.1h-4.7V127.4z"/>
		<path class="st1" d="M109,115.1h4.1l7.4,14.5h-3.9l-1.7-3.3h-8.4l-1.5,3.3h-3.5L109,115.1z M113.8,124l-3-6.3l-3,6.3H113.8z"/>
		<path class="st1" d="M126.3,125.1c0.2,1.7,1.4,2.8,4,2.8c2.7,0,3.7-1.2,3.7-2.2c0-1-0.7-1.5-2.3-1.7l-3-0.4
			c-3.8-0.5-5.1-2.1-5.1-4.1c0-3.4,3.1-4.7,6.5-4.7c4.2,0,6.5,1.8,6.6,4.7h-3.3c-0.1-1.9-1.4-2.6-3.7-2.6c-1.3,0-2.8,0.7-2.8,2
			c0,1.1,0.8,1.6,2.1,1.8l4.2,0.6c3.5,0.5,4.2,2.5,4.2,4c0,3-2.6,4.8-7.5,4.8c-4.2,0-6.8-1.8-6.8-4.9H126.3z"/>
		<path class="st1" d="M142,115.1h3.3v14.5H142V115.1z"/>
		<path class="st1" d="M162,119.7c-0.1-1.8-2.1-2.6-3.8-2.6c-2,0-4.8,1.2-4.8,5.3c0,4,2.8,5.3,4.8,5.3c2.7,0,3.8-1.4,4-2.6h3.4
			c-0.3,3.9-3.9,5-7.6,5c-4.8,0-7.9-2.5-7.9-7.6c0-4.9,3.1-7.6,8.1-7.6c3.1,0,7.1,1.1,7.2,5H162z"/>
		<path class="st1" d="M179.3,115.1h3.3v14.5h-3.3V115.1z"/>
		<path class="st1" d="M187.9,115.1h4.6l8.2,11.1h0v-11.1h2.9v14.5h-4.4l-8.4-11.3h0v11.3h-2.9V115.1z"/>
		<path class="st1" d="M220.3,119.7c-0.1-1.8-2.1-2.6-3.8-2.6c-2,0-4.8,1.2-4.8,5.3c0,4,2.8,5.3,4.8,5.3c2.7,0,3.8-1.4,4-2.6h3.4
			c-0.3,3.9-3.9,5-7.6,5c-4.8,0-7.9-2.5-7.9-7.6c0-4.9,3.1-7.6,8.1-7.6c3.1,0,7.1,1.1,7.2,5H220.3z"/>
		<path class="st1" d="M236.1,114.7c5.3,0,8.5,2.5,8.5,7.6c0,5.1-3.1,7.6-8.5,7.6s-8.5-2.5-8.5-7.6
			C227.6,117.3,230.7,114.7,236.1,114.7z M236.1,127.6c3.2,0,5.1-1.8,5.1-5.3c0-3.4-1.9-5.3-5.1-5.3c-3.1,0-5.1,1.8-5.1,5.3
			C231,125.8,232.9,127.6,236.1,127.6z"/>
		<path class="st1" d="M254.5,115.1l5.5,11.8l5.4-11.8h5.4v14.5h-3.3v-12.4h0l-5.7,12.4h-4l-5.8-12.4h0v12.4h-2.9v-14.5H254.5z"/>
		<path class="st1" d="M287.5,117.5h-8.2v3.4h7.9v2.4h-7.9v4h8.6v2.4H276v-14.5h11.5V117.5z"/>
	</g>
</g>
<g>
	<path class="st2" d="M0.3,97.8V18h22l10.2,54.3h0.2L43.6,18h21.3v79.8H51.5V36.2h-0.2L38.8,97.8h-13l-12-61.6h-0.2v61.6H0.3z"/>
	<path class="st2" d="M75.1,97.8V18h35.7v12.3h-22v19.7h20.3v12.3H88.8v23.3h22.7v12.3H75.1z"/>
</g>
</svg>
