<?xml version="1.0" encoding="utf-8"?>
<!-- Generator: Adobe Illustrator 18.1.1, SVG Export Plug-In . SVG Version: 6.00 Build 0)  -->
<svg version="1.1" id="Ebene_1" xmlns="http://www.w3.org/2000/svg" xmlns:xlink="http://www.w3.org/1999/xlink" x="0px" y="0px"
	 width="288px" height="130px" viewBox="0 0 288 130" style="enable-background:new 0 0 288 130;" xml:space="preserve">
<rect style="fill:#FFFFFF;" width="288" height="130"/>
<g>
	<g>
		<path style="fill:#FF5F00;" d="M38.2,15.1v10.3h-13v51.8H13.5V25.4h-13V15.1H38.2z"/>
		<path style="fill:#FF5F00;" d="M40.3,46.1c0-16.4,0-32.1,19.3-32.1c19.3,0,19.3,15.7,19.3,32.1c0,16.3,0,32.1-19.3,32.1
			C40.3,78.2,40.3,62.4,40.3,46.1z M67,46.1c0-15.9-0.9-22.8-7.4-22.8s-7.4,6.9-7.4,22.8s0.9,22.8,7.4,22.8S67,62,67,46.1z"/>
		<path style="fill:#FF5F00;" d="M86,77.1V15.1h11.7v62.1H86z"/>
	</g>
</g>
<g>
	<g>
		<path style="fill:#9E834F;" d="M11.5,110.5l5.8,16.6h-3.6l-1.2-3.6H6l-1.2,3.6H1.3l6-16.6H11.5z M11.6,120.9l-2.3-7.1l-2.5,7.1
			H11.6z"/>
		<path style="fill:#9E834F;" d="M21.3,110.6l4.3,13l4.4-13h3.5l-6.1,16.6h-3.9l-6.1-16.6H21.3z"/>
		<path style="fill:#9E834F;" d="M36.5,110.5h11.1v2.7h-7.6v4h7.1v2.7h-7.1v4.5h7.8v2.8H36.5V110.5z"/>
		<path style="fill:#9E834F;" d="M60.6,116c-0.1-0.6-0.3-2.9-2.7-2.9c-2.6,0-3.7,2.8-3.7,6.2c0,1,0,5.7,3.5,5.7c1.5,0,2.9-0.9,3-3.2
			h3.7c-0.1,1-0.2,2.5-1.5,3.9c-1.5,1.5-3.3,1.9-4.9,1.9c-5.7,0-7.6-4.2-7.6-8.3c0-5.3,2.9-8.8,7.6-8.8c3.6,0,6.2,2.2,6.2,5.5H60.6z
			"/>
		<path style="fill:#9E834F;" d="M74.9,110.5h6.4c1.8,0,3.7,0,5,1.1c1,0.9,1.4,2.1,1.4,3.2c0,3.1-2.7,3.8-3.5,4.1
			c2.5,0.2,2.7,1.7,3,3.8c0.3,2,0.4,2.8,0.5,3.2c0.2,0.7,0.3,0.9,0.5,1.2h-3.9c-0.2-0.9-0.7-5.1-0.9-5.8c-0.3-0.9-1.2-0.9-1.8-0.9
			h-3.1v6.7h-3.6V110.5z M78.4,117.8h2.9c0.4,0,1.2,0,1.8-0.5c0.3-0.2,0.9-0.8,0.9-1.9c0-1.1-0.6-1.7-0.9-1.9
			c-0.6-0.4-1.2-0.4-2.3-0.4h-2.4V117.8z"/>
		<path style="fill:#9E834F;" d="M91.6,110.5h11.1v2.7h-7.6v4h7.1v2.7h-7.1v4.5h7.8v2.8H91.6V110.5z"/>
		<path style="fill:#9E834F;" d="M109.3,110.6l4.3,13l4.4-13h3.5l-6.1,16.6h-3.9l-6.1-16.6H109.3z"/>
		<path style="fill:#9E834F;" d="M124.5,110.5h11.1v2.7H128v4h7.1v2.7H128v4.5h7.8v2.8h-11.4V110.5z"/>
		<path style="fill:#9E834F;" d="M139.5,110.5h5.2l6.2,13.1v-13.1h3.3v16.6h-4.9l-6.4-13.8v13.8h-3.4V110.5z"/>
		<path style="fill:#9E834F;" d="M162,110.6v10.1c0,1.8,0.1,4.1,3.6,4.1c0.6,0,2.3,0,3.2-1.4c0.3-0.5,0.5-1.1,0.5-2.8v-9.9h3.5V121
			c0,4.9-3.9,6.5-7.3,6.5c-1.7,0-4.7-0.4-6.3-2.9c-0.8-1.3-0.9-2.6-0.9-4.1v-9.9H162z"/>
		<path style="fill:#9E834F;" d="M184.7,110.6l5.5,0c0.9,0,3.7,0,5.7,1.5c2.1,1.5,2.8,4.2,2.8,6.5c0,5.1-2.7,7.8-5.9,8.3
			c-0.6,0.1-1.3,0.2-3,0.2h-5.2V110.6z M188.3,124.4c0.4,0,1,0,1.4,0c1.5,0,2.8-0.1,3.9-1.1c1.4-1.4,1.5-3.9,1.5-4.7
			c0-2.3-0.8-4.5-3-5.1c-0.7-0.2-1.7-0.3-3.7-0.2V124.4z"/>
		<path style="fill:#9E834F;" d="M202.3,110.5h11.1v2.7h-7.6v4h7.1v2.7h-7.1v4.5h7.8v2.8h-11.4V110.5z"/>
		<path style="fill:#9E834F;" d="M224.8,110.6h6.2c1,0,2.8,0,4.1,0.8c1.5,1,1.9,2.6,1.9,3.5c0,0.6-0.1,1.7-1,2.5
			c-0.1,0.1-0.9,0.9-1.9,1.1v0c2.5,0.5,3.5,2.3,3.5,4c0,2-1.1,3.3-2.4,3.9c-1.3,0.7-3.5,0.7-4.2,0.7h-6.2V110.6z M228.2,117.3h2.5
			c1,0,2.9,0,2.9-2.1c0-2.1-1.7-2.1-2.9-2.1h-2.4V117.3z M228.2,124.5h2.4c1.6,0,3.5,0,3.5-2.2c0-2.4-2.1-2.4-3.8-2.4h-2V124.5z"/>
		<path style="fill:#9E834F;" d="M249.7,110.5l5.8,16.6h-3.6l-1.2-3.6h-6.6l-1.2,3.6h-3.4l6-16.6H249.7z M249.8,120.9l-2.3-7.1
			l-2.5,7.1H249.8z"/>
		<path style="fill:#9E834F;" d="M261.1,121.8c0,0.8,0,3.2,3,3.2c1.9,0,3.2-0.9,3.2-2.3c0-1.5-1-1.7-3.2-2.2c-4-1-6.1-2.2-6.1-5
			c0-2.7,2-5.2,6.6-5.2c1.7,0,3.8,0.4,5,2c0.9,1.2,0.9,2.5,0.9,3.1h-3.4c0-0.6-0.2-2.5-2.7-2.5c-1.7,0-2.7,0.9-2.7,2.3
			c0,1.5,1.2,1.8,3.6,2.4c2.9,0.7,5.7,1.5,5.7,4.7c0,3-2.5,5.4-7.1,5.4c-6.4,0-6.4-4.1-6.4-5.7H261.1z"/>
		<path style="fill:#9E834F;" d="M274.6,110.5h11.1v2.7h-7.6v4h7.1v2.7h-7.1v4.5h7.8v2.8h-11.4V110.5z"/>
	</g>
</g>
</svg>
