<?xml version="1.0" encoding="utf-8"?>
<!-- Generator: Adobe Illustrator 16.0.0, SVG Export Plug-In . SVG Version: 6.00 Build 0)  -->
<!DOCTYPE svg PUBLIC "-//W3C//DTD SVG 1.1//EN" "http://www.w3.org/Graphics/SVG/1.1/DTD/svg11.dtd">
<svg version="1.1" id="Ebene_1" xmlns="http://www.w3.org/2000/svg" xmlns:xlink="http://www.w3.org/1999/xlink" x="0px" y="0px"
	 width="707px" height="112.5px" viewBox="0 0 707 112.5" style="enable-background:new 0 0 707 112.5;" xml:space="preserve">
<g>
	<path style="fill:#C3A777;" d="M23,72.4c0,10-9.8,12.399-15.9,13c-0.8-2.9-1.9-4.9-2.9-7.801L7.3,76.2c0.7,1.8,1.3,3.6,3.4,3.6
		c2.3,0,2.9-1.8,2.9-6.3V44.6c0-4.1-1.1-5-3.9-5.3v-2.8c3,0.1,5.5,0.3,8.5,0.3c2.7,0,5.8-0.2,8.5-0.3v2.8c-2.8,0.3-3.9,1.2-3.9,5.3
		v27.8H23z"/>
	<path style="fill:#C3A777;" d="M27.7,58.5c0-8.2,5.7-13.8,14.4-13.8c8.7,0,14.4,5.6,14.4,13.8s-5.7,13.8-14.4,13.8
		C33.4,72.3,27.7,66.7,27.7,58.5z M42.1,68.3c4.2,0,5.2-5.2,5.2-9.8c0-4.6-0.9-9.8-5.2-9.8c-4.2,0-5.2,5.2-5.2,9.8
		C36.9,63.1,37.9,68.3,42.1,68.3z"/>
	<path style="fill:#C3A777;" d="M80.3,72.3c-0.899-1.1-1.6-3.2-1.699-5.7C76.7,69,74.3,72.3,69,72.3c-6.8,0-8-5.2-8-9.1v-8.3
		c0-3.1-0.899-3.9-3.5-4.3v-2.8c4.101,0,6.8-0.9,9.8-3.2h2.4v17c0,2.9,1.4,4,3.5,4c4.4,0,4.9-4.199,4.9-6.899v-4
		c0-3.1-0.9-4-3.5-4.3v-2.8c4.1,0,6.8-0.9,9.8-3.2H86.8V61c0,3.6,0.601,4.8,3.301,5.4v2.8c-4,0.2-5.301,1.1-7.301,3.2h-2.5V72.3z"/>
	<path style="fill:#C3A777;" d="M92,68.8c2.2-0.399,3.5-1.1,3.5-5.3v-7.3c0-4-0.899-5.2-3.5-5.5v-2.8c4.101,0,6.4-0.9,9.4-3.2h2.399
		l-0.199,5.7l0.1,0.1c1.5-2.6,4-5.8,8.6-5.8c0.601,0,1.2,0.2,1.7,0.4c0.4,2.9,1,5.9,1.601,8.8l-3.101,0.9c-0.7-1.5-1.2-3.2-3.7-3.2
		c-3.199,0-4.6,3.7-4.6,7.5v4.5c0,4.2,1.4,5,4.7,5.301v2.8c-2.9-0.101-6-0.3-9-0.3c-2.7,0-5.2,0.199-7.9,0.3V68.8z"/>
	<path style="fill:#C3A777;" d="M116.601,68.8c2.199-0.399,3.5-1.1,3.5-5.3v-7.3c0-4-0.9-5.2-3.5-5.5v-2.8
		c4.1,0,6.399-0.9,9.399-3.2h2.4l-0.601,5.4c2.9-2.3,6.4-5.4,10.5-5.4c5,0,7.5,3.2,7.5,8.7v10.1c0,4.2,0.9,4.9,3.301,5.3v2.8
		c-1.9-0.1-3.801-0.3-5.7-0.3c-1.8,0-3.7,0.2-5.5,0.3c-0.4-0.899-0.8-2.1-0.8-3.399v-12c0-2.8-0.7-4.9-3.4-4.9c-2,0-3.5,1.3-5.1,2.8
		v9.5c0,4.2,1.3,4.9,3.5,5.301v2.8c-2.601-0.101-5.301-0.3-7.9-0.3c-2.7,0-5.2,0.199-7.9,0.3v-2.9H116.601z"/>
	<path style="fill:#C3A777;" d="M176.7,65c-1.8,2.5-4.8,7.3-13.2,7.3c-7.899,0-13.3-5.3-13.3-13.6c0-8.1,5.7-14,13.4-14
		c11.6,0,12.1,9.1,13.1,10.8c0.2,0.3,0.4,0.5,0.7,0.7l-1.7,2.5c-2.5-0.101-5-0.3-7.5-0.3c-2.9,0-5.9,0.1-8.8,0.3
		c0,3,1.399,8.5,7.3,8.5c3.7,0,5.9-3,7.2-4.4L176.7,65z M167.101,53.9c0-2.1-0.601-5.2-3.301-5.2c-3.199,0-4.199,2.3-4.399,5.2
		H167.101z M164.101,34.3h7l1.399,2.1l-8.899,4.4h-2.9L164.101,34.3z"/>
	<path style="fill:#C3A777;" d="M205.9,65c-1.8,2.5-4.8,7.3-13.2,7.3c-7.9,0-13.3-5.3-13.3-13.6c0-8.1,5.7-14,13.399-14
		c11.601,0,12.101,9.1,13.101,10.8c0.2,0.3,0.399,0.5,0.7,0.7L205,58.7c-2.5-0.101-5-0.3-7.5-0.3c-2.899,0-5.899,0.1-8.8,0.3
		c0,3,1.4,8.5,7.3,8.5c3.7,0,5.9-3,7.2-4.4L205.9,65z M196.3,53.9c0-2.1-0.6-5.2-3.3-5.2c-3.2,0-4.2,2.3-4.399,5.2H196.3z"/>
	<path style="fill:#C3A777;" d="M241.601,72.3c-0.601-2-0.801-3.7-1.101-6.7h-0.1c-1.3,2.4-3.4,6.7-9.101,6.7c-5.8,0-11-4.7-11-13
		c0-8.9,6.2-14.6,12.801-14.6c3.8,0,5.5,1.9,6.199,2.9h0.101v-2.9c0-3.9-0.9-5-3.5-5.4v-2.8c4.1,0,6.8-0.9,9.8-3.2h2.4V61
		c0,3.6,0.699,4.8,3.899,5.4v2.8c-4.3,0.2-5.7,1.1-7.899,3.2h-2.5V72.3z M234.4,66.2c4.399,0,5-5,5-11.5c0-2.4-0.9-5.5-4.4-5.5
		c-4.2,0-5.5,5.2-5.5,9.6C229.601,62.5,230.7,66.2,234.4,66.2z"/>
	<path style="fill:#C3A777;" d="M279.5,65c-1.8,2.5-4.8,7.3-13.2,7.3C258.4,72.3,253,67,253,58.7c0-8.1,5.7-14,13.4-14
		c11.6,0,12.1,9.1,13.1,10.8c0.2,0.3,0.4,0.5,0.7,0.7l-1.6,2.5c-2.5-0.101-5-0.3-7.5-0.3c-2.9,0-5.9,0.1-8.801,0.3
		c0,3,1.4,8.5,7.301,8.5c3.699,0,5.899-3,7.199-4.4L279.5,65z M269.9,53.9c0-2.1-0.601-5.2-3.3-5.2c-3.2,0-4.2,2.3-4.4,5.2H269.9z"
		/>
	<path style="fill:#C3A777;" d="M283.3,72.3c-0.199-3.2-0.8-5.7-1.199-8.5l3.199-0.6c0.601,2.1,2,5,6.2,5c2.5,0,3.9-1.3,3.9-3
		c0-5.3-13-1.7-13-11.8c0-4.5,3.6-8.9,10.8-8.9c1.3,0,2.4,0.2,3.2,0.5c0.8,0.2,1.399,0.5,2,0.5c0.399,0,0.8-0.4,1.1-0.7l2.101-0.3
		c0.399,2.8,0.899,5.3,1.6,8l-3.2,0.4c-0.6-1.9-1.899-4.4-5.3-4.4c-2.5,0-3.6,1.3-3.6,2.8c0,4.8,13.199,1.8,13.199,11.8
		c0,5.301-3.699,9.101-11.6,9.101c-1.4,0-2.5-0.3-3.4-0.5c-0.899-0.3-1.6-0.5-2.1-0.5c-0.6,0-0.9,0.399-1.2,0.7L283.3,72.3z"/>
	<path style="fill:#C3A777;" d="M337,39.1c3.3-1.1,4.4-1.6,7-3.3c1.8,1.1,3.4,2.9,3.4,5.2c0,3.3-2.9,5.2-5.8,6.1
		c1.6,1.1,4.6,2.9,4.6,7.6c0,7.3-7.3,10.3-13.2,10.3c-1.399,0-2.7-0.2-4-0.5c-0.2,0.6-0.5,1.1-0.5,1.6c0,1.4,1.4,1.7,7.9,1.7
		c8.6,0,11.899,3.601,11.899,8c0,7.2-9.3,9.601-16.6,9.601c-7.4,0-13-2.5-13-7.5c0-0.4,0.1-0.9,0.1-1.2c1.4-0.5,2.801-1.2,4.101-1.8
		l2.8,2.399c-0.3,0.4-0.3,0.8-0.3,1.3c0,1.7,2.5,2.9,6.5,2.9c4.2,0,7.5-1.2,7.5-3.2c0-2.1-1.8-2.5-8-2.5c-6.3,0-10.5-2.2-10.5-7.2
		c2.6-2.1,3.2-3,4.5-5.199c-2.3-1.4-5.4-2.9-5.4-8.601c0-5.3,5.2-10,13.2-10c0.7,0,1.4,0.1,2.2,0.1c0.7,0.1,1.399,0.2,2.1,0.2
		c1.8,0,3-0.8,3-1.8c0-0.8-0.5-1.3-1.3-1.3c-0.4,0-1,0.1-1.4,0.2L337,39.1z M333.2,61c2.7,0,3.8-2.7,3.8-5.8c0-3.4-1.1-6.5-4-6.5
		c-2.8,0-3.7,3-3.7,5.8C329.2,58,330.2,61,333.2,61z"/>
	<path style="fill:#C3A777;" d="M349,68.8c2.2-0.399,3.5-1.1,3.5-5.3v-7.3c0-4-0.899-5.2-3.5-5.5v-2.8c4.101,0,6.4-0.9,9.4-3.2
		h2.399l-0.199,5.7l0.1,0.1c1.5-2.6,4-5.8,8.6-5.8c0.601,0,1.2,0.2,1.7,0.4c0.4,2.9,1,5.9,1.601,8.8l-3.101,0.9
		c-0.7-1.5-1.2-3.2-3.7-3.2c-3.199,0-4.6,3.7-4.6,7.5v4.5c0,4.2,1.4,5,4.7,5.301v2.8c-2.9-0.101-6-0.3-9-0.3
		c-2.7,0-5.2,0.199-7.9,0.3V68.8z"/>
	<path style="fill:#C3A777;" d="M403.4,69.2c-2.601,1.3-5.7,3.1-8.3,3.1c-3.7,0-4.101-3.3-4.5-5.399
		C389.5,68.6,387.2,72.3,381.5,72.3c-5.5,0-8.5-3.2-8.5-7.399c0-10.4,16.2-6.9,16.2-12.5c0-1.8-1.2-3.1-4.3-3.1
		c-5.2,0-6.601,3.4-7.7,5.4l-3.2-1.4c1.2-3.3,2.3-5.7,3-9l2.3,0.4c0.101,0.6,0.4,0.8,1.2,0.8c0.3,0,1.5-0.2,3-0.4
		c1.5-0.2,3.3-0.4,4.8-0.4c6.5,0,9.5,2,9.5,7.4v10.8c0,2.899,0.301,4.399,2,4.399c0.9,0,1.801-0.399,2.7-0.6L403.4,69.2z
		 M385.7,59.8c-2.3,0.9-3.9,2.101-3.9,3.9s1.601,3.1,3.2,3.1c3.2,0,4.4-2.8,4.4-5.3v-3L385.7,59.8z"/>
	<path style="fill:#C3A777;" d="M404.3,68.8c2.2-0.399,3.5-1.1,3.5-5.3v-7.3c0-4-0.899-5.2-3.5-5.5v-2.8c4.101,0,6.4-0.9,9.4-3.2
		h2.4l-0.601,5.4c2.9-2.3,6.4-5.4,10.5-5.4c5,0,7.5,3.2,7.5,8.7v10.1c0,4.2,0.9,4.9,3.3,5.3v2.8c-1.899-0.1-3.8-0.3-5.699-0.3
		c-1.801,0-3.7,0.2-5.5,0.3c-0.4-0.899-0.801-2.1-0.801-3.399v-12c0-2.8-0.699-4.9-3.399-4.9c-2,0-3.5,1.3-5.101,2.8v9.5
		c0,4.2,1.301,4.9,3.5,5.301v2.8c-2.6-0.101-5.3-0.3-7.899-0.3c-2.7,0-5.2,0.199-7.9,0.3v-2.9H404.3z"/>
	<path style="fill:#C3A777;" d="M458.9,72.3c-0.601-2-0.8-3.7-1.101-6.7h-0.1c-1.3,2.4-3.4,6.7-9.1,6.7c-5.801,0-11-4.7-11-13
		c0-8.9,6.199-14.6,12.8-14.6c3.8,0,5.5,1.9,6.2,2.9h0.1v-2.9c0-3.9-0.9-5-3.5-5.4v-2.8c4.1,0,6.8-0.9,9.8-3.2h2.4V61
		c0,3.6,0.7,4.8,3.899,5.4v2.8c-4.3,0.2-5.699,1.1-7.899,3.2h-2.5V72.3z M451.601,66.2c4.399,0,5-5,5-11.5c0-2.4-0.9-5.5-4.4-5.5
		c-4.2,0-5.5,5.2-5.5,9.6C446.8,62.5,447.9,66.2,451.601,66.2z"/>
	<path style="fill:#C3A777;" d="M472.101,72.3c-0.2-3.2-0.801-5.7-1.2-8.5l3.2-0.6c0.6,2.1,2,5,6.199,5c2.601,0,3.9-1.3,3.9-3
		c0-5.3-13-1.7-13-11.8c0-4.5,3.6-8.9,10.8-8.9c1.3,0,2.4,0.2,3.2,0.5c0.8,0.2,1.4,0.5,2,0.5c0.4,0,0.8-0.4,1.1-0.7l2.101-0.3
		c0.399,2.8,0.899,5.3,1.6,8l-3.3,0.6c-0.6-1.9-1.9-4.4-5.3-4.4c-2.5,0-3.601,1.3-3.601,2.8c0,4.8,13.2,1.8,13.2,11.8
		c0,5.3-3.7,9.101-11.6,9.101c-1.4,0-2.601-0.301-3.4-0.5c-0.899-0.301-1.6-0.5-2.1-0.5c-0.601,0-0.9,0.399-1.2,0.699L472.101,72.3z
		"/>
	<path style="fill:#C3A777;" d="M519.9,74.9c0,4.199,1,5.3,4.7,5.3V83c-5.9,0.5-10.7,1.3-16.301,2.4V82.6c1.9-0.399,3-1.1,3-5.3V56
		c0-3.9-0.899-5-3.5-5.4v-2.8c4.101,0,6.4-0.9,9.4-3.2h2.4L519,50l0.101,0.1c1.6-2,4.399-5.5,9.1-5.5c5.2,0,10.6,4.8,10.6,12.8
		c0,9.6-5.699,14.899-11.699,14.899c-3.801,0-5.5-1.7-7.301-3.1v5.7H519.9z M525,67.7c3.9,0,4.7-5.9,4.7-9.9c0-3.7-1.1-7.1-4.7-7.1
		c-3.5,0-5.1,3-5.1,9C519.9,64.5,521.4,67.7,525,67.7z"/>
	<path style="fill:#C3A777;" d="M570.8,69.2c-2.6,1.3-5.699,3.1-8.3,3.1c-3.7,0-4.1-3.3-4.5-5.399c-1.1,1.699-3.399,5.399-9.1,5.399
		c-5.5,0-8.5-3.2-8.5-7.399c0-10.4,16.2-6.9,16.2-12.5c0-1.8-1.2-3.1-4.301-3.1c-5.199,0-6.6,3.4-7.6,5.4l-3.2-1.4
		c1.2-3.3,2.3-5.7,3-9l2.3,0.4c0.101,0.6,0.4,0.8,1.2,0.8c0.3,0,1.5-0.2,3-0.4c1.5-0.2,3.3-0.4,4.8-0.4c6.5,0,9.5,2,9.5,7.4v10.8
		c0,2.899,0.301,4.399,2,4.399c0.9,0,1.801-0.399,2.7-0.6L570.8,69.2z M553.101,59.8c-2.301,0.9-3.9,2.101-3.9,3.9s1.6,3.1,3.2,3.1
		c3.2,0,4.399-2.8,4.399-5.3v-3L553.101,59.8z"/>
	<path style="fill:#C3A777;" d="M571.9,68.8c2.2-0.399,3.5-1.1,3.5-5.3v-7.3c0-4-0.9-5.2-3.5-5.5v-2.8c4.1,0,6.399-0.9,9.399-3.2
		h2.4l-0.2,5.7l0.101,0.1c1.5-2.6,4-5.8,8.6-5.8c0.6,0,1.2,0.2,1.7,0.4c0.399,2.9,1,5.9,1.6,8.8l-3.1,0.9c-0.7-1.5-1.2-3.2-3.7-3.2
		c-3.2,0-4.6,3.7-4.6,7.5v4.5c0,4.2,1.399,5,4.699,5.301v2.8c-2.899-0.101-6-0.3-9-0.3c-2.699,0-5.199,0.199-7.899,0.3V68.8z"/>
	<path style="fill:#C3A777;" d="M623.4,65c-1.8,2.5-4.8,7.3-13.2,7.3c-7.9,0-13.3-5.3-13.3-13.6c0-8.1,5.7-14,13.399-14
		c11.601,0,12.101,9.1,13.101,10.8c0.2,0.3,0.399,0.5,0.7,0.7l-1.601,2.5c-2.5-0.101-5-0.3-7.5-0.3c-2.899,0-5.899,0.1-8.8,0.3
		c0,3,1.4,8.5,7.3,8.5c3.7,0,5.9-3,7.2-4.4L623.4,65z M613.8,53.9c0-2.1-0.6-5.2-3.3-5.2c-3.2,0-4.2,2.3-4.399,5.2H613.8z"/>
	<path style="fill:#C3A777;" d="M624.8,68.8c2.2-0.399,3.5-1.1,3.5-5.3v-7.3c0-4-0.899-5.2-3.5-5.5v-2.8c4.101,0,6.4-0.9,9.4-3.2
		h2.4L636,50.1c2.9-2.3,6.4-5.4,10.5-5.4c5,0,7.5,3.2,7.5,8.7v10.1c0,4.2,0.9,4.9,3.3,5.3v2.8c-1.899-0.1-3.8-0.3-5.699-0.3
		c-1.801,0-3.7,0.2-5.5,0.3c-0.4-0.899-0.801-2.1-0.801-3.399v-12c0-2.8-0.699-4.9-3.399-4.9c-2,0-3.5,1.3-5.101,2.8v9.5
		c0,4.2,1.301,4.9,3.5,5.301v2.8c-2.6-0.101-5.3-0.3-7.899-0.3c-2.7,0-5.2,0.199-7.9,0.3v-2.9H624.8z"/>
	<path style="fill:#C3A777;" d="M679.9,66.3c-1.8,1.9-5.601,6-11.5,6c-6.9,0-8-4.2-8-9V49.7h-3.5v-2.6c5.5-1.5,7.5-4.1,9-8.6h3.1
		v7.3h4.2c2.1,0,3-0.1,4.5-0.4l1.3,2.3c-2.1,1.3-3.2,2.1-5.7,2.1H669V61.9c0,3.8,1.4,5,3.4,5c2.3,0,3.6-1.5,5-2.9L679.9,66.3z"/>
	<path style="fill:#C3A777;" d="M682,72.3c-0.2-3.2-0.8-5.7-1.2-8.5l3.2-0.6c0.601,2.1,2,5,6.2,5c2.6,0,3.9-1.3,3.9-3
		c0-5.3-13-1.7-13-11.8c0-4.5,3.6-8.9,10.8-8.9c1.3,0,2.399,0.2,3.2,0.5c0.8,0.2,1.399,0.5,2,0.5c0.399,0,0.8-0.4,1.1-0.7l2.1-0.3
		c0.4,2.8,0.9,5.3,1.601,8l-3.2,0.4c-0.6-1.9-1.9-4.4-5.3-4.4c-2.5,0-3.601,1.3-3.601,2.8c0,4.8,13.2,1.8,13.2,11.8
		c0,5.301-3.7,9.101-11.6,9.101c-1.4,0-2.601-0.3-3.4-0.5c-0.899-0.3-1.6-0.5-2.1-0.5c-0.601,0-0.9,0.399-1.2,0.7L682,72.3z"/>
</g>
</svg>
