<?xml version="1.0" encoding="utf-8"?>
<!-- Generator: Adobe Illustrator 16.0.0, SVG Export Plug-In . SVG Version: 6.00 Build 0)  -->
<!DOCTYPE svg PUBLIC "-//W3C//DTD SVG 1.1//EN" "http://www.w3.org/Graphics/SVG/1.1/DTD/svg11.dtd">
<svg version="1.1" id="Ebene_1" xmlns="http://www.w3.org/2000/svg" xmlns:xlink="http://www.w3.org/1999/xlink" x="0px" y="0px"
	 width="657px" height="112.455px" viewBox="-42 0 657 112.455" style="enable-background:new -42 0 657 112.455;"
	 xml:space="preserve">
<g>
	<defs>
		<rect id="SVGID_1_" x="-38" y="28.095" width="649" height="84.36"/>
	</defs>
	<clipPath id="SVGID_2_">
		<use xlink:href="#SVGID_1_"  style="overflow:visible;"/>
	</clipPath>
	<path style="clip-path:url(#SVGID_2_);fill:#C3A777;" d="M579.357,62.271c0-4.407,1.48-9.354,6.105-9.354
		c4.997,0,6.754,5.039,6.754,10.613c0,4.947-1.757,9.354-6.289,9.354C581.023,72.883,579.357,68.116,579.357,62.271 M593.699,42.125
		c0.648-0.18,1.664-0.359,2.311-0.359c1.39,0,2.223,0.809,2.223,2.158c0,1.708-1.943,2.968-4.997,2.968
		c-1.203,0-2.405-0.09-3.516-0.269c-1.201-0.092-2.404-0.181-3.608-0.181c-13.415,0-22.11,7.644-22.11,16.278
		c0,9.263,5.18,11.603,8.974,13.94c-2.221,3.509-3.331,5.037-7.588,8.365c0,8.094,6.938,11.601,17.485,11.601
		c10.271,0,13.322,0.72,13.322,4.139c0,3.237-5.549,5.215-12.488,5.215c-6.661,0-10.917-1.978-10.917-4.766
		c0-0.72,0.093-1.35,0.553-2.069l-4.623-3.866c-2.22,0.988-4.533,2.158-6.845,2.966c-0.096,0.541-0.188,1.35-0.188,1.979
		c0,8.096,9.345,12.231,21.65,12.231c12.213,0,27.664-3.957,27.664-15.648c0-7.105-5.459-12.952-19.893-12.952
		c-10.732,0-13.137-0.539-13.137-2.787c0-0.811,0.462-1.618,0.831-2.518c2.222,0.449,4.44,0.81,6.754,0.81
		c9.808,0,22.021-4.947,22.021-16.729c0-7.645-4.996-10.611-7.679-12.321c4.811-1.528,9.714-4.497,9.714-9.894
		c0-3.598-2.683-6.656-5.645-8.363c-4.349,2.788-6.197,3.508-11.658,5.306L593.699,42.125z M537.918,68.839v4.945
		c0,4.135-2.036,8.632-7.402,8.632c-2.683,0-5.274-2.159-5.274-5.037c0-3.057,2.685-4.945,6.571-6.383L537.918,68.839z
		 M560.123,81.968c-1.479,0.358-2.962,0.988-4.441,0.988c-2.775,0-3.33-2.428-3.33-7.106V58.403c0-8.724-4.997-11.962-15.823-11.962
		c-2.495,0-5.551,0.27-8.048,0.629c-2.498,0.271-4.439,0.632-4.998,0.632c-1.294,0-1.756-0.271-1.94-1.261l-3.885-0.718
		c-1.204,5.306-2.963,9.263-4.999,14.569l5.275,2.339c1.757-3.239,4.07-8.813,12.767-8.813c5.182,0,7.218,2.158,7.218,5.036
		c0,9.083-27.108,3.509-27.108,20.325c0,6.926,4.996,12.053,14.156,12.053c9.436,0,13.322-6.028,15.174-8.727
		c0.647,3.33,1.388,8.727,7.492,8.727c4.256,0,9.438-2.88,13.786-5.038L560.123,81.968z M504.519,77.561
		c-2.313,2.249-4.441,4.676-8.328,4.676c-3.237,0-5.644-1.979-5.644-8.094V54.537h7.217c4.255,0,6.015-1.261,9.528-3.418
		l-2.218-3.778c-2.592,0.542-4.072,0.721-7.588,0.721h-6.939V36.279h-5.182c-2.498,7.375-5.829,11.604-15.081,14.03v4.228h5.83
		V76.66c0,7.824,1.85,14.571,13.323,14.571c9.897,0,16.192-6.657,19.243-9.806L504.519,77.561z M415.188,90.061
		c4.443-0.179,8.699-0.449,13.141-0.449c4.348,0,8.788,0.271,13.137,0.449v-4.496c-3.701-0.631-5.921-1.71-5.921-8.545V61.551
		c2.59-2.338,5.184-4.497,8.512-4.497c4.629,0,5.735,3.419,5.735,8.007v19.514c0,2.159,0.557,3.959,1.296,5.486
		c2.961-0.179,6.2-0.449,9.16-0.449c3.238,0,6.293,0.271,9.529,0.449v-4.496c-4.071-0.631-5.55-1.71-5.55-8.545V60.561
		c0-8.902-4.258-14.119-12.583-14.119c-6.847,0-12.677,4.947-17.579,8.723l0.926-8.723h-4.073c-4.994,3.599-8.88,5.127-15.729,5.127
		v4.496c4.443,0.63,5.923,2.52,5.923,8.996V77.02c0,6.835-2.221,7.914-5.923,8.545V90.061z M372.555,90.061
		c4.441-0.179,8.699-0.449,13.14-0.449c4.903,0,10.084,0.271,14.989,0.449v-4.496c-5.367-0.449-7.772-1.71-7.772-8.545v-7.285
		c0-6.205,2.405-12.141,7.68-12.141c4.163,0,4.997,2.698,6.199,5.126l5.181-1.438c-0.927-4.679-1.852-9.444-2.593-14.212
		c-0.925-0.359-1.941-0.629-2.866-0.629c-7.679,0-11.842,5.217-14.34,9.444l-0.187-0.182l0.371-9.263h-4.07
		c-4.996,3.599-8.884,5.127-15.731,5.127v4.496c4.441,0.63,5.923,2.52,5.923,8.996V77.02c0,6.835-2.22,7.914-5.923,8.545V90.061z
		 M339.702,61.371c0.371-4.677,2.127-8.455,7.399-8.455c4.535,0,5.461,5.128,5.461,8.455H339.702z M363.851,75.85
		c-2.129,2.25-5.829,7.106-12.028,7.106c-9.807,0-12.12-8.813-12.12-13.761c4.811-0.27,9.899-0.449,14.711-0.449
		c4.164,0,8.328,0.27,12.49,0.449l2.684-4.135c-0.37-0.36-0.834-0.721-1.11-1.172c-1.667-2.696-2.499-17.447-21.834-17.447
		c-12.862,0-22.3,9.623-22.3,22.754c0,13.491,9.068,22.036,22.206,22.036c13.972,0,19.058-7.826,22.021-11.872L363.851,75.85z
		 M318.357,77.561c-2.313,2.249-4.441,4.676-8.328,4.676c-3.235,0-5.643-1.979-5.643-8.094V54.537h7.218
		c4.255,0,6.015-1.261,9.528-3.418l-2.221-3.778c-2.591,0.542-4.068,0.721-7.586,0.721h-6.939V36.279h-5.181
		c-2.498,7.375-5.831,11.604-15.08,14.03v4.228h5.825V76.66c0,7.824,1.854,14.571,13.324,14.571c9.901,0,16.192-6.657,19.246-9.806
		L318.357,77.561z M277.585,28.095h-4.072c-4.996,3.597-9.437,5.127-16.284,5.127v4.497c4.441,0.628,5.921,2.428,5.921,8.723V77.02
		c0,6.835-2.22,7.914-5.921,8.545v4.496c4.441-0.179,8.698-0.449,13.14-0.449c4.348,0,8.791,0.271,13.137,0.449v-4.496
		c-3.7-0.631-5.92-1.71-5.92-8.545V28.095z M225.068,61.371c0.37-4.677,2.128-8.455,7.402-8.455c4.533,0,5.459,5.128,5.459,8.455
		H225.068z M249.217,75.85c-2.127,2.25-5.828,7.106-12.027,7.106c-9.808,0-12.121-8.813-12.121-13.761
		c4.812-0.27,9.9-0.449,14.712-0.449c4.164,0,8.327,0.27,12.49,0.449l2.683-4.135c-0.371-0.36-0.832-0.721-1.11-1.172
		c-1.666-2.696-2.499-17.447-21.835-17.447c-12.86,0-22.298,9.623-22.298,22.754c0,13.491,9.067,22.036,22.206,22.036
		c13.97,0,19.06-7.826,22.021-11.872L249.217,75.85z M173.721,90.78c0.371-0.449,0.925-1.169,1.943-1.169
		c0.74,0,1.85,0.36,3.423,0.81c1.481,0.359,3.423,0.811,5.736,0.811c13.324,0,19.43-6.206,19.43-14.752
		c0-16.097-22.021-11.33-22.021-19.063c0-2.341,1.85-4.5,6.013-4.5c5.645,0,7.867,4.05,8.883,7.197l5.367-0.722
		c-1.019-4.405-1.852-8.452-2.592-12.95l-3.516,0.45c-0.462,0.54-1.11,1.17-1.851,1.17c-0.924,0-1.942-0.452-3.33-0.809
		c-1.389-0.451-3.146-0.811-5.367-0.811c-12.028,0-18.042,7.015-18.042,14.391c0,16.369,21.65,10.523,21.65,19.065
		c0,2.7-2.222,4.858-6.477,4.858c-7.033,0-9.437-4.858-10.363-8.185l-5.273,0.9c0.741,4.585,1.666,8.542,2.036,13.76L173.721,90.78z
		 M130.838,90.78c0.37-0.449,0.926-1.169,1.943-1.169c0.74,0,1.851,0.36,3.424,0.81c1.479,0.359,3.424,0.811,5.736,0.811
		c13.324,0,19.429-6.206,19.429-14.752c0-16.097-22.02-11.33-22.02-19.063c0-2.341,1.85-4.5,6.014-4.5
		c5.644,0,7.864,4.05,8.882,7.197l5.366-0.722c-1.018-4.405-1.85-8.452-2.591-12.95l-3.515,0.45c-0.463,0.54-1.11,1.17-1.85,1.17
		c-0.926,0-1.944-0.452-3.332-0.809c-1.388-0.451-3.146-0.811-5.366-0.811c-12.028,0-18.042,7.015-18.042,14.391
		c0,16.369,21.649,10.523,21.649,19.065c0,2.7-2.22,4.858-6.476,4.858c-7.031,0-9.438-4.858-10.362-8.185l-5.275,0.9
		c0.741,4.585,1.667,8.542,2.037,13.76L130.838,90.78z M86.181,68.839c0-7.468,1.572-15.923,8.603-15.923
		c7.032,0,8.604,8.455,8.604,15.923c0,7.461-1.572,15.917-8.604,15.917C87.753,84.756,86.181,76.3,86.181,68.839 M94.784,91.231
		c14.434,0,23.963-9.083,23.963-22.393c0-13.314-9.53-22.397-23.963-22.397c-14.433,0-23.963,9.083-23.963,22.397
		C70.821,82.148,80.351,91.231,94.784,91.231 M27.716,90.061c4.441-0.179,8.697-0.449,13.138-0.449
		c4.902,0,10.085,0.271,14.988,0.449v-4.496c-5.365-0.449-7.771-1.71-7.771-8.545v-7.285c0-6.205,2.406-12.141,7.679-12.141
		c4.163,0,4.996,2.698,6.199,5.126l5.182-1.438c-0.927-4.679-1.851-9.444-2.591-14.212c-0.925-0.359-1.943-0.629-2.868-0.629
		c-7.679,0-11.843,5.217-14.341,9.444l-0.185-0.182l0.369-9.263h-4.07c-4.996,3.599-8.881,5.127-15.729,5.127v4.496
		c4.441,0.63,5.921,2.52,5.921,8.996V77.02c0,6.835-2.22,7.914-5.921,8.545V90.061z M22.879,83.047
		c-3.331-0.542-4.812-1.439-4.812-6.567c0-3.418,0.463-8.273,0.463-11.779c0-1.349-0.37-2.879-1.11-4.048
		c-3.795,0.18-7.587,0.448-11.288,0.448c-4.164,0-8.326-0.269-12.49-0.448v4.497c6.013,0.538,8.881,1.348,8.881,6.294v4.138
		c0,4.497-1.203,8.097-8.696,8.097c-11.565,0-14.803-11.155-14.803-20.777c0-11.151,3.793-23.294,17.3-23.294
		c9.067,0,13.324,5.667,15.082,9.445l5.367-2.159c-1.758-4.856-3.238-9.263-4.626-14.839L8.26,32.501
		c-0.37,0.72-1.111,1.171-1.757,1.171c-1.018,0-2.406-0.451-4.535-0.811c-2.035-0.449-4.811-0.809-8.697-0.809
		C-22.086,32.053-38,40.506-38,62.992c0,20.954,16.005,28.239,29.051,28.239c6.292,0,19.243-3.508,31.828-3.688V83.047z"/>
</g>
<g>
	<defs>
		<rect id="SVGID_3_" x="244.969" y="-4.761" width="88.031" height="28.89"/>
	</defs>
	<clipPath id="SVGID_4_">
		<use xlink:href="#SVGID_3_"  style="overflow:visible;"/>
	</clipPath>
	<path style="clip-path:url(#SVGID_4_);fill:#231F20;" d="M312.222,15.948v-1.82h-4.842l4.806-5.372V6.76h-7.42v1.82h4.822
		l-4.859,5.424v1.944H312.222z M303.545,8.81V6.689c-0.23-0.035-0.46-0.053-0.689-0.053c-1.078,0-2.173,0.442-2.598,1.502
		l-0.194-1.379h-1.872v9.188h2.226v-4.63c0-1.484,0.812-2.598,2.367-2.598C303.032,8.721,303.297,8.756,303.545,8.81 M291.178,3.19
		h-2.067v2.138h2.067V3.19z M294.817,3.19h-2.067v2.138h2.067V3.19z M293.438,12.29c0,1.361-0.971,2.104-2.349,2.104
		c-0.689,0-1.308-0.442-1.308-1.149c0-0.742,0.653-1.148,1.325-1.201l2.331-0.177V12.29z M296.391,15.842v-1.625
		c0,0-0.142,0.035-0.283,0.035c-0.371,0-0.513-0.16-0.513-0.583v-3.411c0-0.619-0.035-1.272-0.265-1.855
		c-0.529-1.379-1.873-1.873-3.446-1.873c-2.05,0-3.692,0.919-3.816,2.986h2.139c0.053-0.848,0.653-1.307,1.678-1.307
		c1.255,0,1.555,0.583,1.555,1.449v0.565l-2.702,0.195c-1.749,0.123-3.11,1.13-3.11,2.88c0,1.502,1.132,2.88,3.322,2.88
		c1.307,0,2.368-0.636,2.792-1.378c0.069,0.688,0.601,1.29,1.555,1.29C295.825,16.09,296.019,16.001,296.391,15.842 M285.672,15.948
		V3.42h-2.916l-3.305,8.924l-3.285-8.924h-3.075v12.528h2.209V6.901l3.233,8.87h1.679l3.251-8.764v8.941H285.672z M266.677,13.192
		h-2.686v2.756h2.686V13.192z M260.032,11.813c0,1.431-0.653,2.386-1.979,2.386c-1.308,0-1.944-1.042-1.944-2.386
		c0-1.29,0.724-2.297,1.908-2.297C259.378,9.516,260.032,10.541,260.032,11.813 M262.276,11.902c0-2.492-1.396-4.188-4.046-4.188
		c-0.742,0-1.785,0.248-2.332,0.902c0-1.079,0.176-2.191,0.848-2.81c0.3-0.282,0.636-0.495,1.219-0.495
		c0.601,0,1.025,0.142,1.308,0.442c0.229,0.229,0.389,0.565,0.424,0.936h2.226c0-0.724-0.353-1.607-1.042-2.261
		c-0.636-0.602-1.555-1.008-2.809-1.008c-1.467,0-2.333,0.531-3.004,1.237c-1.254,1.343-1.36,3.552-1.36,5.354
		c0,0.778,0.052,1.502,0.194,2.297c0.371,2.209,1.82,3.87,4.153,3.87C260.845,16.178,262.276,14.305,262.276,11.902"/>
</g>
</svg>
