<?xml version="1.0"?>
<svg x="0px" y="0px" width="557" height="94" viewBox="0 0 557 94" xmlns="http://www.w3.org/2000/svg">
 <style type="text/css">.st0{fill:#9E834F;}
	.st1{fill:#FF5F00;}</style>

 <g>
  <title>background</title>
  <rect fill="none" id="canvas_background" height="96" width="559" y="-1" x="-1"/>
 </g>
 <g>
  <title>Layer 1</title>
  <g id="svg_1">
   <path id="svg_2" d="m75.850006,92.699997l0,-56.799995l19,0c8.099998,0 14.900002,2.599998 14.900002,14.699997c0,6.5 -2.900002,11.300003 -8.699997,12.5l0,0.200001c7.599998,1.200001 9.599998,6.600002 9.599998,14.399998c0,14.400002 -11.300003,15 -15.800003,15l-19,0zm10.699997,-33.599998l7.200005,0c2.300003,0 5.599998,-1.699997 5.599998,-7.199997c0,-4.200001 -2.599998,-7.200001 -6.199997,-7.200001l-6.600006,0l0,14.399998zm0,24.900002l6,0c2.300003,0 7.400002,-0.099998 7.400002,-8c0,-5 -1.699997,-8.099998 -7.099998,-8.099998l-6.199997,0l0,16.099998l-0.100006,0z" class="st0"/>
   <path id="svg_3" d="m112.050011,92.699997l14.199997,-56.799995l14.099998,0l13.899994,56.799995l-11.299988,0l-2.800003,-12.599998l-14.700005,0l-2.900002,12.599998l-10.499992,0zm20.599998,-45.899998l-0.199997,0l-4.900009,24.600002l10.199997,0l-5.099991,-24.600002z" class="st0"/>
   <path id="svg_4" d="m170.550003,93.699997c-13.199997,0 -15.699997,-8.699997 -15.199997,-18.5l10.699997,0c0,5.400002 0.199997,10 6.100006,10c3.599991,0 5.399994,-2.599998 5.399994,-6.5c0,-10.199997 -21.5,-10.899994 -21.5,-27.799995c0,-8.900002 3.800003,-16 16.900009,-16c10.399994,0 15.599991,5.199997 14.899994,17.099998l-10.399994,0c0,-4.299999 -0.600006,-8.599998 -5,-8.599998c-3.5,0 -5.5,2.099998 -5.5,6.099998c0,10.799999 21.5,9.799999 21.5,27.699997c-0.100006,14.700005 -9.800003,16.5 -17.900009,16.5z" class="st0"/>
   <path id="svg_5" d="m192.650009,92.699997l0,-56.799995l10.699997,0l0,56.799995l-10.699997,0z" class="st0"/>
   <path id="svg_6" d="m208.450012,64.300003c0,-15.000004 0,-29.400002 17.599991,-29.400002c10.900009,0 15.300003,6.699997 14.900009,18.899998l-10.5,0c0,-7.599998 -1.200012,-10.399998 -4.400009,-10.399998c-6,0 -6.800003,6.299999 -6.800003,20.900002s0.800003,20.899994 6.800003,20.899994c5,0 4.699997,-7.099998 4.900009,-11.599998l10.599991,0c0,15.200005 -5.5,20.099998 -15.399994,20.099998c-17.699997,0 -17.699997,-14.5 -17.699997,-29.399994z" class="st0"/>
   <path id="svg_7" d="m259.75,92.699997l0,-56.799995l10.700012,0l0,56.799995l-10.700012,0z" class="st0"/>
   <path id="svg_8" d="m276.150024,92.699997l0,-56.799995l14.5,0l13.599976,39.400002l0.100006,0l0,-39.400002l10,0l0,56.799995l-14.100006,0l-14,-41.599998l-0.099976,0l0,41.599998l-10,0z" class="st0"/>
   <path id="svg_9" d="m319.450012,64.300003c0,-15.000004 0,-29.400002 17.600006,-29.400002c10.899994,0 15.299988,6.699997 14.899994,18.899998l-10.5,0c0,-7.599998 -1.200012,-10.399998 -4.399994,-10.399998c-6.000031,0 -6.800018,6.299999 -6.800018,20.900002s0.799988,20.899994 6.800018,20.899994c5,0 4.699982,-7.099998 4.899994,-11.599998l10.600006,0c0,15.200005 -5.5,20.099998 -15.400024,20.099998c-17.699982,0 -17.699982,-14.5 -17.699982,-29.399994z" class="st0"/>
   <path id="svg_10" d="m356.149994,64.300003c0,-15.000004 0,-29.400002 17.600006,-29.400002s17.700012,14.399998 17.700012,29.400002c0,14.899994 0,29.399994 -17.600006,29.399994s-17.700012,-14.5 -17.700012,-29.399994zm24.400024,0c0,-14.600002 -0.800018,-20.900002 -6.800018,-20.900002c-6,0 -6.799988,6.299999 -6.799988,20.900002s0.799988,20.899994 6.799988,20.899994c6,0 6.800018,-6.299995 6.800018,-20.899994z" class="st0"/>
   <path id="svg_11" d="m396.450012,92.699997l0,-56.799995l17.199982,0l8,38.699997l0.100006,0l8.5,-38.699997l16.600006,0l0,56.799995l-10.399994,0l0,-43.799995l0,0l-9.800018,43.799995l-10.199982,0l-9.399994,-43.799995l-0.100006,0l0,43.799995l-10.5,0z" class="st0"/>
   <path id="svg_12" d="m452.649994,92.699997l0,-56.799995l27.900024,0l0,8.699997l-17.200012,0l0,14l15.899994,0l0,8.700005l-15.899994,0l0,16.699997l17.799988,0l0,8.699997l-28.5,0z" class="st0"/>
  </g>
  <g id="svg_13">
   <g id="svg_14">
    <path id="svg_15" d="m212.899994,5.3c0,-0.4 0,-1 -0.399994,-1.6c-0.700012,-1.1 -1.899994,-1.2 -2.700012,-1.2c-3.899994,0 -4.599991,3.6 -4.599991,6.1c0,1.099999 0.199997,3 1.300003,4.299999c0.799988,0.900001 1.799988,1.400001 3.699997,1.400001c1.699997,0 2.199997,-0.2 2.599991,-0.3l0,-3.3l-3.099976,0l0,-2.8l6.499985,0l0,7.9c-1,0.3 -2.599991,0.900001 -5.800003,0.900001c-3.600006,0 -5.5,-0.900001 -6.799988,-2.1c-1.800018,-1.700001 -2.100006,-4.3 -2.100006,-5.900001c0,-5.6 3.5,-8.6 8.299988,-8.6c2,0 4.200012,0.6 5.400009,2c1.099991,1.2 1.099991,2.5 1.099991,3.3l-3.399994,0l0,-0.1z" class="st1"/>
    <path id="svg_16" d="m220.600006,0.4l10.599991,0l0,2.6l-7.199997,0l0,3.8l6.799988,0l0,2.599999l-6.799988,0l0,4.3l7.5,0l0,2.599999l-10.899994,0l0,-15.899999z" class="st1"/>
    <path id="svg_17" d="m235.299988,0.4l4.900009,0l6,12.5l0,-12.5l3.199997,0l0,15.899999l-4.699982,0l-6.200012,-13.199999l0,13.199999l-3.200012,0l0,-15.899999z" class="st1"/>
    <path id="svg_18" d="m253.799988,0.4l10.600006,0l0,2.6l-7.199982,0l0,3.8l6.799988,0l0,2.599999l-6.799988,0l0,4.3l7.5,0l0,2.599999l-10.900024,0l0,-15.899999z" class="st1"/>
    <path id="svg_19" d="m268.399994,0.4l6.100006,0c1.799988,0 3.5,0 4.799988,1.1c1,0.9 1.400024,2 1.400024,3.1c0,3 -2.600006,3.7 -3.300018,3.9c2.399994,0.2 2.600006,1.6 2.899994,3.7c0.200012,1.900001 0.400024,2.6 0.5,3.1c0.200012,0.7 0.300018,0.900001 0.5,1.099999l-3.799988,0c-0.200012,-0.9 -0.600006,-4.9 -0.899994,-5.5c-0.300018,-0.9 -1.100006,-0.9 -1.700012,-0.9l-3,0l0,6.4l-3.5,0l0,-16zm3.399994,7l2.800018,0c0.399994,0 1.199982,0 1.699982,-0.4c0.200012,-0.2 0.900024,-0.7 0.900024,-1.8c0,-1.1 -0.5,-1.6 -0.800018,-1.8c-0.5,-0.4 -1.199982,-0.4 -2.199982,-0.4l-2.400024,0l0,4.4z" class="st1"/>
    <path id="svg_20" d="m293.600006,0.4l5.5,15.899999l-3.399994,0l-1.100006,-3.4l-6.300018,0l-1.199982,3.4l-3.300018,0l5.700012,-15.899999l4.100006,0zm0,9.9l-2.200012,-6.8l-2.399994,6.8l4.600006,0z" class="st1"/>
    <path id="svg_21" d="m304.100006,3.1l-4.700012,0l0,-2.7l12.899994,0l0,2.6l-4.699982,0l0,13.299999l-3.399994,0l0,-13.199999l-0.100006,0z" class="st1"/>
    <path id="svg_22" d="m315.299988,0.4l3.400024,0l0,16l-3.400024,0l0,-16z" class="st1"/>
    <path id="svg_23" d="m330,0.1c1.700012,0 4,0.4 5.600006,2.2c1.700012,1.9 2,4.4 2,6c0,2.3 -0.700012,4.8 -2,6.2c-1.799988,2 -4.300018,2.299999 -5.700012,2.299999c-2.100006,0 -4.199982,-0.699999 -5.600006,-2.199999c-1.699982,-1.8 -2,-4.5 -2,-5.900001c0,-4.3 2,-8.6 7.700012,-8.6zm-2.899994,12.9c0.5,0.7 1.299988,1.3 2.899994,1.3c1.399994,0 2.300018,-0.5 3,-1.5c0.5,-0.8 1.100006,-2 1.100006,-4.6c0,-0.8 -0.100006,-1.9 -0.399994,-2.8c-0.700012,-2 -2,-2.8 -3.600006,-2.8c-1.300018,0 -2.300018,0.5 -2.899994,1.3c-0.900024,1.1 -1.200012,2.8 -1.200012,4.6c-0.100006,1.5 0.100006,3.2 1.100006,4.5z" class="st1"/>
    <path id="svg_24" d="m341.399994,0.4l4.900024,0l6,12.5l0,-12.5l3.199982,0l0,15.899999l-4.699982,0l-6.200012,-13.199999l0,13.199999l-3.200012,0l0,-15.899999z" class="st1"/>
   </g>
  </g>
 </g>
</svg>
