<?xml version="1.0" encoding="utf-8"?>
<!-- Generator: Adobe Illustrator 16.0.0, SVG Export Plug-In . SVG Version: 6.00 Build 0)  -->
<!DOCTYPE svg PUBLIC "-//W3C//DTD SVG 1.1//EN" "http://www.w3.org/Graphics/SVG/1.1/DTD/svg11.dtd">
<svg version="1.1" id="Ebene_1" xmlns="http://www.w3.org/2000/svg" xmlns:xlink="http://www.w3.org/1999/xlink" x="0px" y="0px"
	 width="657px" height="112.455px" viewBox="0 0 657 112.455" style="enable-background:new 0 0 657 112.455;" xml:space="preserve"
	>
<g>
	<g>
		<defs>
			<rect id="SVGID_1_" x="3" y="24.095" width="649" height="84.36"/>
		</defs>
		<clipPath id="SVGID_2_">
			<use xlink:href="#SVGID_1_"  style="overflow:visible;"/>
		</clipPath>
		<path style="clip-path:url(#SVGID_2_);fill:#C3A777;" d="M620.357,58.271c0-4.406,1.479-9.354,6.104-9.354
			c4.997,0,6.754,5.039,6.754,10.613c0,4.947-1.757,9.354-6.289,9.354C622.023,68.883,620.357,64.116,620.357,58.271
			 M634.699,38.125c0.647-0.18,1.664-0.359,2.311-0.359c1.391,0,2.224,0.809,2.224,2.158c0,1.708-1.943,2.968-4.997,2.968
			c-1.203,0-2.405-0.09-3.517-0.269c-1.201-0.092-2.403-0.181-3.607-0.181c-13.415,0-22.11,7.644-22.11,16.278
			c0,9.264,5.18,11.604,8.974,13.94c-2.221,3.509-3.331,5.036-7.588,8.364c0,8.095,6.938,11.602,17.485,11.602
			c10.271,0,13.322,0.721,13.322,4.139c0,3.237-5.549,5.215-12.488,5.215c-6.661,0-10.917-1.978-10.917-4.766
			c0-0.72,0.093-1.35,0.553-2.068l-4.623-3.867c-2.22,0.988-4.532,2.158-6.845,2.967c-0.096,0.541-0.188,1.35-0.188,1.979
			c0,8.096,9.345,12.231,21.649,12.231c12.213,0,27.664-3.957,27.664-15.647c0-7.105-5.459-12.953-19.893-12.953
			c-10.732,0-13.138-0.539-13.138-2.787c0-0.811,0.462-1.617,0.831-2.518c2.223,0.449,4.44,0.811,6.754,0.811
			c9.809,0,22.021-4.947,22.021-16.729c0-7.645-4.996-10.611-7.679-12.321c4.811-1.528,9.714-4.497,9.714-9.894
			c0-3.598-2.684-6.656-5.646-8.363c-4.349,2.788-6.197,3.508-11.658,5.306L634.699,38.125z M578.918,64.839v4.945
			c0,4.135-2.036,8.632-7.402,8.632c-2.683,0-5.273-2.159-5.273-5.037c0-3.058,2.685-4.944,6.571-6.383L578.918,64.839z
			 M601.123,77.968c-1.479,0.358-2.962,0.988-4.441,0.988c-2.774,0-3.33-2.428-3.33-7.105V54.403
			c0-8.724-4.996-11.962-15.822-11.962c-2.495,0-5.552,0.27-8.048,0.629c-2.498,0.271-4.439,0.632-4.998,0.632
			c-1.294,0-1.757-0.271-1.94-1.261l-3.885-0.718c-1.204,5.306-2.963,9.263-4.999,14.569l5.274,2.339
			c1.758-3.239,4.07-8.813,12.768-8.813c5.182,0,7.218,2.158,7.218,5.037c0,9.082-27.108,3.508-27.108,20.324
			c0,6.926,4.996,12.053,14.156,12.053c9.437,0,13.322-6.027,15.174-8.727c0.647,3.33,1.389,8.727,7.492,8.727
			c4.256,0,9.438-2.879,13.786-5.037L601.123,77.968z M545.52,73.562c-2.313,2.248-4.441,4.676-8.328,4.676
			c-3.237,0-5.645-1.979-5.645-8.094V50.537h7.217c4.256,0,6.016-1.261,9.528-3.418l-2.218-3.778
			c-2.592,0.542-4.072,0.721-7.588,0.721h-6.939V32.279h-5.182c-2.498,7.375-5.829,11.604-15.081,14.03v4.228h5.83V72.66
			c0,7.823,1.85,14.571,13.323,14.571c9.896,0,16.191-6.657,19.242-9.807L545.52,73.562z M456.188,86.062
			c4.443-0.18,8.699-0.449,13.142-0.449c4.348,0,8.788,0.271,13.137,0.449v-4.496c-3.701-0.631-5.921-1.711-5.921-8.545v-15.47
			c2.59-2.338,5.184-4.497,8.512-4.497c4.629,0,5.735,3.42,5.735,8.008v19.514c0,2.158,0.557,3.959,1.296,5.486
			c2.961-0.18,6.2-0.449,9.16-0.449c3.238,0,6.293,0.271,9.529,0.449v-4.496c-4.071-0.631-5.551-1.711-5.551-8.545V56.562
			c0-8.902-4.258-14.12-12.583-14.12c-6.847,0-12.677,4.947-17.579,8.723l0.927-8.723h-4.073c-4.994,3.599-8.88,5.127-15.729,5.127
			v4.496c4.442,0.63,5.923,2.52,5.923,8.997v11.959c0,6.834-2.222,7.914-5.923,8.545v4.496H456.188z M413.555,86.062
			c4.441-0.18,8.699-0.449,13.141-0.449c4.902,0,10.084,0.271,14.988,0.449v-4.496c-5.367-0.449-7.771-1.711-7.771-8.545v-7.285
			c0-6.205,2.404-12.142,7.68-12.142c4.163,0,4.997,2.698,6.199,5.126l5.182-1.438c-0.928-4.679-1.853-9.444-2.594-14.212
			c-0.925-0.359-1.941-0.629-2.865-0.629c-7.68,0-11.843,5.217-14.341,9.444l-0.187-0.182l0.371-9.263h-4.07
			c-4.996,3.599-8.885,5.127-15.73,5.127v4.496c4.44,0.63,5.922,2.52,5.922,8.997v11.961c0,6.834-2.22,7.914-5.922,8.545v4.496
			H413.555z M380.702,57.371c0.371-4.677,2.127-8.455,7.399-8.455c4.534,0,5.461,5.128,5.461,8.455H380.702z M404.852,71.851
			c-2.129,2.25-5.83,7.105-12.028,7.105c-9.808,0-12.12-8.812-12.12-13.762c4.811-0.27,9.898-0.448,14.711-0.448
			c4.164,0,8.328,0.271,12.49,0.448l2.684-4.135c-0.37-0.359-0.834-0.721-1.109-1.172c-1.668-2.695-2.5-17.447-21.834-17.447
			c-12.862,0-22.301,9.623-22.301,22.753c0,13.492,9.068,22.037,22.206,22.037c13.972,0,19.058-7.826,22.021-11.873L404.852,71.851z
			 M359.357,73.562c-2.313,2.248-4.441,4.676-8.328,4.676c-3.235,0-5.644-1.979-5.644-8.094V50.537h7.218
			c4.256,0,6.016-1.261,9.528-3.418l-2.221-3.778c-2.591,0.542-4.068,0.721-7.586,0.721h-6.939V32.279h-5.181
			c-2.498,7.375-5.831,11.604-15.08,14.03v4.228h5.825V72.66c0,7.823,1.854,14.571,13.323,14.571c9.901,0,16.192-6.657,19.246-9.807
			L359.357,73.562z M318.585,24.095h-4.072c-4.996,3.597-9.437,5.127-16.284,5.127v4.497c4.441,0.628,5.921,2.428,5.921,8.723
			v30.579c0,6.834-2.22,7.914-5.921,8.545v4.496c4.441-0.18,8.698-0.449,13.14-0.449c4.348,0,8.791,0.271,13.137,0.449v-4.496
			c-3.7-0.631-5.92-1.711-5.92-8.545L318.585,24.095L318.585,24.095z M266.068,57.371c0.37-4.677,2.128-8.455,7.402-8.455
			c4.533,0,5.459,5.128,5.459,8.455H266.068z M290.217,71.851c-2.127,2.25-5.828,7.105-12.027,7.105
			c-9.808,0-12.121-8.812-12.121-13.762c4.812-0.27,9.9-0.448,14.712-0.448c4.164,0,8.327,0.271,12.49,0.448l2.683-4.135
			c-0.371-0.359-0.832-0.721-1.11-1.172c-1.666-2.695-2.499-17.447-21.835-17.447c-12.86,0-22.298,9.623-22.298,22.753
			c0,13.492,9.067,22.037,22.206,22.037c13.97,0,19.06-7.826,22.021-11.873L290.217,71.851z M214.721,86.78
			c0.371-0.449,0.925-1.17,1.943-1.17c0.74,0,1.85,0.361,3.423,0.811c1.481,0.359,3.423,0.811,5.736,0.811
			c13.324,0,19.43-6.205,19.43-14.752c0-16.097-22.021-11.33-22.021-19.062c0-2.341,1.85-4.5,6.013-4.5
			c5.645,0,7.867,4.05,8.883,7.197l5.367-0.723c-1.019-4.405-1.852-8.452-2.592-12.95l-3.516,0.45c-0.462,0.54-1.11,1.17-1.851,1.17
			c-0.924,0-1.942-0.452-3.33-0.809c-1.389-0.451-3.146-0.811-5.367-0.811c-12.028,0-18.042,7.015-18.042,14.391
			c0,16.369,21.65,10.523,21.65,19.064c0,2.701-2.222,4.858-6.477,4.858c-7.033,0-9.437-4.858-10.363-8.185l-5.273,0.9
			c0.741,4.584,1.666,8.541,2.036,13.76L214.721,86.78z M171.838,86.78c0.37-0.449,0.926-1.17,1.943-1.17
			c0.74,0,1.851,0.361,3.424,0.811c1.479,0.359,3.424,0.811,5.736,0.811c13.324,0,19.429-6.205,19.429-14.752
			c0-16.097-22.02-11.33-22.02-19.062c0-2.341,1.85-4.5,6.014-4.5c5.644,0,7.864,4.05,8.882,7.197l5.366-0.723
			c-1.018-4.405-1.85-8.452-2.591-12.95l-3.515,0.45c-0.463,0.54-1.11,1.17-1.85,1.17c-0.926,0-1.944-0.452-3.332-0.809
			c-1.388-0.451-3.146-0.811-5.366-0.811c-12.028,0-18.042,7.015-18.042,14.391c0,16.369,21.649,10.523,21.649,19.064
			c0,2.701-2.22,4.858-6.476,4.858c-7.031,0-9.438-4.858-10.362-8.185l-5.275,0.9c0.741,4.584,1.667,8.541,2.037,13.76
			L171.838,86.78z M127.181,64.839c0-7.468,1.572-15.923,8.603-15.923c7.032,0,8.604,8.455,8.604,15.923
			c0,7.461-1.572,15.917-8.604,15.917C128.753,80.756,127.181,72.3,127.181,64.839 M135.784,87.231
			c14.434,0,23.963-9.084,23.963-22.394c0-13.314-9.53-22.397-23.963-22.397c-14.433,0-23.963,9.083-23.963,22.397
			C111.821,78.147,121.351,87.231,135.784,87.231 M68.716,86.062c4.441-0.18,8.697-0.449,13.138-0.449
			c4.902,0,10.085,0.271,14.988,0.449v-4.496c-5.365-0.449-7.771-1.711-7.771-8.545v-7.285c0-6.205,2.406-12.142,7.679-12.142
			c4.163,0,4.996,2.698,6.199,5.126l5.182-1.438c-0.927-4.679-1.851-9.444-2.591-14.212c-0.925-0.359-1.943-0.629-2.868-0.629
			c-7.679,0-11.843,5.217-14.341,9.444l-0.185-0.182l0.369-9.263h-4.07c-4.996,3.599-8.881,5.127-15.729,5.127v4.496
			c4.441,0.63,5.921,2.52,5.921,8.997v11.961c0,6.834-2.22,7.914-5.921,8.545V86.062z M63.879,79.047
			c-3.331-0.542-4.812-1.438-4.812-6.567c0-3.418,0.463-8.272,0.463-11.778c0-1.349-0.37-2.879-1.11-4.048
			c-3.795,0.18-7.587,0.447-11.288,0.447c-4.164,0-8.326-0.269-12.49-0.447v4.496c6.013,0.539,8.881,1.349,8.881,6.295v4.138
			c0,4.497-1.203,8.097-8.696,8.097c-11.565,0-14.803-11.154-14.803-20.777c0-11.15,3.793-23.293,17.3-23.293
			c9.067,0,13.324,5.667,15.082,9.445l5.367-2.159c-1.758-4.856-3.238-9.263-4.626-14.839l-3.887,0.446
			c-0.37,0.72-1.111,1.171-1.757,1.171c-1.018,0-2.406-0.451-4.535-0.811c-2.035-0.449-4.811-0.809-8.697-0.809
			C18.914,28.053,3,36.506,3,58.992c0,20.954,16.005,28.239,29.051,28.239c6.292,0,19.243-3.508,31.828-3.688V79.047z"/>
	</g>
</g>
</svg>
