<?xml version="1.0"?>
<svg width="557" height="94" xmlns="http://www.w3.org/2000/svg">

 <g>
  <title>background</title>
  <rect fill="none" id="canvas_background" height="96" width="559" y="-1" x="-1"/>
 </g>
 <g>
  <title>Layer 1</title>
  <g id="svg_1">
   <path id="svg_2" fill="#9E834F" d="m54.099995,92.699997l-10.700001,0l0,-56.799995l19.799999,0c7.299999,0 12.000004,5.199997 12.000004,14.899998c0,7.200001 -2.600006,12.700001 -9.5,13.899998l0,0.200005c2.299995,0.299995 9.299995,0.900002 9.299995,11.199997c0,3.599998 0.200005,14.300003 1.200005,16.700005l-10.600006,0c-1.399994,-3.5 -1.099998,-7.300003 -1.099998,-11c0,-6.800003 0.600006,-12.5 -7.700001,-12.5l-2.799999,0l0,23.399994l0.100002,0zm0,-32.199997l4.699997,0c4.300003,0 5.500004,-4.700001 5.500004,-8.299999c0,-5.400002 -2.100002,-7.5 -5.500004,-7.5l-4.699997,0l0,15.799999z"/>
   <path id="svg_3" fill="#9E834F" d="m79.999992,92.699997l0,-56.799995l27.900002,0l0,8.699997l-17.199997,0l0,14l15.899994,0l0,8.700005l-15.899994,0l0,16.699997l17.799995,0l0,8.699997l-28.5,0z"/>
   <path id="svg_4" fill="#9E834F" d="m110.299995,35.900002l11.099998,0l7.900009,41.299995l0.099991,0l9,-41.299995l10.600006,0l-13.600006,56.799995l-12.5,0l-12.599998,-56.799995z"/>
   <path id="svg_5" fill="#9E834F" d="m151.899994,92.699997l0,-56.799995l27.899994,0l0,8.699997l-17.199997,0l0,14l15.900009,0l0,8.700005l-15.900009,0l0,16.699997l17.800003,0l0,8.699997l-28.5,0z"/>
   <path id="svg_6" fill="#9E834F" d="m184.399994,92.699997l0,-56.799995l14.5,0l13.5,39.400002l0.100006,0l0,-39.400002l10,0l0,56.799995l-14.100006,0l-14,-41.599998l0,0l0,41.599998l-10,0z"/>
   <path id="svg_7" fill="#9E834F" d="m263,35.900002l0,40.299995c0,8.5 -4.299988,17.5 -17.399994,17.5c-11.800003,0 -17.400009,-6.799995 -17.400009,-17.5l0,-40.299995l10.700012,0l0,39.5c0,7 2.699997,9.799995 6.599991,9.799995c4.699997,0 6.800003,-3.5 6.800003,-9.799995l0,-39.5l10.699997,0z"/>
   <path id="svg_8" fill="#9E834F" d="m282,35.900002l17.899994,0c14,0 16.600006,10.399998 16.600006,28.099998c0,8.699997 1.200012,28.699997 -17.100006,28.699997l-17.399994,0l0,-56.799995zm10.700012,48.099998l5.199982,0c6.5,0 7.799988,-5.400002 7.799988,-19.699997c0,-10.500004 0,-19.700005 -7.399994,-19.700005l-5.5,0l0,39.400002l-0.099976,0z"/>
   <path id="svg_9" fill="#9E834F" d="m321.299988,92.699997l0,-56.799995l27.899994,0l0,8.699997l-17.200012,0l0,14l15.900024,0l0,8.700005l-15.900024,0l0,16.699997l17.800018,0l0,8.699997l-28.5,0z"/>
   <path id="svg_10" fill="#9E834F" d="m368.299988,92.699997l0,-56.799995l19,0c8.100006,0 14.899994,2.599998 14.899994,14.699997c0,6.5 -2.899994,11.300003 -8.700012,12.5l0,0.200001c7.600006,1.200001 9.600006,6.600002 9.600006,14.399998c0,14.400002 -11.299988,15 -15.799988,15l-19,0zm10.700012,-33.599998l7.200012,0c2.299988,0 5.600006,-1.699997 5.600006,-7.199997c0,-4.200001 -2.600006,-7.200001 -6.200012,-7.200001l-6.600006,0l0,14.399998zm0,24.900002l6,0c2.300018,0 7.399994,-0.099998 7.399994,-8c0,-5 -1.699982,-8.099998 -7.099976,-8.099998l-6.200012,0l0,16.099998l-0.100006,0z"/>
   <path id="svg_11" fill="#9E834F" d="m404.5,92.699997l14.200012,-56.799995l14.100006,0l13.899994,56.799995l-11.300018,0l-2.799988,-12.599998l-14.600006,0l-2.899994,12.599998l-10.600006,0zm20.600006,-45.899998l-0.100006,0l-4.899994,24.600002l10.200012,0l-5.200012,-24.600002z"/>
   <path id="svg_12" fill="#9E834F" d="m463,93.699997c-13.199982,0 -15.699982,-8.699997 -15.199982,-18.5l10.699982,0c0,5.400002 0.200012,10 6.100006,10c3.600006,0 5.399994,-2.599998 5.399994,-6.5c0,-10.199997 -21.5,-10.899994 -21.5,-27.799995c0,-8.900002 3.800018,-16 16.899994,-16c10.400024,0 15.600006,5.199997 14.900024,17.099998l-10.400024,0c0,-4.299999 -0.599976,-8.599998 -5,-8.599998c-3.5,0 -5.5,2.099998 -5.5,6.099998c0,10.799999 21.5,9.799999 21.5,27.699997c0,14.700005 -9.799988,16.5 -17.899994,16.5z"/>
   <path id="svg_13" fill="#9E834F" d="m485.100006,92.699997l0,-56.799995l27.899994,0l0,8.699997l-17.199982,0l0,14l15.899994,0l0,8.700005l-15.899994,0l0,16.699997l17.800018,0l0,8.699997l-28.500031,0z"/>
  </g>
  <g id="svg_14">
   <g id="svg_15">
    <path id="svg_16" fill="#FF5F00" d="m212.900009,5.3c0,-0.4 0,-1 -0.400009,-1.6c-0.699997,-1.1 -1.899994,-1.2 -2.699997,-1.2c-3.899994,0 -4.599991,3.6 -4.599991,6.1c0,1.099999 0.199997,3 1.299988,4.299999c0.800003,0.900001 1.800003,1.400001 3.700012,1.400001c1.699997,0 2.199997,-0.2 2.599991,-0.3l0,-3.3l-3.099991,0l0,-2.8l6.5,0l0,7.9c-1,0.3 -2.600006,0.900001 -5.800003,0.900001c-3.600006,0 -5.5,-0.900001 -6.800003,-2.1c-1.800003,-1.700001 -2.100006,-4.3 -2.100006,-5.900001c0,-5.6 3.5,-8.6 8.300003,-8.6c2,0 4.199997,0.6 5.400009,2c1.099991,1.2 1.099991,2.5 1.099991,3.3l-3.399994,0l0,-0.1z"/>
    <path id="svg_17" fill="#FF5F00" d="m220.600006,0.4l10.600006,0l0,2.6l-7.200012,0l0,3.8l6.800003,0l0,2.599999l-6.800003,0l0,4.3l7.5,0l0,2.599999l-10.899994,0l0,-15.899999z"/>
    <path id="svg_18" fill="#FF5F00" d="m235.300003,0.4l4.900009,0l6,12.5l0,-12.5l3.199997,0l0,15.899999l-4.699997,0l-6.100006,-13.199999l0,13.199999l-3.199997,0l0,-15.899999l-0.100006,0z"/>
    <path id="svg_19" fill="#FF5F00" d="m253.800003,0.4l10.600021,0l0,2.6l-7.200012,0l0,3.8l6.799988,0l0,2.599999l-6.799988,0l0,4.3l7.5,0l0,2.599999l-10.900009,0l0,-15.899999z"/>
    <path id="svg_20" fill="#FF5F00" d="m268.400024,0.4l6.099976,0c1.800018,0 3.5,0 4.800018,1.1c1,0.9 1.399994,2 1.399994,3.1c0,3 -2.600006,3.7 -3.299988,3.9c2.399963,0.2 2.599976,1.6 2.899994,3.7c0.199982,1.900001 0.399994,2.6 0.499969,3.1c0.200012,0.7 0.300018,0.900001 0.500031,1.099999l-3.800018,0c-0.199982,-0.9 -0.599976,-4.9 -0.899994,-5.5c-0.299988,-0.9 -1.100006,-0.9 -1.699982,-0.9l-3,0l0,6.4l-3.5,0l0,-16zm3.399963,7l2.800018,0c0.399994,0 1.199982,0 1.700012,-0.4c0.199982,-0.2 0.899994,-0.7 0.899994,-1.8c0,-1.1 -0.5,-1.6 -0.799988,-1.8c-0.5,-0.4 -1.200012,-0.4 -2.200012,-0.4l-2.299988,0l0,4.4l-0.100037,0z"/>
    <path id="svg_21" fill="#FF5F00" d="m293.600006,0.4l5.5,15.899999l-3.399994,0l-1.100006,-3.4l-6.299988,0l-1.200012,3.4l-3.300018,0l5.700012,-15.899999l4.100006,0zm0.100006,9.9l-2.200012,-6.8l-2.399994,6.8l4.600006,0z"/>
    <path id="svg_22" fill="#FF5F00" d="m304.100006,3.1l-4.699982,0l0,-2.7l12.899994,0l0,2.6l-4.700012,0l0,13.299999l-3.399994,0l0,-13.199999l-0.100006,0z"/>
    <path id="svg_23" fill="#FF5F00" d="m315.300018,0.4l3.399994,0l0,16l-3.399994,0l0,-16z"/>
    <path id="svg_24" fill="#FF5F00" d="m330,0.1c1.699982,0 4,0.4 5.600006,2.2c1.699982,1.9 2,4.4 2,6c0,2.3 -0.700012,4.8 -2,6.2c-1.800018,2 -4.300018,2.299999 -5.700012,2.299999c-2.100006,0 -4.200012,-0.699999 -5.600006,-2.199999c-1.699982,-1.8 -2,-4.5 -2,-5.900001c0.000031,-4.3 2.000031,-8.6 7.700012,-8.6zm-2.899994,12.9c0.5,0.7 1.299988,1.3 2.899994,1.3c1.399994,0 2.300018,-0.5 3,-1.5c0.5,-0.8 1.100006,-2 1.100006,-4.6c0,-0.8 -0.100006,-1.9 -0.399994,-2.8c-0.700012,-2 -2,-2.8 -3.600006,-2.8c-1.299988,0 -2.299988,0.5 -2.899994,1.3c-0.899994,1.1 -1.200012,2.8 -1.200012,4.6c-0.100006,1.5 0.200012,3.2 1.100006,4.5z"/>
    <path id="svg_25" fill="#FF5F00" d="m341.399994,0.4l4.899994,0l6,12.5l0,-12.5l3.200012,0l0,15.899999l-4.700012,0l-6.199982,-13.199999l0,13.199999l-3.200012,0l0,-15.899999z"/>
   </g>
  </g>
 </g>
</svg>