<?xml version="1.0" encoding="utf-8"?>
<!-- Generator: Adobe Illustrator 18.1.1, SVG Export Plug-In . SVG Version: 6.00 Build 0)  -->
<svg version="1.1" id="Ebene_1" xmlns="http://www.w3.org/2000/svg" xmlns:xlink="http://www.w3.org/1999/xlink" x="0px" y="0px"
	 width="707px" height="112.5px" viewBox="299 -54.5 707 112.5" style="enable-background:new 299 -54.5 707 112.5;"
	 xml:space="preserve">
<g>
	<path style="fill:#C3A777;" d="M321.3,22.4c0,10-9.8,12.4-15.9,13c-0.8-2.9-1.9-4.9-2.9-7.8l3.1-1.4c0.7,1.8,1.3,3.6,3.4,3.6
		c2.3,0,2.9-1.8,2.9-6.3V-5.4c0-4.1-1.1-5-3.9-5.3v-2.8c3,0.1,5.5,0.3,8.5,0.3c2.7,0,5.8-0.2,8.5-0.3v2.8c-2.8,0.3-3.9,1.2-3.9,5.3
		V22.4z"/>
	<path style="fill:#C3A777;" d="M326,8.5c0-8.2,5.7-13.8,14.4-13.8s14.4,5.6,14.4,13.8s-5.7,13.8-14.4,13.8S326,16.7,326,8.5z
		 M340.4,18.3c4.2,0,5.2-5.2,5.2-9.8c0-4.6-0.9-9.8-5.2-9.8c-4.2,0-5.2,5.2-5.2,9.8C335.2,13.1,336.2,18.3,340.4,18.3z"/>
	<path style="fill:#C3A777;" d="M378.6,22.3c-0.9-1.1-1.6-3.2-1.7-5.7c-1.9,2.4-4.3,5.7-9.6,5.7c-6.8,0-8-5.2-8-9.1V4.9
		c0-3.1-0.9-3.9-3.5-4.3v-2.8c4.1,0,6.8-0.9,9.8-3.2h2.4v17c0,2.9,1.4,4,3.5,4c4.4,0,4.9-4.2,4.9-6.9v-4c0-3.1-0.9-4-3.5-4.3v-2.8
		c4.1,0,6.8-0.9,9.8-3.2h2.4V11c0,3.6,0.6,4.8,3.3,5.4v2.8c-4,0.2-5.3,1.1-7.3,3.2H378.6z"/>
	<path style="fill:#C3A777;" d="M390.3,18.8c2.2-0.4,3.5-1.1,3.5-5.3V6.2c0-4-0.9-5.2-3.5-5.5v-2.8c4.1,0,6.4-0.9,9.4-3.2h2.4
		l-0.2,5.7l0.1,0.1c1.5-2.6,4-5.8,8.6-5.8c0.6,0,1.2,0.2,1.7,0.4c0.4,2.9,1,5.9,1.6,8.8l-3.1,0.9c-0.7-1.5-1.2-3.2-3.7-3.2
		c-3.2,0-4.6,3.7-4.6,7.5v4.5c0,4.2,1.4,5,4.7,5.3v2.8c-2.9-0.1-6-0.3-9-0.3c-2.7,0-5.2,0.2-7.9,0.3V18.8z"/>
	<path style="fill:#C3A777;" d="M414.9,18.8c2.2-0.4,3.5-1.1,3.5-5.3V6.2c0-4-0.9-5.2-3.5-5.5v-2.8c4.1,0,6.4-0.9,9.4-3.2h2.4
		l-0.6,5.4c2.9-2.3,6.4-5.4,10.5-5.4c5,0,7.5,3.2,7.5,8.7v10.1c0,4.2,0.9,4.9,3.3,5.3v2.8c-1.9-0.1-3.8-0.3-5.7-0.3
		c-1.8,0-3.7,0.2-5.5,0.3c-0.4-0.9-0.8-2.1-0.8-3.4v-12c0-2.8-0.7-4.9-3.4-4.9c-2,0-3.5,1.3-5.1,2.8v9.5c0,4.2,1.3,4.9,3.5,5.3v2.8
		c-2.6-0.1-5.3-0.3-7.9-0.3c-2.7,0-5.2,0.2-7.9,0.3V18.8z"/>
	<path style="fill:#C3A777;" d="M475,15c-1.8,2.5-4.8,7.3-13.2,7.3c-7.9,0-13.3-5.3-13.3-13.6c0-8.1,5.7-14,13.4-14
		c11.6,0,12.1,9.1,13.1,10.8c0.2,0.3,0.4,0.5,0.7,0.7L474,8.7c-2.5-0.1-5-0.3-7.5-0.3c-2.9,0-5.9,0.1-8.8,0.3c0,3,1.4,8.5,7.3,8.5
		c3.7,0,5.9-3,7.2-4.4L475,15z M465.4,3.9c0-2.1-0.6-5.2-3.3-5.2c-3.2,0-4.2,2.3-4.4,5.2H465.4z M462.4-15.7h7l1.4,2.1l-8.9,4.4
		h-2.9L462.4-15.7z"/>
	<path style="fill:#C3A777;" d="M504.2,15c-1.8,2.5-4.8,7.3-13.2,7.3c-7.9,0-13.3-5.3-13.3-13.6c0-8.1,5.7-14,13.4-14
		c11.6,0,12.1,9.1,13.1,10.8c0.2,0.3,0.4,0.5,0.7,0.7l-1.6,2.5c-2.5-0.1-5-0.3-7.5-0.3c-2.9,0-5.9,0.1-8.8,0.3c0,3,1.4,8.5,7.3,8.5
		c3.7,0,5.9-3,7.2-4.4L504.2,15z M494.6,3.9c0-2.1-0.6-5.2-3.3-5.2c-3.2,0-4.2,2.3-4.4,5.2H494.6z"/>
	<path style="fill:#C3A777;" d="M539.9,22.3c-0.6-2-0.8-3.7-1.1-6.7h-0.1c-1.3,2.4-3.4,6.7-9.1,6.7c-5.8,0-11-4.7-11-13
		c0-8.9,6.2-14.6,12.8-14.6c3.8,0,5.5,1.9,6.2,2.9h0.1v-2.9c0-3.9-0.9-5-3.5-5.4v-2.8c4.1,0,6.8-0.9,9.8-3.2h2.4V11
		c0,3.6,0.7,4.8,3.9,5.4v2.8c-4.3,0.2-5.7,1.1-7.9,3.2H539.9z M532.7,16.2c4.4,0,5-5,5-11.5c0-2.4-0.9-5.5-4.4-5.5
		c-4.2,0-5.5,5.2-5.5,9.6C527.9,12.5,529,16.2,532.7,16.2z"/>
	<path style="fill:#C3A777;" d="M577.8,15c-1.8,2.5-4.8,7.3-13.2,7.3c-7.9,0-13.3-5.3-13.3-13.6c0-8.1,5.7-14,13.4-14
		c11.6,0,12.1,9.1,13.1,10.8c0.2,0.3,0.4,0.5,0.7,0.7l-1.6,2.5c-2.5-0.1-5-0.3-7.5-0.3c-2.9,0-5.9,0.1-8.8,0.3c0,3,1.4,8.5,7.3,8.5
		c3.7,0,5.9-3,7.2-4.4L577.8,15z M568.2,3.9c0-2.1-0.6-5.2-3.3-5.2c-3.2,0-4.2,2.3-4.4,5.2H568.2z"/>
	<path style="fill:#C3A777;" d="M581.6,22.3c-0.2-3.2-0.8-5.7-1.2-8.5l3.2-0.6c0.6,2.1,2,5,6.2,5c2.5,0,3.9-1.3,3.9-3
		c0-5.3-13-1.7-13-11.8c0-4.5,3.6-8.9,10.8-8.9c1.3,0,2.4,0.2,3.2,0.5c0.8,0.2,1.4,0.5,2,0.5c0.4,0,0.8-0.4,1.1-0.7l2.1-0.3
		c0.4,2.8,0.9,5.3,1.6,8l-3.2,0.4c-0.6-1.9-1.9-4.4-5.3-4.4c-2.5,0-3.6,1.3-3.6,2.8c0,4.8,13.2,1.8,13.2,11.8
		c0,5.3-3.7,9.1-11.6,9.1c-1.4,0-2.5-0.3-3.4-0.5c-0.9-0.3-1.6-0.5-2.1-0.5c-0.6,0-0.9,0.4-1.2,0.7L581.6,22.3z"/>
	<path style="fill:#C3A777;" d="M635.3-10.9c3.3-1.1,4.4-1.6,7-3.3c1.8,1.1,3.4,2.9,3.4,5.2c0,3.3-2.9,5.2-5.8,6.1
		c1.6,1.1,4.6,2.9,4.6,7.6c0,7.3-7.3,10.3-13.2,10.3c-1.4,0-2.7-0.2-4-0.5c-0.2,0.6-0.5,1.1-0.5,1.6c0,1.4,1.4,1.7,7.9,1.7
		c8.6,0,11.9,3.6,11.9,8c0,7.2-9.3,9.6-16.6,9.6c-7.4,0-13-2.5-13-7.5c0-0.4,0.1-0.9,0.1-1.2c1.4-0.5,2.8-1.2,4.1-1.8l2.8,2.4
		c-0.3,0.4-0.3,0.8-0.3,1.3c0,1.7,2.5,2.9,6.5,2.9c4.2,0,7.5-1.2,7.5-3.2c0-2.1-1.8-2.5-8-2.5c-6.3,0-10.5-2.2-10.5-7.2
		c2.6-2.1,3.2-3,4.5-5.2c-2.3-1.4-5.4-2.9-5.4-8.6c0-5.3,5.2-10,13.2-10c0.7,0,1.4,0.1,2.2,0.1c0.7,0.1,1.4,0.2,2.1,0.2
		c1.8,0,3-0.8,3-1.8c0-0.8-0.5-1.3-1.3-1.3c-0.4,0-1,0.1-1.4,0.2L635.3-10.9z M631.5,11c2.7,0,3.8-2.7,3.8-5.8c0-3.4-1.1-6.5-4-6.5
		c-2.8,0-3.7,3-3.7,5.8C627.5,8,628.5,11,631.5,11z"/>
	<path style="fill:#C3A777;" d="M647.3,18.8c2.2-0.4,3.5-1.1,3.5-5.3V6.2c0-4-0.9-5.2-3.5-5.5v-2.8c4.1,0,6.4-0.9,9.4-3.2h2.4
		l-0.2,5.7l0.1,0.1c1.5-2.6,4-5.8,8.6-5.8c0.6,0,1.2,0.2,1.7,0.4c0.4,2.9,1,5.9,1.6,8.8l-3.1,0.9c-0.7-1.5-1.2-3.2-3.7-3.2
		c-3.2,0-4.6,3.7-4.6,7.5v4.5c0,4.2,1.4,5,4.7,5.3v2.8c-2.9-0.1-6-0.3-9-0.3c-2.7,0-5.2,0.2-7.9,0.3V18.8z"/>
	<path style="fill:#C3A777;" d="M701.7,19.2c-2.6,1.3-5.7,3.1-8.3,3.1c-3.7,0-4.1-3.3-4.5-5.4c-1.1,1.7-3.4,5.4-9.1,5.4
		c-5.5,0-8.5-3.2-8.5-7.4c0-10.4,16.2-6.9,16.2-12.5c0-1.8-1.2-3.1-4.3-3.1c-5.2,0-6.6,3.4-7.7,5.4l-3.2-1.4c1.2-3.3,2.3-5.7,3-9
		l2.3,0.4c0.1,0.6,0.4,0.8,1.2,0.8c0.3,0,1.5-0.2,3-0.4c1.5-0.2,3.3-0.4,4.8-0.4c6.5,0,9.5,2,9.5,7.4v10.8c0,2.9,0.3,4.4,2,4.4
		c0.9,0,1.8-0.4,2.7-0.6L701.7,19.2z M684,9.8c-2.3,0.9-3.9,2.1-3.9,3.9c0,1.8,1.6,3.1,3.2,3.1c3.2,0,4.4-2.8,4.4-5.3v-3L684,9.8z"
		/>
	<path style="fill:#C3A777;" d="M702.6,18.8c2.2-0.4,3.5-1.1,3.5-5.3V6.2c0-4-0.9-5.2-3.5-5.5v-2.8c4.1,0,6.4-0.9,9.4-3.2h2.4
		l-0.6,5.4c2.9-2.3,6.4-5.4,10.5-5.4c5,0,7.5,3.2,7.5,8.7v10.1c0,4.2,0.9,4.9,3.3,5.3v2.8c-1.9-0.1-3.8-0.3-5.7-0.3
		c-1.8,0-3.7,0.2-5.5,0.3c-0.4-0.9-0.8-2.1-0.8-3.4v-12c0-2.8-0.7-4.9-3.4-4.9c-2,0-3.5,1.3-5.1,2.8v9.5c0,4.2,1.3,4.9,3.5,5.3v2.8
		c-2.6-0.1-5.3-0.3-7.9-0.3c-2.7,0-5.2,0.2-7.9,0.3V18.8z"/>
	<path style="fill:#C3A777;" d="M757.2,22.3c-0.6-2-0.8-3.7-1.1-6.7H756c-1.3,2.4-3.4,6.7-9.1,6.7c-5.8,0-11-4.7-11-13
		c0-8.9,6.2-14.6,12.8-14.6c3.8,0,5.5,1.9,6.2,2.9h0.1v-2.9c0-3.9-0.9-5-3.5-5.4v-2.8c4.1,0,6.8-0.9,9.8-3.2h2.4V11
		c0,3.6,0.7,4.8,3.9,5.4v2.8c-4.3,0.2-5.7,1.1-7.9,3.2H757.2z M749.9,16.2c4.4,0,5-5,5-11.5c0-2.4-0.9-5.5-4.4-5.5
		c-4.2,0-5.5,5.2-5.5,9.6C745.1,12.5,746.2,16.2,749.9,16.2z"/>
	<path style="fill:#C3A777;" d="M770.4,22.3c-0.2-3.2-0.8-5.7-1.2-8.5l3.2-0.6c0.6,2.1,2,5,6.2,5c2.6,0,3.9-1.3,3.9-3
		c0-5.3-13-1.7-13-11.8c0-4.5,3.6-8.9,10.8-8.9c1.3,0,2.4,0.2,3.2,0.5c0.8,0.2,1.4,0.5,2,0.5c0.4,0,0.8-0.4,1.1-0.7l2.1-0.3
		c0.4,2.8,0.9,5.3,1.6,8L787,3.1c-0.6-1.9-1.9-4.4-5.3-4.4c-2.5,0-3.6,1.3-3.6,2.8c0,4.8,13.2,1.8,13.2,11.8c0,5.3-3.7,9.1-11.6,9.1
		c-1.4,0-2.6-0.3-3.4-0.5c-0.9-0.3-1.6-0.5-2.1-0.5c-0.6,0-0.9,0.4-1.2,0.7L770.4,22.3z"/>
	<path style="fill:#C3A777;" d="M818.2,24.9c0,4.2,1,5.3,4.7,5.3v2.8c-5.9,0.5-10.7,1.3-16.3,2.4v-2.8c1.9-0.4,3-1.1,3-5.3V6
		c0-3.9-0.9-5-3.5-5.4v-2.8c4.1,0,6.4-0.9,9.4-3.2h2.4l-0.6,5.4l0.1,0.1c1.6-2,4.4-5.5,9.1-5.5c5.2,0,10.6,4.8,10.6,12.8
		c0,9.6-5.7,14.9-11.7,14.9c-3.8,0-5.5-1.7-7.3-3.1V24.9z M823.3,17.7c3.9,0,4.7-5.9,4.7-9.9c0-3.7-1.1-7.1-4.7-7.1
		c-3.5,0-5.1,3-5.1,9C818.2,14.5,819.7,17.7,823.3,17.7z"/>
	<path style="fill:#C3A777;" d="M869.1,19.2c-2.6,1.3-5.7,3.1-8.3,3.1c-3.7,0-4.1-3.3-4.5-5.4c-1.1,1.7-3.4,5.4-9.1,5.4
		c-5.5,0-8.5-3.2-8.5-7.4c0-10.4,16.2-6.9,16.2-12.5c0-1.8-1.2-3.1-4.3-3.1c-5.2,0-6.6,3.4-7.6,5.4l-3.2-1.4c1.2-3.3,2.3-5.7,3-9
		l2.3,0.4c0.1,0.6,0.4,0.8,1.2,0.8c0.3,0,1.5-0.2,3-0.4c1.5-0.2,3.3-0.4,4.8-0.4c6.5,0,9.5,2,9.5,7.4v10.8c0,2.9,0.3,4.4,2,4.4
		c0.9,0,1.8-0.4,2.7-0.6L869.1,19.2z M851.4,9.8c-2.3,0.9-3.9,2.1-3.9,3.9c0,1.8,1.6,3.1,3.2,3.1c3.2,0,4.4-2.8,4.4-5.3v-3
		L851.4,9.8z"/>
	<path style="fill:#C3A777;" d="M870.2,18.8c2.2-0.4,3.5-1.1,3.5-5.3V6.2c0-4-0.9-5.2-3.5-5.5v-2.8c4.1,0,6.4-0.9,9.4-3.2h2.4
		l-0.2,5.7l0.1,0.1c1.5-2.6,4-5.8,8.6-5.8c0.6,0,1.2,0.2,1.7,0.4c0.4,2.9,1,5.9,1.6,8.8l-3.1,0.9c-0.7-1.5-1.2-3.2-3.7-3.2
		c-3.2,0-4.6,3.7-4.6,7.5v4.5c0,4.2,1.4,5,4.7,5.3v2.8c-2.9-0.1-6-0.3-9-0.3c-2.7,0-5.2,0.2-7.9,0.3V18.8z"/>
	<path style="fill:#C3A777;" d="M921.7,15c-1.8,2.5-4.8,7.3-13.2,7.3c-7.9,0-13.3-5.3-13.3-13.6c0-8.1,5.7-14,13.4-14
		c11.6,0,12.1,9.1,13.1,10.8c0.2,0.3,0.4,0.5,0.7,0.7l-1.6,2.5c-2.5-0.1-5-0.3-7.5-0.3c-2.9,0-5.9,0.1-8.8,0.3c0,3,1.4,8.5,7.3,8.5
		c3.7,0,5.9-3,7.2-4.4L921.7,15z M912.1,3.9c0-2.1-0.6-5.2-3.3-5.2c-3.2,0-4.2,2.3-4.4,5.2H912.1z"/>
	<path style="fill:#C3A777;" d="M923.1,18.8c2.2-0.4,3.5-1.1,3.5-5.3V6.2c0-4-0.9-5.2-3.5-5.5v-2.8c4.1,0,6.4-0.9,9.4-3.2h2.4
		l-0.6,5.4c2.9-2.3,6.4-5.4,10.5-5.4c5,0,7.5,3.2,7.5,8.7v10.1c0,4.2,0.9,4.9,3.3,5.3v2.8c-1.9-0.1-3.8-0.3-5.7-0.3
		c-1.8,0-3.7,0.2-5.5,0.3c-0.4-0.9-0.8-2.1-0.8-3.4v-12c0-2.8-0.7-4.9-3.4-4.9c-2,0-3.5,1.3-5.1,2.8v9.5c0,4.2,1.3,4.9,3.5,5.3v2.8
		c-2.6-0.1-5.3-0.3-7.9-0.3c-2.7,0-5.2,0.2-7.9,0.3V18.8z"/>
	<path style="fill:#C3A777;" d="M978.2,16.3c-1.8,1.9-5.6,6-11.5,6c-6.9,0-8-4.2-8-9V-0.3h-3.5v-2.6c5.5-1.5,7.5-4.1,9-8.6h3.1v7.3
		h4.2c2.1,0,3-0.1,4.5-0.4l1.3,2.3c-2.1,1.3-3.2,2.1-5.7,2.1h-4.3v12.1c0,3.8,1.4,5,3.4,5c2.3,0,3.6-1.5,5-2.9L978.2,16.3z"/>
	<path style="fill:#C3A777;" d="M980.3,22.3c-0.2-3.2-0.8-5.7-1.2-8.5l3.2-0.6c0.6,2.1,2,5,6.2,5c2.6,0,3.9-1.3,3.9-3
		c0-5.3-13-1.7-13-11.8c0-4.5,3.6-8.9,10.8-8.9c1.3,0,2.4,0.2,3.2,0.5c0.8,0.2,1.4,0.5,2,0.5c0.4,0,0.8-0.4,1.1-0.7l2.1-0.3
		c0.4,2.8,0.9,5.3,1.6,8l-3.2,0.4c-0.6-1.9-1.9-4.4-5.3-4.4c-2.5,0-3.6,1.3-3.6,2.8c0,4.8,13.2,1.8,13.2,11.8
		c0,5.3-3.7,9.1-11.6,9.1c-1.4,0-2.6-0.3-3.4-0.5c-0.9-0.3-1.6-0.5-2.1-0.5c-0.6,0-0.9,0.4-1.2,0.7L980.3,22.3z"/>
</g>
<g>
	<path d="M621.6-38.3c-2.3,0-3.8-1.7-4.2-3.9c-0.1-0.8-0.2-1.5-0.2-2.3c0-1.8,0.1-4,1.4-5.4c0.7-0.7,1.5-1.2,3-1.2
		c1.3,0,2.2,0.4,2.8,1c0.7,0.7,1,1.5,1,2.3h-2.2c0-0.4-0.2-0.7-0.4-0.9c-0.3-0.3-0.7-0.4-1.3-0.4c-0.6,0-0.9,0.2-1.2,0.5
		c-0.7,0.6-0.9,1.7-0.9,2.8c0.6-0.7,1.6-0.9,2.3-0.9c2.7,0,4.1,1.7,4.1,4.2C625.9-40.2,624.4-38.3,621.6-38.3z M621.6-45
		c-1.2,0-1.9,1-1.9,2.3c0,1.4,0.6,2.4,2,2.4c1.3,0,2-1,2-2.4C623.6-43.9,622.9-45,621.6-45z"/>
	<path d="M627.6-38.5v-2.8h2.7v2.8H627.6z"/>
	<path d="M647.2-38.5v-9l-3.3,8.8h-1.7l-3.3-8.9v9.1h-2.2v-12.6h3.1l3.3,9l3.3-9h2.9v12.6H647.2z"/>
	<path d="M659.1-38.4c-1,0-1.5-0.6-1.6-1.3c-0.4,0.7-1.5,1.4-2.8,1.4c-2.2,0-3.3-1.4-3.3-2.9c0-1.8,1.4-2.8,3.1-2.9l2.7-0.2v-0.6
		c0-0.9-0.3-1.5-1.6-1.5c-1,0-1.6,0.5-1.7,1.3h-2.1c0.1-2.1,1.8-3,3.8-3c1.6,0,2.9,0.5,3.5,1.9c0.2,0.6,0.3,1.2,0.3,1.9v3.4
		c0,0.4,0.1,0.6,0.5,0.6c0.1,0,0.3,0,0.3,0v1.6C659.8-38.5,659.6-38.4,659.1-38.4z M657.2-42.6l-2.3,0.2c-0.7,0.1-1.3,0.5-1.3,1.2
		c0,0.7,0.6,1.2,1.3,1.2c1.4,0,2.4-0.7,2.4-2.1V-42.6z"/>
	<path d="M666.6-45.8c-1.6,0-2.4,1.1-2.4,2.6v4.7H662v-9.2h1.9l0.2,1.4c0.4-1.1,1.5-1.5,2.6-1.5c0.2,0,0.5,0,0.7,0.1v2.1
		C667.1-45.7,666.8-45.8,666.6-45.8z"/>
	<path d="M675.5-39.3c-0.7,0.7-1.9,1.1-3.2,1.1c-1.2,0-2.2-0.3-3-1.1c-0.5-0.5-1-1.3-1-2.1h2.1c0,0.4,0.2,0.9,0.5,1.1
		c0.4,0.3,0.8,0.4,1.4,0.4c0.7,0,1.9-0.2,1.9-1.2c0-0.5-0.4-0.9-0.9-1c-0.8-0.1-1.7-0.2-2.6-0.4c-1.3-0.3-2.1-1.3-2.1-2.5
		c0-0.9,0.4-1.6,0.9-2.1c0.7-0.6,1.7-0.9,2.8-0.9c1.1,0,2.2,0.4,2.9,1.1c0.5,0.5,0.8,1.2,0.8,1.9H674c0-0.4-0.2-0.6-0.4-0.9
		c-0.3-0.3-0.7-0.4-1.2-0.4c-0.3,0-0.6,0-1,0.1c-0.4,0.2-0.7,0.5-0.7,1c0,0.7,0.6,0.9,1.1,0.9c0.8,0.1,1.1,0.1,2,0.3
		c1.5,0.2,2.5,1.2,2.5,2.6C676.3-40.5,676-39.8,675.5-39.3z"/>
</g>
</svg>
