<?xml version="1.0" encoding="utf-8"?>
<!-- Generator: Adobe Illustrator 16.0.0, SVG Export Plug-In . SVG Version: 6.00 Build 0)  -->
<!DOCTYPE svg PUBLIC "-//W3C//DTD SVG 1.1//EN" "http://www.w3.org/Graphics/SVG/1.1/DTD/svg11.dtd">
<svg version="1.1" id="Ebene_1" xmlns="http://www.w3.org/2000/svg" xmlns:xlink="http://www.w3.org/1999/xlink" x="0px" y="0px"
	 width="557px" height="94px" viewBox="0 0 557 94" style="enable-background:new 0 0 557 94;" xml:space="preserve">
<g>
	<defs>
		<rect id="SVGID_1_" x="31" y="28.095" width="499.323" height="64.905"/>
	</defs>
	<clipPath id="SVGID_2_">
		<use xlink:href="#SVGID_1_"  style="overflow:visible;"/>
	</clipPath>
	<path style="clip-path:url(#SVGID_2_);fill:#C3A777;" d="M505.979,54.389c0-3.391,1.139-7.197,4.697-7.197
		c3.845,0,5.196,3.877,5.196,8.166c0,3.807-1.352,7.196-4.839,7.196C507.26,62.554,505.979,58.887,505.979,54.389 M517.013,38.889
		c0.498-0.139,1.28-0.276,1.778-0.276c1.068,0,1.709,0.623,1.709,1.66c0,1.315-1.495,2.284-3.845,2.284
		c-0.925,0-1.85-0.069-2.704-0.207c-0.925-0.07-1.851-0.14-2.776-0.14c-10.321,0-17.012,5.882-17.012,12.524
		c0,7.127,3.985,8.927,6.904,10.725c-1.708,2.7-2.562,3.876-5.838,6.437c0,6.228,5.339,8.926,13.453,8.926
		c7.902,0,10.25,0.553,10.25,3.184c0,2.491-4.27,4.013-9.608,4.013c-5.125,0-8.399-1.521-8.399-3.667
		c0-0.554,0.071-1.038,0.426-1.592l-3.558-2.975c-1.708,0.76-3.488,1.66-5.267,2.282c-0.073,0.416-0.145,1.038-0.145,1.522
		c0,6.229,7.19,9.411,16.657,9.411c9.396,0,21.284-3.045,21.284-12.04c0-5.467-4.2-9.965-15.305-9.965
		c-8.257,0-10.107-0.415-10.107-2.145c0-0.623,0.356-1.245,0.64-1.937c1.709,0.345,3.417,0.622,5.196,0.622
		c7.546,0,16.942-3.806,16.942-12.87c0-5.882-3.844-8.164-5.908-9.48c3.702-1.176,7.475-3.459,7.475-7.611
		c0-2.769-2.064-5.121-4.343-6.435c-3.346,2.145-4.769,2.699-8.97,4.082L517.013,38.889z M474.096,59.441v3.805
		c0,3.183-1.566,6.643-5.694,6.643c-2.064,0-4.059-1.661-4.059-3.876c0-2.352,2.065-3.805,5.056-4.911L474.096,59.441z
		 M491.18,69.543c-1.139,0.276-2.279,0.761-3.417,0.761c-2.135,0-2.562-1.868-2.562-5.467V51.413c0-6.711-3.844-9.203-12.173-9.203
		c-1.921,0-4.271,0.208-6.192,0.484c-1.922,0.208-3.416,0.486-3.845,0.486c-0.996,0-1.352-0.208-1.494-0.97l-2.989-0.553
		c-0.926,4.083-2.278,7.127-3.845,11.209l4.058,1.8c1.353-2.492,3.133-6.781,9.823-6.781c3.986,0,5.553,1.66,5.553,3.875
		c0,6.988-20.857,2.699-20.857,15.638c0,5.328,3.845,9.272,10.893,9.272c7.26,0,10.25-4.637,11.674-6.713
		c0.498,2.562,1.067,6.713,5.765,6.713c3.274,0,7.262-2.215,10.606-3.875L491.18,69.543z M448.398,66.152
		c-1.779,1.73-3.416,3.598-6.407,3.598c-2.49,0-4.341-1.522-4.341-6.228V48.438h5.552c3.274,0,4.627-0.97,7.331-2.629l-1.707-2.907
		c-1.993,0.417-3.132,0.554-5.838,0.554h-5.338v-9.065h-3.987c-1.922,5.674-4.484,8.927-11.603,10.794v3.252h4.485v17.021
		c0,6.021,1.423,11.211,10.25,11.211c7.616,0,12.458-5.121,14.806-7.543L448.398,66.152z M379.671,75.77
		c3.418-0.138,6.692-0.346,10.109-0.346c3.346,0,6.762,0.208,10.107,0.346v-3.459c-2.848-0.485-4.556-1.315-4.556-6.574V53.835
		c1.992-1.799,3.988-3.46,6.549-3.46c3.561,0,4.413,2.63,4.413,6.16v15.014c0,1.661,0.428,3.045,0.996,4.221
		c2.278-0.138,4.771-0.346,7.048-0.346c2.491,0,4.842,0.208,7.332,0.346v-3.459c-3.133-0.485-4.271-1.315-4.271-6.574V53.073
		c0-6.849-3.275-10.863-9.681-10.863c-5.268,0-9.753,3.806-13.525,6.712l0.712-6.712h-3.133c-3.843,2.769-6.833,3.945-12.102,3.945
		v3.459c3.418,0.484,4.556,1.938,4.556,6.921v9.201c0,5.259-1.708,6.089-4.556,6.574V75.77z M346.87,75.77
		c3.417-0.138,6.692-0.346,10.109-0.346c3.772,0,7.758,0.208,11.531,0.346v-3.459c-4.129-0.346-5.979-1.315-5.979-6.574v-5.605
		c0-4.773,1.851-9.34,5.909-9.34c3.203,0,3.844,2.075,4.769,3.943l3.986-1.106c-0.713-3.599-1.424-7.266-1.994-10.934
		c-0.712-0.276-1.493-0.484-2.206-0.484c-5.907,0-9.11,4.014-11.032,7.267l-0.144-0.14l0.285-7.127h-3.132
		c-3.844,2.769-6.834,3.945-12.103,3.945v3.459c3.417,0.484,4.557,1.938,4.557,6.921v9.201c0,5.259-1.708,6.089-4.557,6.574V75.77z
		 M321.594,53.696c0.285-3.598,1.637-6.505,5.693-6.505c3.489,0,4.201,3.945,4.201,6.505H321.594z M340.173,64.837
		c-1.638,1.73-4.484,5.467-9.254,5.467c-7.545,0-9.325-6.781-9.325-10.587c3.701-0.208,7.616-0.346,11.318-0.346
		c3.203,0,6.407,0.207,9.609,0.346l2.064-3.182c-0.284-0.277-0.641-0.555-0.854-0.901c-1.282-2.075-1.923-13.424-16.799-13.424
		c-9.896,0-17.156,7.404-17.156,17.507c0,10.379,6.977,16.953,17.084,16.953c10.75,0,14.663-6.021,16.942-9.134L340.173,64.837z
		 M305.172,66.152c-1.779,1.73-3.418,3.598-6.407,3.598c-2.49,0-4.342-1.522-4.342-6.228V48.438h5.554
		c3.273,0,4.627-0.97,7.331-2.629l-1.709-2.907c-1.993,0.417-3.131,0.554-5.836,0.554h-5.34v-9.065h-3.985
		c-1.922,5.674-4.486,8.927-11.603,10.794v3.252h4.482v17.021c0,6.021,1.426,11.211,10.251,11.211
		c7.617,0,12.458-5.121,14.808-7.543L305.172,66.152z M273.803,28.095h-3.133c-3.845,2.768-7.261,3.945-12.529,3.945v3.459
		c3.417,0.483,4.556,1.868,4.556,6.711v23.526c0,5.259-1.708,6.089-4.556,6.574v3.459c3.417-0.138,6.692-0.346,10.109-0.346
		c3.345,0,6.763,0.208,10.107,0.346v-3.459c-2.847-0.485-4.555-1.315-4.555-6.574V28.095z M233.398,53.696
		c0.285-3.598,1.637-6.505,5.695-6.505c3.488,0,4.2,3.945,4.2,6.505H233.398z M251.978,64.837c-1.637,1.73-4.484,5.467-9.254,5.467
		c-7.546,0-9.326-6.781-9.326-10.587c3.702-0.208,7.617-0.346,11.319-0.346c3.203,0,6.407,0.207,9.609,0.346l2.064-3.182
		c-0.285-0.277-0.641-0.555-0.854-0.901c-1.282-2.075-1.922-13.424-16.799-13.424c-9.894,0-17.155,7.404-17.155,17.507
		c0,10.379,6.976,16.953,17.084,16.953c10.749,0,14.664-6.021,16.942-9.134L251.978,64.837z M193.893,76.323
		c0.285-0.346,0.712-0.899,1.495-0.899c0.569,0,1.423,0.277,2.634,0.623c1.139,0.276,2.634,0.623,4.413,0.623
		c10.25,0,14.949-4.774,14.949-11.349c0-12.385-16.942-8.718-16.942-14.668c0-1.8,1.423-3.462,4.626-3.462
		c4.343,0,6.052,3.115,6.834,5.537l4.129-0.555c-0.784-3.39-1.424-6.503-1.994-9.964l-2.705,0.347c-0.356,0.415-0.854,0.9-1.424,0.9
		c-0.711,0-1.495-0.347-2.562-0.623c-1.068-0.347-2.42-0.624-4.129-0.624c-9.254,0-13.881,5.397-13.881,11.071
		c0,12.595,16.658,8.097,16.658,14.669c0,2.077-1.709,3.738-4.983,3.738c-5.411,0-7.26-3.738-7.973-6.298l-4.058,0.693
		c0.57,3.527,1.282,6.571,1.567,10.586L193.893,76.323z M160.9,76.323c0.285-0.346,0.712-0.899,1.495-0.899
		c0.569,0,1.424,0.277,2.634,0.623c1.139,0.276,2.634,0.623,4.413,0.623c10.251,0,14.948-4.774,14.948-11.349
		c0-12.385-16.941-8.718-16.941-14.668c0-1.8,1.424-3.462,4.627-3.462c4.342,0,6.051,3.115,6.834,5.537l4.128-0.555
		c-0.783-3.39-1.424-6.503-1.994-9.964l-2.704,0.347c-0.356,0.415-0.854,0.9-1.424,0.9c-0.712,0-1.495-0.347-2.563-0.623
		c-1.068-0.347-2.42-0.624-4.128-0.624c-9.254,0-13.88,5.397-13.88,11.071c0,12.595,16.656,8.097,16.656,14.669
		c0,2.077-1.708,3.738-4.983,3.738c-5.41,0-7.261-3.738-7.972-6.298l-4.058,0.693c0.57,3.527,1.282,6.571,1.566,10.586L160.9,76.323
		z M126.542,59.441c0-5.745,1.209-12.25,6.619-12.25c5.41,0,6.62,6.505,6.62,12.25c0,5.741-1.21,12.247-6.62,12.247
		C127.751,71.688,126.542,65.183,126.542,59.441 M133.161,76.67c11.105,0,18.437-6.988,18.437-17.229
		c0-10.242-7.332-17.231-18.437-17.231c-11.104,0-18.437,6.989-18.437,17.231C114.724,69.682,122.056,76.67,133.161,76.67
		 M81.561,75.77c3.417-0.138,6.691-0.346,10.108-0.346c3.772,0,7.759,0.208,11.531,0.346v-3.459
		c-4.128-0.346-5.979-1.315-5.979-6.574v-5.605c0-4.773,1.851-9.34,5.908-9.34c3.203,0,3.844,2.075,4.769,3.943l3.987-1.106
		c-0.713-3.599-1.424-7.266-1.993-10.934c-0.712-0.276-1.495-0.484-2.207-0.484c-5.908,0-9.111,4.014-11.033,7.267l-0.143-0.14
		l0.284-7.127h-3.131c-3.844,2.769-6.833,3.945-12.101,3.945v3.459c3.417,0.484,4.555,1.938,4.555,6.921v9.201
		c0,5.259-1.708,6.089-4.555,6.574V75.77z M77.839,70.373c-2.562-0.416-3.702-1.107-3.702-5.052c0-2.63,0.356-6.366,0.356-9.063
		c0-1.038-0.285-2.215-0.854-3.114c-2.919,0.138-5.837,0.346-8.685,0.346c-3.204,0-6.406-0.208-9.61-0.346v3.46
		c4.626,0.414,6.833,1.037,6.833,4.843v3.183c0,3.46-0.925,6.229-6.69,6.229c-8.898,0-11.39-8.582-11.39-15.985
		c0-8.58,2.919-17.922,13.311-17.922c6.976,0,10.25,4.36,11.604,7.266l4.128-1.661c-1.352-3.737-2.491-7.127-3.559-11.417
		l-2.99,0.346c-0.285,0.554-0.855,0.9-1.352,0.9c-0.783,0-1.851-0.346-3.489-0.624c-1.566-0.346-3.702-0.623-6.691-0.623
		C43.244,31.14,31,37.644,31,54.943C31,71.065,43.314,76.67,53.352,76.67c4.84,0,14.805-2.698,24.487-2.838V70.373z"/>
</g>
<g>
	<defs>
		<rect id="SVGID_3_" x="244.969" y="-4.761" width="88.031" height="28.89"/>
	</defs>
	<clipPath id="SVGID_4_">
		<use xlink:href="#SVGID_3_"  style="overflow:visible;"/>
	</clipPath>
	<path style="clip-path:url(#SVGID_4_);fill:#231F20;" d="M312.222,15.948v-1.82h-4.842l4.806-5.372V6.76h-7.42v1.82h4.822
		l-4.859,5.424v1.944H312.222z M303.545,8.81V6.689c-0.23-0.035-0.46-0.053-0.689-0.053c-1.078,0-2.173,0.442-2.598,1.502
		l-0.194-1.379h-1.872v9.188h2.226v-4.63c0-1.484,0.812-2.598,2.367-2.598C303.032,8.721,303.297,8.756,303.545,8.81 M291.178,3.19
		h-2.067v2.138h2.067V3.19z M294.817,3.19h-2.067v2.138h2.067V3.19z M293.438,12.29c0,1.361-0.971,2.104-2.349,2.104
		c-0.689,0-1.308-0.442-1.308-1.149c0-0.742,0.653-1.148,1.325-1.201l2.331-0.177V12.29z M296.391,15.842v-1.625
		c0,0-0.142,0.035-0.283,0.035c-0.371,0-0.513-0.16-0.513-0.583v-3.411c0-0.619-0.035-1.272-0.265-1.855
		c-0.529-1.379-1.873-1.873-3.446-1.873c-2.05,0-3.692,0.919-3.816,2.986h2.139c0.053-0.848,0.653-1.307,1.678-1.307
		c1.255,0,1.555,0.583,1.555,1.449v0.565l-2.702,0.195c-1.749,0.123-3.11,1.13-3.11,2.88c0,1.502,1.132,2.88,3.322,2.88
		c1.307,0,2.368-0.636,2.792-1.378c0.069,0.688,0.601,1.29,1.555,1.29C295.825,16.09,296.019,16.001,296.391,15.842 M285.672,15.948
		V3.42h-2.916l-3.305,8.924l-3.285-8.924h-3.075v12.528h2.209V6.901l3.233,8.87h1.679l3.251-8.764v8.941H285.672z M266.677,13.192
		h-2.686v2.756h2.686V13.192z M260.032,11.813c0,1.431-0.653,2.386-1.979,2.386c-1.308,0-1.944-1.042-1.944-2.386
		c0-1.29,0.724-2.297,1.908-2.297C259.378,9.516,260.032,10.541,260.032,11.813 M262.276,11.902c0-2.492-1.396-4.188-4.046-4.188
		c-0.742,0-1.785,0.248-2.332,0.902c0-1.079,0.176-2.191,0.848-2.81c0.3-0.282,0.636-0.495,1.219-0.495
		c0.601,0,1.025,0.142,1.308,0.442c0.229,0.229,0.389,0.565,0.424,0.936h2.226c0-0.724-0.353-1.607-1.042-2.261
		c-0.636-0.602-1.555-1.008-2.809-1.008c-1.467,0-2.333,0.531-3.004,1.237c-1.254,1.343-1.36,3.552-1.36,5.354
		c0,0.778,0.052,1.502,0.194,2.297c0.371,2.209,1.82,3.87,4.153,3.87C260.845,16.178,262.276,14.305,262.276,11.902"/>
</g>
</svg>
