<?xml version="1.0" encoding="utf-8"?>
<!-- Generator: Adobe Illustrator 18.1.1, SVG Export Plug-In . SVG Version: 6.00 Build 0)  -->
<svg version="1.1" id="Ebene_1" xmlns="http://www.w3.org/2000/svg" xmlns:xlink="http://www.w3.org/1999/xlink" x="0px" y="0px"
	 width="288" height="130" viewBox="0 0 288 130" style="enable-background:new 0 0 288 130;" xml:space="preserve">
<style type="text/css">
	.st0{fill:#FFFFFF;}
	.st1{fill:#9E834F;}
	.st2{fill:#FF5F00;}
</style>
<rect x="0" class="st0" width="288" height="130"/>
<g>
	<g>
		<path class="st1" d="M9.9,113.6l5.6,16H12l-1.2-3.5H4.5l-1.2,3.5H0l5.8-16H9.9z M10,123.6l-2.2-6.8l-2.4,6.8H10z"/>
		<path class="st1" d="M19.3,113.7l4.2,12.6l4.2-12.6h3.4l-5.9,16h-3.7l-5.9-16H19.3z"/>
		<path class="st1" d="M33.8,113.6h10.7v2.6h-7.3v3.8h6.8v2.6h-6.8v4.3h7.5v2.7h-11V113.6z"/>
		<path class="st1" d="M57,118.8c-0.1-0.6-0.3-2.8-2.6-2.8c-2.5,0-3.6,2.7-3.6,6c0,1,0,5.5,3.3,5.5c1.4,0,2.8-0.9,2.9-3h3.6
			c-0.1,1-0.2,2.4-1.4,3.8c-1.4,1.5-3.2,1.8-4.7,1.8c-5.5,0-7.3-4.1-7.3-8c0-5.1,2.8-8.4,7.3-8.4c3.5,0,6,2.1,6,5.3H57z"/>
		<path class="st1" d="M70.7,113.6h6.1c1.8,0,3.6,0,4.9,1.1c1,0.9,1.4,2,1.4,3.1c0,3-2.6,3.7-3.3,3.9c2.4,0.2,2.6,1.6,2.9,3.7
			c0.2,1.9,0.4,2.7,0.5,3.1c0.2,0.7,0.3,0.9,0.5,1.2h-3.8c-0.2-0.9-0.6-4.9-0.9-5.6c-0.3-0.9-1.2-0.9-1.7-0.9h-3v6.5h-3.5V113.6z
			 M74.1,120.6h2.8c0.4,0,1.2,0,1.8-0.4c0.2-0.2,0.9-0.7,0.9-1.9c0-1.1-0.5-1.6-0.8-1.8c-0.5-0.4-1.2-0.4-2.3-0.4h-2.3V120.6z"/>
		<path class="st1" d="M86.8,113.6h10.7v2.6h-7.3v3.8h6.8v2.6h-6.8v4.3h7.5v2.7h-11V113.6z"/>
		<path class="st1" d="M103.8,113.7l4.2,12.6l4.2-12.6h3.4l-5.9,16H106l-5.9-16H103.8z"/>
		<path class="st1" d="M118.4,113.6h10.7v2.6h-7.3v3.8h6.8v2.6h-6.8v4.3h7.5v2.7h-11V113.6z"/>
		<path class="st1" d="M132.8,113.6h5l6,12.6v-12.6h3.2v16h-4.7l-6.2-13.3v13.3h-3.2V113.6z"/>
		<path class="st1" d="M154.5,113.6v9.8c0,1.8,0.1,3.9,3.5,3.9c0.6,0,2.2,0,3.1-1.4c0.3-0.5,0.5-1.1,0.5-2.7v-9.6h3.3v10
			c0,4.8-3.8,6.3-7,6.3c-1.6,0-4.5-0.4-6-2.8c-0.8-1.2-0.8-2.5-0.8-3.9v-9.6H154.5z"/>
		<path class="st1" d="M169.1,113.6h10.7v2.6h-7.3v3.8h6.8v2.6h-6.8v4.3h7.5v2.7h-11V113.6z"/>
		<path class="st1" d="M190.5,113.6l5.3,0c0.9,0,3.6,0,5.5,1.4c2,1.5,2.7,4,2.7,6.3c0,4.9-2.6,7.5-5.7,8c-0.6,0.1-1.3,0.2-2.9,0.2
			h-5V113.6z M194,127c0.4,0,1,0,1.4,0c1.5,0,2.7-0.1,3.7-1.1c1.4-1.4,1.4-3.7,1.4-4.5c0-2.3-0.8-4.3-2.9-4.9
			c-0.7-0.2-1.6-0.3-3.6-0.2V127z"/>
		<path class="st1" d="M207.5,113.6h10.7v2.6H211v3.8h6.8v2.6H211v4.3h7.5v2.7h-11V113.6z"/>
		<path class="st1" d="M229.1,113.6h6c0.9,0,2.7,0,3.9,0.8c1.5,0.9,1.8,2.5,1.8,3.4c0,0.6-0.1,1.6-0.9,2.4c-0.1,0.1-0.9,0.8-1.8,1.1
			v0c2.4,0.4,3.4,2.2,3.4,3.9c0,1.9-1.1,3.1-2.3,3.8c-1.2,0.6-3.4,0.6-4,0.6h-6V113.6z M232.3,120.1h2.4c1,0,2.7,0,2.7-2.1
			c0-2-1.7-2-2.8-2h-2.3V120.1z M232.3,127.1h2.3c1.6,0,3.3,0,3.3-2.2c0-2.3-2.1-2.3-3.7-2.3h-2V127.1z"/>
		<path class="st1" d="M253.1,113.6l5.6,16h-3.5l-1.2-3.5h-6.3l-1.2,3.5h-3.3l5.8-16H253.1z M253.1,123.6l-2.2-6.8l-2.4,6.8H253.1z"
			/>
		<path class="st1" d="M264,124.5c0,0.8,0,3,2.9,3c1.9,0,3-0.9,3-2.2c0-1.4-1-1.7-3-2.2c-3.8-1-5.9-2.1-5.9-4.9c0-2.6,1.9-5,6.3-5
			c1.7,0,3.6,0.4,4.8,1.9c0.9,1.2,0.9,2.4,0.9,3h-3.3c0-0.6-0.2-2.4-2.6-2.4c-1.6,0-2.6,0.9-2.6,2.2c0,1.5,1.2,1.8,3.5,2.3
			c2.8,0.7,5.5,1.4,5.5,4.5c0,2.9-2.4,5.2-6.8,5.2c-6.1,0-6.2-3.9-6.2-5.5H264z"/>
		<path class="st1" d="M277,113.6h10.7v2.6h-7.3v3.8h6.8v2.6h-6.8v4.3h7.5v2.7h-11V113.6z"/>
	</g>
</g>
<g>
	<g>
		<path class="st2" d="M33.2,17.9v47.6C33.2,76.4,25.3,81,17,81C0.7,81,0,73.5,0,59.4h11.9c0,5-1,12.4,5.1,12.4
			c2.6,0,4.5-2.7,4.5-5.3V17.9H33.2z"/>
		<path class="st2" d="M40.7,80V17.9h30.5v9.5H52.4v15.3h17.3v9.5H52.4v18.1h19.4V80H40.7z"/>
	</g>
</g>
</svg>
