<?xml version="1.0" encoding="utf-8"?>
<!-- Generator: Adobe Illustrator 18.1.1, SVG Export Plug-In . SVG Version: 6.00 Build 0)  -->
<svg version="1.1" id="Ebene_1" xmlns="http://www.w3.org/2000/svg" xmlns:xlink="http://www.w3.org/1999/xlink" x="0px" y="0px"
	 width="557" height="94" viewBox="0 0 557 94" style="enable-background:new 0 0 557 94;" xml:space="preserve">
<style type="text/css">
	.st0{fill:#9E834F;}
	.st1{fill:#FF5F00;}
</style>
<g>
	<path class="st0" d="M27.9,53.4c0.1-5.3-0.7-9.9-6.4-9.9c-6.7,0-6.7,10-6.7,21c0,17.8,1.6,20.9,7.7,20.9c1.8,0,3.7-0.5,5.3-1.1
		V71.7H22V63h16.5v28.8c-2.9,0.6-10.2,1.9-14.5,1.9c-18,0-20-8.3-20-29.8c0-14.3,0.6-28.9,18.1-28.9c10.5,0,17,6.5,16.4,18.4H27.9z"
		/>
	<path class="st0" d="M54.8,92.7H44.1V35.9h19.8c7.3,0,12,5.2,12,14.9c0,7.2-2.6,12.7-9.5,13.9v0.2c2.3,0.3,9.3,0.9,9.3,11.2
		c0,3.6,0.2,14.3,1.2,16.7H66.4c-1.4-3.5-1.1-7.3-1.1-11c0-6.8,0.6-12.5-7.7-12.5h-2.8V92.7z M54.8,60.5h4.7c4.3,0,5.5-4.7,5.5-8.3
		c0-5.4-2.1-7.5-5.5-7.5h-4.7V60.5z"/>
	<path class="st0" d="M115,35.9v40.3c0,8.5-4.3,17.5-17.4,17.5c-11.8,0-17.4-6.8-17.4-17.5V35.9H91v39.5c0,7,2.7,9.8,6.6,9.8
		c4.7,0,6.8-3.5,6.8-9.8V35.9H115z"/>
	<path class="st0" d="M120.6,92.7V35.9h14.5l13.6,39.4h0.1V35.9h10v56.8h-14.1l-14-41.6h-0.1v41.6H120.6z"/>
	<path class="st0" d="M164.7,35.9h17.9c14,0,16.6,10.4,16.6,28.1c0,8.7,1.2,28.7-17.1,28.7h-17.4V35.9z M175.4,84h5.2
		c6.5,0,7.8-5.4,7.8-19.7c0-10.5,0-19.7-7.4-19.7h-5.5V84z"/>
	<path class="st0" d="M204,92.7V35.9h27.9v8.7h-17.2v14h15.9v8.7h-15.9V84h17.8v8.7H204z"/>
	<path class="st0" d="M236.4,92.7V35.9h10.7v56.8H236.4z"/>
	<path class="st0" d="M252.8,92.7V35.9h14.5l13.6,39.4h0.1V35.9h10v56.8h-14.1l-14-41.6h-0.1v41.6H252.8z"/>
	<path class="st0" d="M319.9,35.9h11.8l-14.3,25.5l14.3,31.3h-12l-12.3-29.1h-0.1v29.1h-10.7V35.9h10.7v24.3h0.1L319.9,35.9z"/>
	<path class="st0" d="M331.6,64.3c0-15,0-29.4,17.6-29.4s17.6,14.3,17.6,29.4c0,14.9,0,29.4-17.6,29.4S331.6,79.2,331.6,64.3z
		 M356,64.3c0-14.6-0.8-20.9-6.8-20.9c-6,0-6.8,6.3-6.8,20.9s0.8,20.9,6.8,20.9C355.2,85.2,356,78.9,356,64.3z"/>
	<path class="st0" d="M371.9,92.7V35.9h17.2l8,38.7h0.1l8.5-38.7h16.6v56.8H412V48.9h-0.1L402,92.7h-10.2l-9.4-43.8h-0.1v43.8H371.9
		z"/>
	<path class="st0" d="M428,92.7V35.9h17.2l8,38.7h0.1l8.5-38.7h16.6v56.8h-10.4V48.9H468l-9.8,43.8h-10.2l-9.4-43.8h-0.1v43.8H428z"
		/>
	<path class="st0" d="M484.2,92.7V35.9h27.9v8.7h-17.2v14h15.9v8.7h-15.9V84h17.8v8.7H484.2z"/>
	<path class="st0" d="M516.7,92.7V35.9h14.5l13.6,39.4h0.1V35.9h10v56.8h-14.1l-14-41.6h-0.1v41.6H516.7z"/>
</g>
<g>
	<g>
		<path class="st1" d="M213.1,5.3c0-0.4,0-1-0.4-1.6c-0.7-1.1-1.9-1.2-2.7-1.2c-3.9,0-4.6,3.6-4.6,6.1c0,1.1,0.2,3,1.3,4.3
			c0.8,0.9,1.8,1.4,3.7,1.4c1.7,0,2.2-0.2,2.6-0.3v-3.3h-3.1V7.9h6.5v7.9c-1,0.3-2.6,0.9-5.8,0.9c-3.6,0-5.5-0.9-6.8-2.1
			c-1.8-1.7-2.1-4.3-2.1-5.9c0-5.6,3.5-8.6,8.3-8.6c2,0,4.2,0.6,5.4,2c1.1,1.2,1.1,2.5,1.1,3.3H213.1z"/>
		<path class="st1" d="M220.8,0.4h10.6V3h-7.2v3.8h6.8v2.6h-6.8v4.3h7.5v2.6h-10.9V0.4z"/>
		<path class="st1" d="M235.5,0.4h4.9l6,12.5V0.4h3.2v15.9h-4.7l-6.2-13.2v13.2h-3.2V0.4z"/>
		<path class="st1" d="M254,0.4h10.6V3h-7.2v3.8h6.8v2.6h-6.8v4.3h7.5v2.6H254V0.4z"/>
		<path class="st1" d="M268.6,0.4h6.1c1.8,0,3.5,0,4.8,1.1c1,0.9,1.4,2,1.4,3.1c0,3-2.6,3.7-3.3,3.9c2.4,0.2,2.6,1.6,2.9,3.7
			c0.2,1.9,0.4,2.6,0.5,3.1c0.2,0.7,0.3,0.9,0.5,1.1h-3.8c-0.2-0.9-0.6-4.9-0.9-5.5c-0.3-0.9-1.1-0.9-1.7-0.9h-3v6.4h-3.5V0.4z
			 M272,7.4h2.8c0.4,0,1.2,0,1.7-0.4c0.2-0.2,0.9-0.7,0.9-1.8c0-1.1-0.5-1.6-0.8-1.8c-0.5-0.4-1.2-0.4-2.2-0.4H272V7.4z"/>
		<path class="st1" d="M293.8,0.4l5.5,15.9h-3.4l-1.1-3.4h-6.3l-1.2,3.4H284l5.7-15.9H293.8z M293.8,10.3l-2.2-6.8l-2.4,6.8H293.8z"
			/>
		<path class="st1" d="M304.3,3.1h-4.7V0.4h12.9v2.6h-4.7v13.3h-3.4V3.1z"/>
		<path class="st1" d="M315.5,0.4h3.4v16h-3.4V0.4z"/>
		<path class="st1" d="M330.2,0.1c1.7,0,4,0.4,5.6,2.2c1.7,1.9,2,4.4,2,6c0,2.3-0.7,4.8-2,6.2c-1.8,2-4.3,2.3-5.7,2.3
			c-2.1,0-4.2-0.7-5.6-2.2c-1.7-1.8-2-4.5-2-5.9C322.5,4.4,324.5,0.1,330.2,0.1z M327.3,13c0.5,0.7,1.3,1.3,2.9,1.3
			c1.4,0,2.3-0.5,3-1.5c0.5-0.8,1.1-2,1.1-4.6c0-0.8-0.1-1.9-0.4-2.8c-0.7-2-2-2.8-3.6-2.8c-1.3,0-2.3,0.5-2.9,1.3
			c-0.9,1.1-1.2,2.8-1.2,4.6C326.1,10,326.3,11.7,327.3,13z"/>
		<path class="st1" d="M341.6,0.4h4.9l6,12.5V0.4h3.2v15.9H351l-6.2-13.2v13.2h-3.2V0.4z"/>
	</g>
</g>
</svg>
